<mxfile host="Electron" modified="2023-09-15T20:51:46.768Z" agent="Mozilla/5.0 (Windows NT 10.0; Win64; x64) AppleWebKit/537.36 (KHTML, like Gecko) draw.io/21.6.8 Chrome/114.0.5735.289 Electron/25.5.0 Safari/537.36" etag="ITGatdiY9IeiJVTH8mze" version="21.6.8" type="device">
  <diagram name="Page-1" id="xWRLw3RsQlxHdDztz-68">
    <mxGraphModel dx="1098" dy="988" grid="1" gridSize="10" guides="1" tooltips="1" connect="1" arrows="1" fold="1" page="1" pageScale="1" pageWidth="827" pageHeight="1169" math="0" shadow="0">
      <root>
        <mxCell id="0" />
        <mxCell id="1" parent="0" />
        <mxCell id="mY7nZqozZcySCIN-nUUZ-54" value="" style="rounded=1;whiteSpace=wrap;html=1;" parent="1" vertex="1">
          <mxGeometry x="30" y="505" width="240" height="160" as="geometry" />
        </mxCell>
        <mxCell id="mY7nZqozZcySCIN-nUUZ-113" value="" style="rounded=0;whiteSpace=wrap;html=1;fontSize=9;" parent="1" vertex="1">
          <mxGeometry x="40" y="510" width="40" height="140" as="geometry" />
        </mxCell>
        <mxCell id="mY7nZqozZcySCIN-nUUZ-1" value="" style="rounded=1;whiteSpace=wrap;html=1;" parent="1" vertex="1">
          <mxGeometry x="40" y="40" width="240" height="160" as="geometry" />
        </mxCell>
        <mxCell id="mY7nZqozZcySCIN-nUUZ-2" value="&lt;h1&gt;&lt;font style=&quot;font-size: 11px;&quot;&gt;Heading&lt;/font&gt;&lt;/h1&gt;&lt;p&gt;&lt;font style=&quot;font-size: 9px;&quot;&gt;Lorem ipsum dolor sit amet, consectetur adipisicing elit, sed do eiusmod tempor incididunt ut labore et dolore magna aliqua.&lt;/font&gt;&lt;/p&gt;" style="text;html=1;strokeColor=none;fillColor=none;spacing=5;spacingTop=-20;whiteSpace=wrap;overflow=hidden;rounded=0;" parent="1" vertex="1">
          <mxGeometry x="130" y="62.5" width="140" height="137.5" as="geometry" />
        </mxCell>
        <mxCell id="mY7nZqozZcySCIN-nUUZ-3" value="" style="rounded=0;whiteSpace=wrap;html=1;fontSize=9;" parent="1" vertex="1">
          <mxGeometry x="50" y="50" width="40" height="140" as="geometry" />
        </mxCell>
        <mxCell id="mY7nZqozZcySCIN-nUUZ-4" value="" style="rounded=1;whiteSpace=wrap;html=1;" parent="1" vertex="1">
          <mxGeometry x="320" y="40" width="240" height="160" as="geometry" />
        </mxCell>
        <mxCell id="mY7nZqozZcySCIN-nUUZ-5" value="&lt;font style=&quot;font-size: 12px;&quot;&gt;compte des utilisateur&lt;/font&gt;&lt;br&gt;&lt;br&gt;" style="text;html=1;strokeColor=none;fillColor=none;spacing=5;spacingTop=-20;whiteSpace=wrap;overflow=hidden;rounded=0;" parent="1" vertex="1">
          <mxGeometry x="410" y="62.5" width="140" height="137.5" as="geometry" />
        </mxCell>
        <mxCell id="mY7nZqozZcySCIN-nUUZ-6" value="" style="rounded=0;whiteSpace=wrap;html=1;fontSize=9;" parent="1" vertex="1">
          <mxGeometry x="330" y="50" width="40" height="140" as="geometry" />
        </mxCell>
        <mxCell id="mY7nZqozZcySCIN-nUUZ-7" value="&lt;font style=&quot;font-size: 14px;&quot;&gt;ADMIN&lt;/font&gt;" style="text;html=1;align=center;verticalAlign=middle;resizable=0;points=[];autosize=1;strokeColor=none;fillColor=none;fontSize=9;" parent="1" vertex="1">
          <mxGeometry x="530" width="70" height="30" as="geometry" />
        </mxCell>
        <mxCell id="mY7nZqozZcySCIN-nUUZ-8" value="" style="shape=process;whiteSpace=wrap;html=1;backgroundOutline=1;fontSize=12;" parent="1" vertex="1">
          <mxGeometry x="390" y="70" width="150" height="110" as="geometry" />
        </mxCell>
        <mxCell id="mY7nZqozZcySCIN-nUUZ-9" value="" style="rounded=1;whiteSpace=wrap;html=1;" parent="1" vertex="1">
          <mxGeometry x="600" y="40" width="240" height="160" as="geometry" />
        </mxCell>
        <mxCell id="mY7nZqozZcySCIN-nUUZ-10" value="&lt;font style=&quot;font-size: 12px;&quot;&gt;Postes des utilisateur&lt;/font&gt;&lt;br&gt;" style="text;html=1;strokeColor=none;fillColor=none;spacing=5;spacingTop=-20;whiteSpace=wrap;overflow=hidden;rounded=0;" parent="1" vertex="1">
          <mxGeometry x="680" y="52.5" width="140" height="17.5" as="geometry" />
        </mxCell>
        <mxCell id="mY7nZqozZcySCIN-nUUZ-11" value="" style="rounded=0;whiteSpace=wrap;html=1;fontSize=9;" parent="1" vertex="1">
          <mxGeometry x="610" y="50" width="40" height="140" as="geometry" />
        </mxCell>
        <mxCell id="mY7nZqozZcySCIN-nUUZ-12" value="" style="shape=process;whiteSpace=wrap;html=1;backgroundOutline=1;fontSize=12;" parent="1" vertex="1">
          <mxGeometry x="670" y="70" width="150" height="110" as="geometry" />
        </mxCell>
        <mxCell id="mY7nZqozZcySCIN-nUUZ-13" value="" style="rounded=1;whiteSpace=wrap;html=1;" parent="1" vertex="1">
          <mxGeometry x="30" y="270" width="240" height="160" as="geometry" />
        </mxCell>
        <mxCell id="mY7nZqozZcySCIN-nUUZ-14" value="&lt;h1&gt;&lt;font style=&quot;font-size: 11px;&quot;&gt;Heading&lt;/font&gt;&lt;/h1&gt;&lt;p&gt;&lt;font style=&quot;font-size: 9px;&quot;&gt;Lorem ipsum dolor sit amet, consectetur adipisicing elit, sed do eiusmod tempor incididunt ut labore et dolore magna aliqua.&lt;/font&gt;&lt;/p&gt;" style="text;html=1;strokeColor=none;fillColor=none;spacing=5;spacingTop=-20;whiteSpace=wrap;overflow=hidden;rounded=0;" parent="1" vertex="1">
          <mxGeometry x="120" y="292.5" width="140" height="137.5" as="geometry" />
        </mxCell>
        <mxCell id="mY7nZqozZcySCIN-nUUZ-15" value="" style="rounded=0;whiteSpace=wrap;html=1;fontSize=9;" parent="1" vertex="1">
          <mxGeometry x="40" y="280" width="40" height="140" as="geometry" />
        </mxCell>
        <mxCell id="mY7nZqozZcySCIN-nUUZ-16" value="&lt;font style=&quot;font-size: 14px;&quot;&gt;Utilisateur&lt;br&gt;&lt;/font&gt;" style="text;html=1;align=center;verticalAlign=middle;resizable=0;points=[];autosize=1;strokeColor=none;fillColor=none;fontSize=9;" parent="1" vertex="1">
          <mxGeometry x="500" y="230" width="90" height="30" as="geometry" />
        </mxCell>
        <mxCell id="mY7nZqozZcySCIN-nUUZ-17" value="" style="ellipse;whiteSpace=wrap;html=1;aspect=fixed;fontSize=12;" parent="1" vertex="1">
          <mxGeometry x="240" y="280" width="20" height="20" as="geometry" />
        </mxCell>
        <mxCell id="mY7nZqozZcySCIN-nUUZ-18" value="Profil" style="text;html=1;align=center;verticalAlign=middle;resizable=0;points=[];autosize=1;strokeColor=none;fillColor=none;fontSize=12;" parent="1" vertex="1">
          <mxGeometry x="35" y="280" width="50" height="30" as="geometry" />
        </mxCell>
        <mxCell id="mY7nZqozZcySCIN-nUUZ-19" value="Mise en lication" style="text;html=1;align=center;verticalAlign=middle;resizable=0;points=[];autosize=1;strokeColor=none;fillColor=none;fontSize=12;" parent="1" vertex="1">
          <mxGeometry x="5" y="310" width="110" height="30" as="geometry" />
        </mxCell>
        <mxCell id="mY7nZqozZcySCIN-nUUZ-20" value="Post" style="text;html=1;align=center;verticalAlign=middle;resizable=0;points=[];autosize=1;strokeColor=none;fillColor=none;fontSize=12;" parent="1" vertex="1">
          <mxGeometry x="35" y="346.25" width="50" height="30" as="geometry" />
        </mxCell>
        <mxCell id="mY7nZqozZcySCIN-nUUZ-21" value="" style="rounded=1;whiteSpace=wrap;html=1;" parent="1" vertex="1">
          <mxGeometry x="320" y="270" width="240" height="160" as="geometry" />
        </mxCell>
        <mxCell id="mY7nZqozZcySCIN-nUUZ-23" value="" style="rounded=0;whiteSpace=wrap;html=1;fontSize=9;" parent="1" vertex="1">
          <mxGeometry x="330" y="280" width="40" height="140" as="geometry" />
        </mxCell>
        <mxCell id="mY7nZqozZcySCIN-nUUZ-24" value="" style="ellipse;whiteSpace=wrap;html=1;aspect=fixed;fontSize=12;" parent="1" vertex="1">
          <mxGeometry x="530" y="280" width="20" height="20" as="geometry" />
        </mxCell>
        <mxCell id="mY7nZqozZcySCIN-nUUZ-25" value="Profil" style="text;html=1;align=center;verticalAlign=middle;resizable=0;points=[];autosize=1;strokeColor=none;fillColor=none;fontSize=12;" parent="1" vertex="1">
          <mxGeometry x="325" y="280" width="50" height="30" as="geometry" />
        </mxCell>
        <mxCell id="mY7nZqozZcySCIN-nUUZ-26" value="Mise en lication" style="text;html=1;align=center;verticalAlign=middle;resizable=0;points=[];autosize=1;strokeColor=none;fillColor=none;fontSize=12;" parent="1" vertex="1">
          <mxGeometry x="290" y="310" width="110" height="30" as="geometry" />
        </mxCell>
        <mxCell id="mY7nZqozZcySCIN-nUUZ-27" value="Post" style="text;html=1;align=center;verticalAlign=middle;resizable=0;points=[];autosize=1;strokeColor=none;fillColor=none;fontSize=12;" parent="1" vertex="1">
          <mxGeometry x="325" y="346.25" width="50" height="30" as="geometry" />
        </mxCell>
        <mxCell id="mY7nZqozZcySCIN-nUUZ-28" value="" style="shape=process;whiteSpace=wrap;html=1;backgroundOutline=1;fontSize=12;" parent="1" vertex="1">
          <mxGeometry x="385" y="323.13" width="50" height="40" as="geometry" />
        </mxCell>
        <mxCell id="mY7nZqozZcySCIN-nUUZ-29" value="" style="shape=process;whiteSpace=wrap;html=1;backgroundOutline=1;fontSize=12;" parent="1" vertex="1">
          <mxGeometry x="445" y="323.13" width="50" height="40" as="geometry" />
        </mxCell>
        <mxCell id="mY7nZqozZcySCIN-nUUZ-30" value="" style="shape=process;whiteSpace=wrap;html=1;backgroundOutline=1;fontSize=12;" parent="1" vertex="1">
          <mxGeometry x="385" y="379.38" width="50" height="40" as="geometry" />
        </mxCell>
        <mxCell id="mY7nZqozZcySCIN-nUUZ-31" value="" style="shape=process;whiteSpace=wrap;html=1;backgroundOutline=1;fontSize=12;" parent="1" vertex="1">
          <mxGeometry x="445" y="379.38" width="50" height="40" as="geometry" />
        </mxCell>
        <mxCell id="mY7nZqozZcySCIN-nUUZ-32" value="" style="shape=process;whiteSpace=wrap;html=1;backgroundOutline=1;fontSize=12;" parent="1" vertex="1">
          <mxGeometry x="500" y="376.25" width="50" height="40" as="geometry" />
        </mxCell>
        <mxCell id="mY7nZqozZcySCIN-nUUZ-33" value="" style="shape=process;whiteSpace=wrap;html=1;backgroundOutline=1;fontSize=12;" parent="1" vertex="1">
          <mxGeometry x="500" y="323.13" width="50" height="40" as="geometry" />
        </mxCell>
        <mxCell id="mY7nZqozZcySCIN-nUUZ-34" value="" style="rounded=1;whiteSpace=wrap;html=1;" parent="1" vertex="1">
          <mxGeometry x="600" y="270" width="240" height="160" as="geometry" />
        </mxCell>
        <mxCell id="mY7nZqozZcySCIN-nUUZ-35" value="" style="rounded=0;whiteSpace=wrap;html=1;fontSize=9;" parent="1" vertex="1">
          <mxGeometry x="610" y="280" width="40" height="140" as="geometry" />
        </mxCell>
        <mxCell id="mY7nZqozZcySCIN-nUUZ-36" value="" style="ellipse;whiteSpace=wrap;html=1;aspect=fixed;fontSize=12;" parent="1" vertex="1">
          <mxGeometry x="810" y="280" width="20" height="20" as="geometry" />
        </mxCell>
        <mxCell id="mY7nZqozZcySCIN-nUUZ-37" value="Profil" style="text;html=1;align=center;verticalAlign=middle;resizable=0;points=[];autosize=1;strokeColor=none;fillColor=none;fontSize=12;" parent="1" vertex="1">
          <mxGeometry x="605" y="280" width="50" height="30" as="geometry" />
        </mxCell>
        <mxCell id="mY7nZqozZcySCIN-nUUZ-38" value="Post" style="text;html=1;align=center;verticalAlign=middle;resizable=0;points=[];autosize=1;strokeColor=none;fillColor=none;fontSize=12;" parent="1" vertex="1">
          <mxGeometry x="605" y="346.25" width="50" height="30" as="geometry" />
        </mxCell>
        <mxCell id="mY7nZqozZcySCIN-nUUZ-45" value="Mise en lication" style="text;html=1;align=center;verticalAlign=middle;resizable=0;points=[];autosize=1;strokeColor=none;fillColor=none;fontSize=12;" parent="1" vertex="1">
          <mxGeometry x="570" y="316.25" width="110" height="30" as="geometry" />
        </mxCell>
        <mxCell id="mY7nZqozZcySCIN-nUUZ-46" value="&lt;font style=&quot;font-size: 10px;&quot;&gt;Nom du compte&lt;/font&gt;" style="text;html=1;align=center;verticalAlign=middle;resizable=0;points=[];autosize=1;strokeColor=none;fillColor=none;fontSize=12;" parent="1" vertex="1">
          <mxGeometry x="650" y="300" width="90" height="30" as="geometry" />
        </mxCell>
        <mxCell id="mY7nZqozZcySCIN-nUUZ-47" value="&lt;span style=&quot;font-size: 10px;&quot;&gt;Téléphone&lt;/span&gt;" style="text;html=1;align=center;verticalAlign=middle;resizable=0;points=[];autosize=1;strokeColor=none;fillColor=none;fontSize=12;" parent="1" vertex="1">
          <mxGeometry x="747" y="300" width="70" height="30" as="geometry" />
        </mxCell>
        <mxCell id="mY7nZqozZcySCIN-nUUZ-48" value="&lt;font style=&quot;font-size: 10px;&quot;&gt;Prenom du compte&lt;/font&gt;" style="text;html=1;align=center;verticalAlign=middle;resizable=0;points=[];autosize=1;strokeColor=none;fillColor=none;fontSize=12;" parent="1" vertex="1">
          <mxGeometry x="640" y="330" width="110" height="30" as="geometry" />
        </mxCell>
        <mxCell id="mY7nZqozZcySCIN-nUUZ-49" value="&lt;font style=&quot;font-size: 10px;&quot;&gt;Téléphone Portable&lt;/font&gt;" style="text;html=1;align=center;verticalAlign=middle;resizable=0;points=[];autosize=1;strokeColor=none;fillColor=none;fontSize=12;" parent="1" vertex="1">
          <mxGeometry x="730" y="330" width="110" height="30" as="geometry" />
        </mxCell>
        <mxCell id="mY7nZqozZcySCIN-nUUZ-50" value="&lt;font style=&quot;font-size: 10px;&quot;&gt;Mot de passe&lt;/font&gt;" style="text;html=1;align=center;verticalAlign=middle;resizable=0;points=[];autosize=1;strokeColor=none;fillColor=none;fontSize=12;" parent="1" vertex="1">
          <mxGeometry x="660" y="360" width="80" height="30" as="geometry" />
        </mxCell>
        <mxCell id="mY7nZqozZcySCIN-nUUZ-51" value="&lt;span style=&quot;font-size: 10px;&quot;&gt;Type du compte&lt;br&gt;&lt;/span&gt;" style="text;html=1;align=center;verticalAlign=middle;resizable=0;points=[];autosize=1;strokeColor=none;fillColor=none;fontSize=12;" parent="1" vertex="1">
          <mxGeometry x="680" y="270" width="90" height="30" as="geometry" />
        </mxCell>
        <mxCell id="mY7nZqozZcySCIN-nUUZ-52" value="&lt;span style=&quot;font-size: 10px;&quot;&gt;user&lt;br&gt;&lt;/span&gt;" style="text;html=1;align=center;verticalAlign=middle;resizable=0;points=[];autosize=1;strokeColor=none;fillColor=none;fontSize=12;" parent="1" vertex="1">
          <mxGeometry x="762" y="360" width="40" height="30" as="geometry" />
        </mxCell>
        <mxCell id="mY7nZqozZcySCIN-nUUZ-53" value="&lt;span style=&quot;color: rgb(0, 0, 0); font-family: Helvetica; font-size: 14px; font-style: normal; font-variant-ligatures: normal; font-variant-caps: normal; font-weight: 400; letter-spacing: normal; orphans: 2; text-align: center; text-indent: 0px; text-transform: none; widows: 2; word-spacing: 0px; -webkit-text-stroke-width: 0px; background-color: rgb(251, 251, 251); text-decoration-thickness: initial; text-decoration-style: initial; text-decoration-color: initial; float: none; display: inline !important;&quot;&gt;Vacancier&lt;/span&gt;" style="text;whiteSpace=wrap;html=1;fontSize=10;" parent="1" vertex="1">
          <mxGeometry x="540" y="460" width="100" height="40" as="geometry" />
        </mxCell>
        <mxCell id="mY7nZqozZcySCIN-nUUZ-55" value="&lt;h1&gt;&lt;font style=&quot;font-size: 11px;&quot;&gt;Heading&lt;/font&gt;&lt;/h1&gt;&lt;p&gt;&lt;font style=&quot;font-size: 9px;&quot;&gt;Lorem ipsum dolor sit amet, consectetur adipisicing elit, sed do eiusmod tempor incididunt ut labore et dolore magna aliqua.&lt;/font&gt;&lt;/p&gt;" style="text;html=1;strokeColor=none;fillColor=none;spacing=5;spacingTop=-20;whiteSpace=wrap;overflow=hidden;rounded=0;" parent="1" vertex="1">
          <mxGeometry x="120" y="527.5" width="140" height="137.5" as="geometry" />
        </mxCell>
        <mxCell id="mY7nZqozZcySCIN-nUUZ-57" value="" style="ellipse;whiteSpace=wrap;html=1;aspect=fixed;fontSize=12;" parent="1" vertex="1">
          <mxGeometry x="240" y="515" width="20" height="20" as="geometry" />
        </mxCell>
        <mxCell id="mY7nZqozZcySCIN-nUUZ-58" value="Profil" style="text;html=1;align=center;verticalAlign=middle;resizable=0;points=[];autosize=1;strokeColor=none;fillColor=none;fontSize=12;" parent="1" vertex="1">
          <mxGeometry x="35" y="515" width="50" height="30" as="geometry" />
        </mxCell>
        <mxCell id="mY7nZqozZcySCIN-nUUZ-59" value="Location" style="text;html=1;align=center;verticalAlign=middle;resizable=0;points=[];autosize=1;strokeColor=none;fillColor=none;fontSize=12;" parent="1" vertex="1">
          <mxGeometry x="25" y="545" width="70" height="30" as="geometry" />
        </mxCell>
        <mxCell id="mY7nZqozZcySCIN-nUUZ-61" value="" style="rounded=1;whiteSpace=wrap;html=1;" parent="1" vertex="1">
          <mxGeometry x="305" y="505" width="240" height="160" as="geometry" />
        </mxCell>
        <mxCell id="mY7nZqozZcySCIN-nUUZ-62" value="" style="rounded=0;whiteSpace=wrap;html=1;fontSize=9;" parent="1" vertex="1">
          <mxGeometry x="315" y="515" width="40" height="140" as="geometry" />
        </mxCell>
        <mxCell id="mY7nZqozZcySCIN-nUUZ-63" value="" style="ellipse;whiteSpace=wrap;html=1;aspect=fixed;fontSize=12;" parent="1" vertex="1">
          <mxGeometry x="515" y="515" width="20" height="20" as="geometry" />
        </mxCell>
        <mxCell id="mY7nZqozZcySCIN-nUUZ-64" value="Profil" style="text;html=1;align=center;verticalAlign=middle;resizable=0;points=[];autosize=1;strokeColor=none;fillColor=none;fontSize=12;" parent="1" vertex="1">
          <mxGeometry x="310" y="515" width="50" height="30" as="geometry" />
        </mxCell>
        <mxCell id="mY7nZqozZcySCIN-nUUZ-65" value="Mise en lication" style="text;html=1;align=center;verticalAlign=middle;resizable=0;points=[];autosize=1;strokeColor=none;fillColor=none;fontSize=12;" parent="1" vertex="1">
          <mxGeometry x="275" y="545" width="110" height="30" as="geometry" />
        </mxCell>
        <mxCell id="mY7nZqozZcySCIN-nUUZ-67" value="" style="shape=process;whiteSpace=wrap;html=1;backgroundOutline=1;fontSize=12;" parent="1" vertex="1">
          <mxGeometry x="370" y="558.13" width="50" height="40" as="geometry" />
        </mxCell>
        <mxCell id="mY7nZqozZcySCIN-nUUZ-68" value="" style="shape=process;whiteSpace=wrap;html=1;backgroundOutline=1;fontSize=12;" parent="1" vertex="1">
          <mxGeometry x="430" y="558.13" width="50" height="40" as="geometry" />
        </mxCell>
        <mxCell id="mY7nZqozZcySCIN-nUUZ-69" value="" style="shape=process;whiteSpace=wrap;html=1;backgroundOutline=1;fontSize=12;" parent="1" vertex="1">
          <mxGeometry x="370" y="614.38" width="50" height="40" as="geometry" />
        </mxCell>
        <mxCell id="mY7nZqozZcySCIN-nUUZ-70" value="" style="shape=process;whiteSpace=wrap;html=1;backgroundOutline=1;fontSize=12;" parent="1" vertex="1">
          <mxGeometry x="430" y="614.38" width="50" height="40" as="geometry" />
        </mxCell>
        <mxCell id="mY7nZqozZcySCIN-nUUZ-71" value="" style="shape=process;whiteSpace=wrap;html=1;backgroundOutline=1;fontSize=12;" parent="1" vertex="1">
          <mxGeometry x="485" y="611.25" width="50" height="40" as="geometry" />
        </mxCell>
        <mxCell id="mY7nZqozZcySCIN-nUUZ-72" value="" style="shape=process;whiteSpace=wrap;html=1;backgroundOutline=1;fontSize=12;" parent="1" vertex="1">
          <mxGeometry x="485" y="558.13" width="50" height="40" as="geometry" />
        </mxCell>
        <mxCell id="mY7nZqozZcySCIN-nUUZ-73" value="Locations" style="text;html=1;align=center;verticalAlign=middle;resizable=0;points=[];autosize=1;strokeColor=none;fillColor=none;fontSize=10;" parent="1" vertex="1">
          <mxGeometry x="390" y="510" width="70" height="30" as="geometry" />
        </mxCell>
        <mxCell id="mY7nZqozZcySCIN-nUUZ-74" value="Mes locations" style="text;html=1;align=center;verticalAlign=middle;resizable=0;points=[];autosize=1;strokeColor=none;fillColor=none;fontSize=10;" parent="1" vertex="1">
          <mxGeometry x="410" y="275" width="80" height="30" as="geometry" />
        </mxCell>
        <mxCell id="mY7nZqozZcySCIN-nUUZ-100" value="" style="rounded=1;whiteSpace=wrap;html=1;" parent="1" vertex="1">
          <mxGeometry x="610" y="505" width="240" height="160" as="geometry" />
        </mxCell>
        <mxCell id="mY7nZqozZcySCIN-nUUZ-101" value="" style="rounded=0;whiteSpace=wrap;html=1;fontSize=9;" parent="1" vertex="1">
          <mxGeometry x="620" y="515" width="40" height="140" as="geometry" />
        </mxCell>
        <mxCell id="mY7nZqozZcySCIN-nUUZ-102" value="" style="ellipse;whiteSpace=wrap;html=1;aspect=fixed;fontSize=12;" parent="1" vertex="1">
          <mxGeometry x="820" y="515" width="20" height="20" as="geometry" />
        </mxCell>
        <mxCell id="mY7nZqozZcySCIN-nUUZ-103" value="Profil" style="text;html=1;align=center;verticalAlign=middle;resizable=0;points=[];autosize=1;strokeColor=none;fillColor=none;fontSize=12;" parent="1" vertex="1">
          <mxGeometry x="615" y="515" width="50" height="30" as="geometry" />
        </mxCell>
        <mxCell id="mY7nZqozZcySCIN-nUUZ-105" value="&lt;font style=&quot;font-size: 10px;&quot;&gt;Nom du compte&lt;/font&gt;" style="text;html=1;align=center;verticalAlign=middle;resizable=0;points=[];autosize=1;strokeColor=none;fillColor=none;fontSize=12;" parent="1" vertex="1">
          <mxGeometry x="660" y="535" width="90" height="30" as="geometry" />
        </mxCell>
        <mxCell id="mY7nZqozZcySCIN-nUUZ-106" value="&lt;span style=&quot;font-size: 10px;&quot;&gt;Téléphone&lt;/span&gt;" style="text;html=1;align=center;verticalAlign=middle;resizable=0;points=[];autosize=1;strokeColor=none;fillColor=none;fontSize=12;" parent="1" vertex="1">
          <mxGeometry x="757" y="535" width="70" height="30" as="geometry" />
        </mxCell>
        <mxCell id="mY7nZqozZcySCIN-nUUZ-107" value="&lt;font style=&quot;font-size: 10px;&quot;&gt;Prenom du compte&lt;/font&gt;" style="text;html=1;align=center;verticalAlign=middle;resizable=0;points=[];autosize=1;strokeColor=none;fillColor=none;fontSize=12;" parent="1" vertex="1">
          <mxGeometry x="650" y="565" width="110" height="30" as="geometry" />
        </mxCell>
        <mxCell id="mY7nZqozZcySCIN-nUUZ-108" value="&lt;font style=&quot;font-size: 10px;&quot;&gt;Téléphone Portable&lt;/font&gt;" style="text;html=1;align=center;verticalAlign=middle;resizable=0;points=[];autosize=1;strokeColor=none;fillColor=none;fontSize=12;" parent="1" vertex="1">
          <mxGeometry x="740" y="565" width="110" height="30" as="geometry" />
        </mxCell>
        <mxCell id="mY7nZqozZcySCIN-nUUZ-109" value="&lt;font style=&quot;font-size: 10px;&quot;&gt;Mot de passe&lt;/font&gt;" style="text;html=1;align=center;verticalAlign=middle;resizable=0;points=[];autosize=1;strokeColor=none;fillColor=none;fontSize=12;" parent="1" vertex="1">
          <mxGeometry x="670" y="595" width="80" height="30" as="geometry" />
        </mxCell>
        <mxCell id="mY7nZqozZcySCIN-nUUZ-110" value="&lt;span style=&quot;font-size: 10px;&quot;&gt;Type du compte&lt;br&gt;&lt;/span&gt;" style="text;html=1;align=center;verticalAlign=middle;resizable=0;points=[];autosize=1;strokeColor=none;fillColor=none;fontSize=12;" parent="1" vertex="1">
          <mxGeometry x="690" y="505" width="90" height="30" as="geometry" />
        </mxCell>
        <mxCell id="mY7nZqozZcySCIN-nUUZ-111" value="&lt;span style=&quot;font-size: 10px;&quot;&gt;user&lt;br&gt;&lt;/span&gt;" style="text;html=1;align=center;verticalAlign=middle;resizable=0;points=[];autosize=1;strokeColor=none;fillColor=none;fontSize=12;" parent="1" vertex="1">
          <mxGeometry x="772" y="595" width="40" height="30" as="geometry" />
        </mxCell>
        <mxCell id="mY7nZqozZcySCIN-nUUZ-112" value="Location" style="text;html=1;align=center;verticalAlign=middle;resizable=0;points=[];autosize=1;strokeColor=none;fillColor=none;fontSize=12;" parent="1" vertex="1">
          <mxGeometry x="610" y="545" width="70" height="30" as="geometry" />
        </mxCell>
        <mxCell id="AZZ-qtWrd7Wv2XII90Gk-1" value="Gerer les comptes" style="text;html=1;align=center;verticalAlign=middle;resizable=0;points=[];autosize=1;strokeColor=none;fillColor=none;" parent="1" vertex="1">
          <mxGeometry x="10" y="52.5" width="120" height="30" as="geometry" />
        </mxCell>
        <mxCell id="AZZ-qtWrd7Wv2XII90Gk-2" value="Gerer les locations" style="text;html=1;align=center;verticalAlign=middle;resizable=0;points=[];autosize=1;strokeColor=none;fillColor=none;" parent="1" vertex="1">
          <mxGeometry x="10" y="82.5" width="120" height="30" as="geometry" />
        </mxCell>
        <mxCell id="rWaITT2EThvCBO6h_sI9-1" value="" style="shape=image;verticalLabelPosition=bottom;labelBackgroundColor=default;verticalAlign=top;aspect=fixed;imageAspect=0;image=data:image/png,iVBORw0KGgoAAAANSUhEUgAAA34AAADdCAYAAADkSaDJAAAAAXNSR0IArs4c6QAAAARnQU1BAACxjwv8YQUAAAAJcEhZcwAADsMAAA7DAcdvqGQAAP+lSURBVHhe7L0HnG1ZVee/qurWrfzq5dQ593ud3usI3U3OGEAREBBRQEUwg2mc+YwzpvEvOjrKjKOOccDEoIhgwDSjJAnd0E3n7tfp5VA536r6/75rnXXvqdv1UtPQ3Xh+t/bdee21w627fnfvc05Ho9FYNmF52b2T+on2eIUKFSpUqFChQoUKFSpUeGLR0dFRhAIZP20f4lcmd+Xwvv177fCRgzYzM21LS0vNSl5GYY8u+5tenmELjYaNT83a7Pw8KV5WJVXeowEKK55teX4ZpWiXddrgQK8N9PVEHRJ5Qy4KuCPRkxxZPf0i2QssLC7ZkZExW1Ji0R2V62jpmSgFkUuU9qKnWXLZemtdNjw8ZB2dRfsuN3OXpb3CJcWoqaLue+FIjmBnoYdXCX2W5HcqnVJLy0tFvtcQXLrDx7IZifK8L3UsuexmHcqVQKxDaZmactxHBmGFFhcXvSolIw+fGh5cHarc1Skdi7ZbxVZWaPWnBdKa6fJYf43FZZucmrYFulQ0HuUUIJrllbdM2NP8j8Tij/HstFpXp60Z7PecbMerqExEYy6yXsruKGQk5hcWbUI6ISPWlOrlZyWqyCsCoFU1oCzmt7+3brVajSUgZKFSPQXLVZEZbUQZ3hta21PSZVGKRNlypSjnIFikR/VWHqGurg5bs2bAenvqtvvKa6y7uzsyK1SoUKFChQoVKjxlgH2MvdqyZVv282p+x8LCgsqHFYiP+/in/tk++Jfvt/0H9rkR66COipFfJiOgU4K84aVFm56dt/v2HrJHDx1TWsPTO2FFQjaMDIzvJJOYqRiy6Teh9nq6uuzc7Zvt/LO3eP6ikuEylOqSoQyWQrzLBRjnOASQ5O2ir/Qbn561z915v03NLHhSSydoVCFI8NTiLfWkn9ECWBYpNdvYX7crr7xUY7IgGUHpXK7eXB/kwggAbSmNel2dXZ6Pq6mPNY3RXGPBxiYmrLev1+odXTK8g+xCCBDVWFhwGYz9smQWoyqnOcHYLwamQwPSuURbImydLIYsR/Oqp7YgkYEY88Vinl0nf7XAfC/KLWn8PF6URSnKUWdJpCySlq0h8g+YY+bINeSN8fNihXwimigfW5UlkRxfM4rHeIf+i+rPzPyCHRudsMm5ZZufnxMZDT0W1Zdmf1yGoPHLefM51h+60deayPo6EZvzz9rkaV0igRTItYDn4xBKup9z38E4qy0fQ8WPjU3bg4/u8/b4USEqL0Z/KK8X6wp5q4F1Uu+u2bYt621woM+6VQ3JyKZKS3+tQ0RH73z9dMrRQqf0p8z01Izde99D1lBB5ouV1qGBb8pYBaSnrqwp5mPNUJ9dcO4ZtnnTWvuln/1V6TXo+RUqVKhQoUKFChWeWkjbe4XdK7SH3Z+fn3dLMgzdZfvDP/k9+6u//RAlvACAaCAMcoBxSE6XyArlIQUIgxR0yCBmN+ahg6N274OPSAkRFQETVE03DUxAHTdi/S+MWU9DnrcQ6FZ4+8Zhu/Sic5w8ULITq1hlQ4aCMuS9s1QgXTK6ZJi7fkr3ZIxjlZ6ambfb7n/Ejo2MK7XVrvtO3OTLuc6e3iJ+npe+XJfeNvR2267dO22hMau8MMQdOS6QBFqOpoJIe3qQX8YT4oEhPzU3Z3ffe7+IQN16JAuCQlnk1LtEoCSjXq9bX2+v71j19dZ8N4Z8lwXhUFgKw4ZCk5JO7NqpgO/CAXRAH4gD+vnYo1sxLsSbzlOCAKFTronMWNT805fmrqTSfG3wgqgqDEGjbsrM+rRJC5QFPjaeRkRylbyg/uDY9VvUsmJtQXwaiw2bVxnqJJDdkC4N9ZcPAv48+RIEaWN8N21Ya2dvGS5qsMY1Bvhql3GS5/JJdH15oZd0dF1dvw47MjJpD+87oDHr9DYBIxjzQWXJ0csFKu71CnmEcRC/c87aYj31bqtpkp1Sav0mGeez5nOlcaQ8w8R6ifWGnqR32uTklN151/1K6A7iyH651jRt5WePtl1GgQzjk8daXL9ujZ15xkbbunGd/eLP/rcnjPj5eFT4sqA8pxUqVKhQoUKFf3vAfsXuxSYo23cr4hA/N0Tl/uyDf2x//qH3u+GfBQBhDOal3NEQMCQhe27MFfYcpvCijOu9xybs1i/eo5QwXEG50dXghjASJI9ybqgqLPPWNg/32xU7LnC9oHddRXtu7FO2WyQ0jW7VY1cGcpP9csg4xgSeXVi0Ox/cb/sPHo70JsinT+zm0JMcg+g7vpcq9UGt2sb+Hrvyykuc+HV1dUvnqIsc14Fw6iDQR8iYE2jJYkx5QUzn5hftls/foRr0mjpRj+rsCtJyTSQB4sJxvP5udsWkMwX0V6+LCKrNmvo6NNBnw2uGnCAAiIH70qtbJBL9fJdQfYP4AR8r+odeBemI+aWcktVIB4RD6dShDP3wtbDcUK7qqFySHggX/XX5xFUe8chyEuoI/ajoc6gC1PWxyfWlvLmFhohf6NahMSOd3UQ/giqy5MRIJZk7xIgfev+C+KkucpRHfqfGsr+vx4Y1d6mrrzeBdqP9DKNvjBXxLpHxTOPjcOjYmO0/dNSWIGo0yjhrLFIuSvmuW8r390D0ccmPVF5w/hmaq1hTSi3GNMqlrGUVoA5CcrcPpMyp6Rm76+496l+3fw6dpi7hh+4u0+cgamS/iacu3VpfWzatt40bh2yb/C+V+PkYVPiKIue3QoUKFSpUqPBvC9i9sYERtl3aBBnudINS7v4H7vHjneweYBxTzP3ChsDQZOcBl8YiRq2H5TCm2dnBsRuF8UpZbyTLKzXMwAgn3DAtxR0eDcOb6wZdjuLs5HmiEHqqtixwintcWTTlpKQoR7xDGR6Xq3P8UIm0G/nRetNI9fKk4ED6K8GODKRCNnYUwVJHRCHGxbm+RTihSOiul3z6RBgutISwThEakcNF90XSRNTmVH9WZSfmGzYiA//IxLTtE8F+5MioPXJ41B4S+Xhw/1F74MBRu3//EXvo8DFb0LjPLC3INdxNNxbswNFj7g6NjNmRsTEbn5kVGRaxgbhINY4I4jRpPqfMO6SR3ccu6QEB9R0mxlz9h85oEflR1W6Vralel/K7pGu3utItggqZ8Xitu+nq3bi672DW6z0K91hPT28Rj+vdfOdT4V7lD/b125r+PndDg3022N+rdBG4nm4bUJmBerf1S8e62unT+iM80N1lwyJ46wf6bcNgr20Y6LGNQ31yvTbIjwWNRVuSY/0si1gSXlxY8PTlhojdAvmRrgXl8xtkOdwiu41zc6rfsC4RwQ4R1Q6NM9SYHx9ghrlyKN8M61WcxPVx5geNjg7Wq+ZBjnSqe3n1x0mtfE/AUzg/p4B81qIf/9Q84Jxs4lQk11o0GJ/BCEaYNpeWpbsmk/I1Tdyy+uE7jpJ9usjxwVX4yqMa/woVKlSoUGHl9+GpuCcaq7VxIvdEAPvZOc4qcgljt3vgH//f3xLSK4xBEOQHm1eGsIxA4ukgc0EM5MtxDE0ZvhOFKbu0uLCiLL4bzb6RFHJbfqstgBbs/nB8UJLcd1nKw4Vxq7YkF9LktElK4zDCUxLGMaA/yPQC8uscofRUIQsXfugRrqTSqnD5cnQJnQKqh14czcQA14v++01O9ErELiJjKg/H5Oi1KAOcE6fwPzR0o780aSB6IVaviotqY1nzIGtd4Q7TqNv04rJNzM0qvmwNtcNOG5tRcyIwo1PTdnhs3I6Oj9uxiUmRvwk7Mjpu0yI8cyo3r/bnpdekCM19Dz1sD+7db3tFKo+OTyptQflaH13dIi7qDYtLjp2omH/WRM19/zHA+y3d1DZjESQyXKdILY75S+Ib88kPByKZCuN3q63umgigSGBfj5wIXp+IHjt2vfJJ6xdhDNdnA71FuLdH4cL19brf212zHsih9OXq0E71hesvnaT52hTpks+PBv7DgVwOdqYv8ktK4ZbE1Af6+mzLxg22ad2wbRoetHUDIpVqq0/Etifb8XVIfc0tJMvlSihEi2WjeeKYtBrxufbPIGXI0nhAEpdUxtdBoY87IZZOENLY9Qyhvu5KZSlHm1keUZ7kL/QSuVUbTFeNM8x88hiX00DIPXmdLFe5J8adCKdarkKFChUqVPhqwJfyvfel1E18KTK+lLpl5OV4ibJM3/EDn/ncp9wEbAJGgsOElE8ehqWqxw6CW5IFPBwJvMM21UKTsK3cfcuKwUY95PLCOZQcSnpmM8/TJKt8I48oG6Q0ySnHJ71cYTwHwuhF95rIybKYkKSWCFtLjxbK4ZWIcpQPgoNc92XkZ17qu0KkQDTHmjzKx1hEaoxX4fTynReV86OQJUQNZalNb4u4ZNFrbnzS0Ph7PcVJQ1ff0VN4XjLnJZ8bykzPz9m8SIzMf2uo/HyHiN/ivD1w4IA9cPCQ3X/gsN3zyAH74p5H7fYHHpF72L7wwB75D9rtex60ux551O59ZJ8dGBm3wxNTNjG/aLNir43Oui2KuCVRDH3xeXnHnYtDU9gxrIkQOpFXGrtmChXjWjjKez9MZLDmjrXG8UvmlOsd2T3kuKKTQpEyXOwa1p2k4SCIPZRTXXZ/6wXR9LbkIJ84p0+un9rUuOUuXjh9HhYa1qN66wYHbD1uaMA2rhmyjcNrbNPaNbZl/TrbvH7YNm9Ya1s2rLOtG9fbpvVrbePaIVs31G/93SK2mpkuzRNtZPuazGI9FP1WG+V1yfrIHwTSZ53Nz89HWmmdZD0ftxUuPg/eLxWnnLfv61fdY8dTLkqfGN6+3GrIvLKr8MTiVMe3GvsKFSpUqPDViFP5DjxdnI68J7v9dkD8wGoynPgtLMzb3NxsFFBi7kgkYQtCs9L45PwohiJkIkGunyuV8eh3cyzKZ6PESfF25FIcqdFyUUYu2o0CSeCyraYM6igCeQuSpKj0dME4spHXrKWynV1+c5REU7ciP5E6tCP1c/HK9puaFATNFRB8d4hzm6GCy0F61gXo3JJF/yMfAoI8kAZ81FG5ZvixYMy9vbLORdCP4Ho0SB93QWUXCaKXzm8cooXiN3rxPLMF6TitguMickenZuzQ2ITtPXLMj5U+dHjEHjw04v6eA0cVPmb37z9s9z560O7Ys9fufHCfffHBRxV+WHWO+I7ijIjJzMKczS02fCeSXoaTomqfdtVBYqFzlxzzKe3pFuvBdwV9QQchajqlMTa+W0g/SFMcRx1ujlMXAcVxJLVH67OXo6a1OErqO4ocLVW8znHUTsrXrAdHGS8rcgnBlA9BRU5dOonaWk2OR3v0icwN9NRssK/b1gz02NqBPt8FXDfYa2vl1g/12abhIdu0ZsA2y20RQdwkIujHlVnnbM3KxRriDk3FJAr+GVR7gN3DOIrJSMQ6XBARBawfZjzXCu/+eWEQ5SDWjKr77iINQguZbUDcZzVXs3MST8bxsdpnBDTbKyHTKvfEuzKOlw5WS6tQoUKFChWerjjR91r5+/Bk7ng4lfzjIeueijseTpZ/IqxWz5kUyZ6pvyRZvqsgh+FMVuyMUbLYwZNBysttSyW7iamI70Aoz4/16YXcMllBQoJ0HHIS5bJILdQqyqYvXUgs8nCUdSKqUJCBQjYCqEgJ+U4eIKWFAU2+96eQshqK6g7KZ51UwMO0pReGOi8nLkrj5SpgtBMvuZTFbk2EQ3fAEUnusOj9yfK0SCFH+rQPseQlZL7Ku6dXECMROsXpKXMUj0BQWHHSnWAVpK8T8u4yIVhQmph7XwIcOZRnnT0ij6I8HT0icTWbW+qyY1NzdnRy1g6OiiAe5drDEdt3+JgdGR3z5zrOzov0LczbPMdK5U/PztjE3IxNzs/auHzCU415d1yTOMs1dE5+WuMT4wg5jn76WBZ99GtK6avySU8QFhX0XcXc4YLoEPejpfIheewaNsmdZPluoAhf7C6KNEIK2VVUmB1Ddg+HuOawr9fdGpG8wb4ehetO/vrrIoJyvSKD8kQUl931KMw1iEO9PSKC/SKG/X4tIYQP/XyY5eg3u9uuv/ebNc7aZl1oPSifH1oaqrvAmM7Nqv98PmN9+rgVY1dG7F7GGOAYj9jFZN5NpE/zJOI3P8cjSqLOamiXC2KeWukZz7RyvHJPjGsf1zLa42C1tAoVKlSoUOHphNW+80CmP5F5oD39eGUz/YnMA8dLPx7SDi7LxXVMT08vz8sIf+s7Xh83ucCwLAqreByLVAgBGJFYpIuNRTdEAYa2H0FU+rLJUJcROjo+53f1nGXnQo1gqMpbgVAoEimjBI9m05kG3VnX32037NoZu4ydcYwUIAND1zuCUe91g5hSxnVWCmQPAxoyyu1IRiam7dO33q68IDSpI3W9AiHqFuEWSCglqgB3hrzmqh0y3OeUIIte9bi5TWQjOwx4J9BKi357S7Ts+Tz/cGm506bnGnb73feJ7KAzRC2IZFQp+qW03PkM878EWfDs9dDOmv4u233ZxTLkucMkDwav2fx8wx56eG/R1wB6cVxyy5aN1i124nfnVDuT0w277Y77Re7qKqU2fQ8w9S5C0SGPAd+pVJwUnw8VgPBsXDfgxxxptdw248PR0xwT8pgrxiR82lUaEumbVDh08Kj8ed/hczJWh4TV/ZmH3fIhfxA3yAyEiKqs1UWRyVjXuFyTkkljintXirZ587gc7VDOE7ycB0Jnyokph0RAnMwgXp5CVbXFDrCvhyJRTbkMHwPlLTS0Rri2ThmQ8lnNVUOFY91yh09FaEhvTuZcTujrMjQ409MizyLefB4ZN8owt9SnLR9f5sXbl48SKsWNj5DPOFGGx0twnd/WLVvtd//XH9jQ0BCtrYCPSRvKaccLg9XqVnh8yM9OGZnWnneyeIUKFSpUqPB0wMlsEPB4bI1T+Z4k7clu/1QwOxsnOdMGbDonfvPz9m1ve60ylcBOE8alV+M9DFsIHsYrleiL24wFmsSmY8GN1anpJbv9rgfsyMRUs24TqoxUN2ZVL+RFawnyMg2jdG1/za65/BIvC8f067+Kjng5NULYdyU9LYxuNEdKlONGMaovg3h8asY+fcttymNHKxEExFtFpNeJTvq73kKlQjb50n+gV6R09+W2ODdtHV3dKG817y71VUF/+aBxDG2Max8B5fnLd2eYGJ7jt6hxu88fOYGcgDfqbceY4GJOfE/V9cTQ9+TiWrplEb+aXX35xcXNblSyo8uJ3yMP7/O2cvwBhG/r1s3uM05cJzg1tWCfv+0ehesur0OEENBeGd62t+kRTwM+P/K7u5Zty8Z1tmHDGhMdi8wCkA1e3h/JCCKiugWx9aOMmi/KsQ7mNT733vuwNZzMapxF/LjbKLtzfvxS4bjzqAgMZJp1KZncJRQu3tvL3UPr1iOSyCMUlhrcgIi1xq5Y6OzjW3TDNfP+Zho+q0jpxfxwF1ZejIMfsWQsEFYaJ+bc+yp9XIzeyc6yOHbX/DMmsQ3FeRj86NiE5yHJa6bsArTtO++UUSHW2YLWDr7rqERuhONjK8fY+DFYDQaEkGthGfPOTuq3/jFo0fi4bdm8xd7za79pg4MriV9ZB1COrxY+UfkKXxp8vkooxzO8WlqiPV6hQoUKFSo8lbGaDbGa7QFOx9441e9KZLbnfyXbB+3x1ZDEj7LJmdxB/Dgi9s3f9kpbs2YIk9R3S6KwairsDciFIR2kzI+LYfDygo3Jl9kp67nLZuaX7Z4H9tqjh464Ee+5ReddVRe8Eqlc+i0s2dq+ml1xyXlusNOqEz8ZsJRL8pidcp9qeqNJ5HE9FDsnxBfkJqdm7V9F/Lpq7GZFW6kfSB2CFHiKXOoU7eHIHOyri2CJlC4tiCRBJCF3WR6jHK/Dd5/y2jOq8hiIBCU7Omoifg27674HbXyaI3tBLMpAL9dNYdfBCWNRLhR10gZJGNaYXbdrh9qdV/8hNTVbmF+0hx7c60Z/ub/d3V22ZetGvylKh3SnhYmpefvCbXfbcmePt8ez6YD3exWU5ZXHpybit3XjWtu8aV2sK4gKL/m+w+blox4Bf1FVUefviix6WZGhuSW7975Htcqiz15Pb9E2wokyvqL0rq/Wg8owRuxg1UX2mIP+vj47Y9tWTcJ8jJ/q+ZFKb09ETWVyrtLRBmuNR1Pk7rG3T7PKo4xf3xpJ3o+EE1qVaY1RjAFl8AFkjR8aRicmbQ7ijx61TpuYmNC8dCuudSUfQhYPb9ea8h1wPgMpF0hXxrhoq0fjAVwf1fF1pbHIPsVcsQPY+kzpT+XMNm7cbL/07l9bQfxafQiU4xk+ng/K4cRqaRVWh3+u2lBOy/DxfFAOg/Z4hQoVKlSo8FREu71wPPsiw6djX6z2PdmeVpbXHv9KtF9Ge7wdMzMz7lMOh93nPkqh1/TMNKahjMbYLXAo3Q1FJeTukJcvwsDjvBCCcyFmfb19CiqiRsodb4Uei+xEluedMG1zDRPwI2pFORCGOR1q1W3qI9+PyEkPDFv6Ai30+iVFiLfLdDTLtPIS6EQ7lI3jmNFPSAFGPCQAn3Kho1qWjtk3r1+EeeeZcHGUFQ1XR1lHH1v3C9AHCcJBjKWIXzeGXFpokQF8vRdtJzIfh27x6AEyIj/HyMtE0nFBPjIQ4MRf9RijZpvy2B2LMcDnuKN89Z9M10HhLONO+TzPUYksWndxvR768JJucsyKxOmdI8pdIo1dqmc2J9I4MT5rI8cm7NChEXtk70Hbe/CQPYo7dMj2HTwsp/C+A/bwo/vsEbm9Cu9X2v4Dh+zgoSN28PARO3xsxHfiJqenbXJqxo9XQupZn8wFa8znqZgYgugc4RhDz/eESKO/JDV43MbopPScsfHRCb+WsF+fI3c9PLewuMkMj4qQ662H49EV+P64Cx5v0dcjF2F/qL8cJLKrBrnT2DFSkFcfIenGDyONBfHgWd8hVoJ0YvzjeO+pIOe27Le7mO+V8fa0yp3YNT8PpXE72RjmfCTK4QoVKlSoUOHpgPbvrtW+1/DLbrW00/nOTB9Qr4xyvFy+7FZLe7ztl8OgPb4a2uvjOqamppZnZmfs+V/3bLv0ogv8+WR+1E5lKd40UoVmJaW5Qe8kJ45/LrLDwk5LrW7z88t28OiY3XbX/TI0c0eikKNgylxuiXa5ZbhBzEtG6Zreml1yzpk2vHbI02vFUUW/YQnV9OYErJDh1x9KNtGWXBlL0pnjcWOT0/bJz9y6YscP8Fw3yrssTQzHJgMIihDGslchLr9fxvUVl54ng1x1lEC9uJYsFoXvpEheaoE6HE+ELFCsqaPCU7MNu//BfX6dlkMFYqyLMfR2Q5KPTxEGKunygv4s+xHUy3dcaDyVL3JFgBaW7JGH9vmOkRKKORRFEiHYsnWT1Xt46hz95rjugn3h9ns1xn1qU/WXudFHzL1XhmFm++iiNP8IKMn7S1m5HsnetGnYNq5f48/MYyeNar4Lq/EJeQHfreuqe3oQZ+5cGaQQAjszM2tHta68owmFfd79r9BPYSe/RTl+FHCS6LtjS77j2SdyFEdyQ1+UggypqngQ5CfmzY/Fap0hF2kcI/WH0Pvx0ajHfAL6luPDu9dv1oV0RV1GS4rEjyqqz+4v63KBo7h7D/jY8bnZsnWD0vnhQNLon1x5vGjEx1By/BhpiC36o7DqMgbs5PmPCujBZ1R6UABZ9I963nHJoy7jhNu4cZO9+/97jw0ODtKa61VGxlfzcSG/IMIVvmJgrnP8AX45XPYT7fEKFSpUqFDhqYK0LxLleNocGW73+X5LW6T8XZf1sKOyHFjNb88nXkbGV/Mp/6W2v5qfaI8npqen3S+37c6J38yMXf+iG+y6XVfYEkcDSz/0U4hKrqCUc0OTikpzZeUwaBcKYsCRwsVFjqxN2+duu0vxLi8XCAPVDd4CsnfDLwYA2QBfKUpbtEEZ1uds3WybN6/znYua2uB6LohClqWWG7oKYZC7MSx52TZiCXETlfHpGfvEv94idSA6WV/9RBnV8cICBKiYOk+mNUn1FCdjSuTmIpdffK4N9orMUcjzQi/vDwGV9bEp6rQfz6OfojY2O7dsDz580Ma5QUcjCLUb4XpRGln4cS0ZRLMlA6C2JKsfS37HyR0ifssdHPVUOfWbeX14z6MiL/RbUikvB3FZu26NrVkzoPIapc5lG5+Ys9tE/Lpq/dJZhVS5PD8+mugn56SDpCLu80ubKlLrWrJ1w/22ft0QYt0ohfRRgbHo8DGnavRxuYP1w6MJuOaNtkSIGrHuuBaVM8t+9LGAky0C1C/G23WIVJcVd0fVuGvtqIh06orr/eRTLNcL17bRph9D9b4wjyEHz4kTShLNtec6tkCMuuxQQrh8ztU2aYR9HahMb/OmK7FOeYoDtTl2rURbWJy3/sE+jcO864/eHUscWQ2dqSOBXocxoADjuaxFi1ziiPTHdEgeIIW1g7z47FKCtejZLrPRaHg9Sm/auNl+/X/8r+bNXbzNAhlezcehAwS7wpMD1j0u5z7Wcytc9kE5XKFChQoVKjyVkDYGaA9nvOzjsEPysp2TAZso7NPgOAC//buROLIzPdvK9HLaE9n+8fxEexwk8SMPHfDdJfG79gXX2g1X75LFIAIn4xGlUQDw+APC3inS6ZAq00XSsIEhfhJHaSlvNjE1a5/+/B3eCOUiLwxSJSocKBM/8prKo5yCi0sN65O/fcM6O+ecM2RMY6iH0RyIOmGIM9iFge6djMFEgWVZ7BpOStv07IJ94tO3KI2dmugrMjoxmuWjbzjeW0AzdoVcMFC93r5e23nR2TbQA/FjvGSIF/nRpZAROtJWjCO7WBTzcdHfojVsZs7s0UcPi/jNiYO02DflWTwpi3eXVagBPE+y0R5K2N/TYxdffIF11VlMZNFSpz3y4CPqY5CNHEOIwHqNL8SPHSFGamqGm7tA3HtESkKqKsWIuMqxsNGDdOgN/U6VvJzeuN6xr16zgf5erwMg6MwXpbs6un2x57hzoV1+AHyhyjUKIkZ7kJUa1yJSt/hAkRdl0SXGBuKJTO52GbJj3ghTFrLb1SUplKVZ91vthFxIJcSIOdO6gkRRyvUoPg9F+azn0hSOY6ux/hg1avb09IrELpBodX640It2Ym5DfuhWs3kRP55jqKISp7GXTx6OPnLjG+Sy4khIHZdgkPiKM84KlvRjbOPzw7gkSAOMrT+X0mWbbdm82f73/36f1sUal1FGxvHbw7RVJucVnhxA4lkHsbZjjafLeBnt8QoVKlSoUOHJRtoYiXabY7UwdhS21emC70z/AVwyyt+XIOPZDlgt/ES3nzqUw+B44cRJid/u515tN15/tS0tiH0so6wG0XcEohJKlLpXKAWBcMtUxE+GKuUWuemE2TjE79YveudJh/SVd7kcSiYl8h+LGMQl61X25uFBO//8s2Xca0C7ut049Q7IWKaY7y4oACn1BNVxI9kF8Sej1xNrNjkza//6udtUJm5y4n3Ry/eOvGwB5Ahl7SCQCdrv7++zS88/U+SG464xRjW12xofZKsXHg/jG4lukClEee9+17LNzC7bw48csrHxGa9H+15H2U1iVMB1YieIMVUEeZTvlH7s+PXUu+388862ei9HPPn1X+WWOu3g/gPFvLb0A8Nr1yBOaRopkRYeJ7D/4GG/UylXghUtusLs8ObQoh87ZuIovqNHHLhUzU1NcY5Z+k6VZqBbeiGrSXJ891FdkS6xExVHYJlP+oSqjCtAtstXlHGMhaw+6OXySv3h0ST+oVPck/zOLSHD1wVqMpfymfsY71hPoTz58UGJOYy2vZqXT4OaedFLisZ6K9ov9KAM656+9Pb26gOdR2YjjeJcs9etvudnBR0WNVZI4Hq/BrfKXYbYeksuF2LMtZORQn6sgWWVA3GNJOtBsjzsyYV6MQaMD12gPebQdyhJL/I2ifj9+v/4Dd/xy/6ADJf9soP0xVhUeLIxNzcXa6rkQLsPyuEKFSpUqFDhyUbaGYmMp71RDuP4HsMG+VK/zzhhlvKR1f5dmXkg2wZPdPvZdsprD5fRHi8TPxx2mYcnJyeXZ2Znbdezd9kNV18lW5g7E5YMahVacSwRg1t5eazSFZPh2BDxoxx3jlxa6hC5mrdbvngPLXo9rxO2d3OAVN3t0FSqHUFQFp34re3vtUt3XCAZjSB+heHf3L2CjKCrwq3BIi8NfgiEfBGNickZ++zn75DhHDsf0bJ6jeFfVqPZ70xUHGJQgLIDA/12yXlnWL0LYhnIuy5mn/Bh8B4r0t3oF3woRAKkqs0tmD308EE7NjKlROXTHBMl5ztIraY92CHjPHdnvM+kOfFb9EccbFi/1rrqndZY4BcEdr5qNieSnya5k2TVQl/ueMlYI0+DorHiZiryJdTH2EkFbbB4VIebhWDcqy8s8ppkZx79oyzXSPr1mBpXQB/juGWQJK+uNpkn5g6w6oATP+mBjn7UlGyFyWWdOaHJBaVUH2+keZpKqQz9ivGJ8Q3dCoKp/jlHkkxIjjzl82F1gS4rPgO0F2ve8yQ+PzxO/pgbtUU7vvbk+zFV9NOc4dCHI8/snLEOXD8Jit210L1H48KPCMimIfSb17w9+uhBjQOEjGdQcudYsvWGwtLbj80K/o9Gr3q91/NxzE9PN9dMtogfY8HxaYg4utOH3PnMufPrGpW3YeMm++Vfimv8mLNEhvHbwzjuvlvhqQGIH8g1UXaZniiHK1SoUKFChScbaWOAsr2RftkBHt/1RH2XQb6w/9q/M2krfZDtk/ZEt59yyw60+6AcBhA/6qfNmn6T+F150y675qrLrS4D1Hc9CgH+rC8aVjiH38NKo0wSmCUZkxirHDWTeJuYmbXP33m/zckuxbjtkkyqZCcAYV5SI4QKhRdpAoa0KIAND/bazh0Xqj0RP8nCWEc3igUxjZ0Gl0g7SsGQdaPdjVy170Z7txO/z99+jzVEUCnpfQGuW7QdciI9dPEMpRZh3kWyBvu77dyzzrS+niAZ6BU7LOycaTwwulWWMeAGJfTd9eWPMowfcpcb1pCBf/johCaLyWaxBclAjdwJc5DuBAYDHe2ClJCt4gjz59pxnJH0qB9tkg3x6fRjrjEXtIEsHusAOLIZc+NVfOwaTh6CcNEQayLaLur7sUhIi4uIugq7niISJHB00QP6837x8n4hUA6ZKuEiFGdsfIyQ4yQuxpBeUD+EBsHxxQxRY9z0or95LRt5kuK7i7TpccZD+iOCHw3w1ZSTN+YMvfOurDw2AZ2YV/rYnDc0kV5B7hhj9IX4xe43OrDDR08HBwZEpDZ4Go1BvrIeferpqfmdcAGEDAK7sLBso6MT0qXu/WXHj3lK/Rf5wcC7IILNWpDOEG1A+Vwj3jngA8txzuKZgdRlzL3vjC1HbBvKj/imTZvtN349rvEjnsgw/mqOnc0KTw18qV8cFSpUqFChwpMFvr8SGU5boxzH/oJ0hW34xAC55R9Pyz4gn3i5/bC5nhggl+9wQDvtLtPLKMdPSvwuf+ZVtuvyHTbQ1yMTmV0SBKhhGZj5vLg0dgFhOoifx8ogfhLpFSenZ+32e/fYpHRWlnX70TZVJNLUi4nD/g5jGmCLA5cDSJaRPLym13ZccoGC3HU0jXrPdIMV8Bw6QAy6xR0UyfeFgFqGcVyzqak5u/2L99jcfBjeLaimlysmEqYIaMbVUZu8S18SKdMjcrVx/XrrrWuyRRggSRyrZFyiT63FiaEPWVICA+jGN2GV9n4vyhKfmcfgj3hrAVOGoqRDYtBBk4hhr/YpRxwCxDFTiEzu6ABfiKrE9WVB6jzZ60HIIbC+KJwQamHoFbtExaKWWxBBox5y6VuH8hmTHCtIVzFI3hZBb0Z+3kXU/QK0leMCcr7hhnnjHpertDy2SXH/gaHZVowLIc+Xn9fWscMJfFdNFRsLxZlp9dd353xqkYnuCrpsvclFWhBPXF6P6bt18nN3j7JkkO9kWv3z8ZKO6M9YoZdK+HWyG7RO0JHG0JN/KMzJvPy1a4aaN1FBHdLpPXqybr2eyDXrh2Z5Y43HGpGv9ny3Uy5053MRY4C+9IlqlJmdm3fS50Mgn7q5W+n1KKi0LZs32fv/93ubeiVclivRCqdjvPr6gsBWePLBGmNe/PNd/D8gnC7jiXK4QoUKFSpUeLLAd1ciw2W/7Ph+Y/PnZLjvvvvsD//wD+3666+3l7zkJUXq6kAudlSc1Fr9+5EyINt/or9Ds33kpgPt4UQ5fFLit/MZV9iOC8+39euGZfjFDofv/KlP3GEyj/XlIGPgKaBsClC2IIZF2tTMvN2151E7NgXzEynjzYkaysqjmhMrRfwvOsFOEqWQ4wVx0mdwoNsu33mxP5sOsgKc+MiwLg8KsjBaG258y+SW7kj0nYwG/rLNzi7YI48c9GvfAOUgTpAKl0EN6VpoEgjVm2WJRvvdNtTfb75Z5sQ3ugkR8C74GEqSHHoyjhBXJEBwKINwdtuojeMRBt2S3Zwk1wkX7SPLfcWdSCqPIpA6ol6P+Sry0ZOyLCD0yZ1S0oNAog9q0mNC7HYFUQKQAo5+qlihixYSGQoSR05HQXq87cjwHT8nPgpDwJL4uQz9QTQoTyT7RBvRKhxGekrXJc0TmhGnHE90pAzxSCMh5osg7bPTpiZ8LlhnvkOGPE8s6khv39Gm3ZLL8WNsiFOJ+Yw8qsXcRJuhk9cpyuIjH9+TBPTs7x8g21WgHmPC+mwsLPhz+iCH1GHsGyLafA6XijXLDm3MKXE+N4GU70dBs39A7ecPMTGPalEefHhyet5vRLQseVyzSpXQHTBvCstt37rV/uJ977U1JeKXawL/eO7JJH5Hjx61T37yk/boo4/aunXr7FnPepZtVT/oH/8E//zP/9wfit+OG264wc444wz7y7/8S/+F7eKLL7bnPe95Re7TF2Xit5oD6YNyuEKFChUqVHiywHdXIsNpZ7Q7LjE52fdXkj6wfv16u/DCC09I/pALyt+j7cgy2X57Gdr89Kc/bceOHfM2aQ8fpC7kXXfddU5GV0N517HdZXqiHD4p8bvk2p12zvYtds7ZZxg3logdHA2ojEmOgvlRO+8gBngx2MrzRviDXCiNnQzfVZhv2AN7D9n+o+Oq0yHiJznYqxKBlKZqqp/H81yhGENB8vXOzoRK2EBfl1180XnigGEMRx1BdXj2oB/HQxf0UufiaGIY+MhhF4Zr3diomp9ftInxadULAxpyBEHJxmOXptCQ9tFLzkmS+gEoySByjJSHZ9dFDCComYaMJA6MDW34uGGcqzJ5LpsX5Ix8ZYgOeLmaWJP3R3CDX3Vi5yd0BFx/5/IVdhKtzjJrnoDcQj6VIW+Uxaj36xq9HkcEO61WyAGMF4drqQZJJQ6cYCqcixxt6QNkhTSIH7JJC0ImTVUF8kE+pJddN/rqO1EuK0kTxyXj+ZHcfdQJTNEW9Snv+isNn5n3nWi1FXnRd1+zatPnAF0klzDw+VDY+01eF/mSxxpWgJvLKMN1wvf6hTzgdVwu6yTC8lQ+SCkKM57x2Vj5WZhHR/qM3t4njnnmXZtUVi9fzUWfCSyps/SL9bqkiWb3cKg/fs3yOUUv35pzdZxUe03SlUCayyvym59PraGJmXmbmZ+La0T14t376lVUQ2F1w7Zt2Wwf+sM/Oi3iFwS338t8JcE6+OAHP2jvfve7fYcSsjc1NeUE8DWveY297W1v8zX4X/7Lf7G9e/cWtWIXd8+ePfZjP/Zjtnv3bvv5n/95u+OOO+wbvuEb7Hu/93uLUk9f8PgT5qW89ssOpA/K4QoVKlSoUOHJAt9dibQxyuF0fL+dbLcvSd9/+A//wX7qp37K3vGOd3j8ROQv28NOyHs35Hdk5gHa55hnIsv867/+q/3N3/yNve51r/M4IA7JgwzSNmGI34l2Id1+lit/j4P2cCLDJyR+GAcXXX2Zbdk4ZFdecbHY5YIb2NiA3jnJqPtNIsIIp3LmhdGOIa9CEpjHxeak5CP7D9vDew+ouoxulFlSo06AYqfHVZMcN/QFP/7nhE2JxFWW58pxFLFP5GrT+nWF/Cjv7S2KPLhRHbogE1XQgQ4yGVoa1ljmIdkyTCkvctGYa3jbuNjBiUGB7ORRQ1V3GQDigPG9LGIWFSMdnSENNb9BRpSPOkkm6YcXdbjuqt4kFd7VqOM7QEX/cwyyryqhiIornTGkKnCyJD/mAiIWO2z0mTmLPbas1+mknrwQL6NfY+akR3C9FebxDS4D6x/Ig4A4ydL4oWNeu+jlJGwBUlcoFbulqBtzRT6+P2pAhZDj+qg8ejDusYaIM9+hD9cpFgtHZRj/JKR19TvadRmkeRwyShOxExv5SkCE6lOHCr7zKLlxJJN66CBf5ZprS1iWvshALuvJ0yjcRNEvyKLS6YeXjyn2tdqQm5hvFP1T+UIehDD7ig6MJrNKvt+h1uGd9/FknjeuHVK/tE5VhkZoI8ffP5P0r0hjnHIeot+e5VxxZmHRxiYnNW60rbFCnsogw/sikLRtyxb7yz/+41MmfjnXp0P8Pve5zzk5+/qv/3qPs+N2/vnn244dO6Ifp4i/+7u/s5/8yZ+07/u+77NXvvKV8bmXLrfddpunI/9Nb3rTY2Tyj/lnf/Zn7Rd+4RfsoosucqL00z/907ZFfX+qET++eH7rt37LdyIvueQS427MXE/pc38cJPGj35TDTwfKYVAOV6hQoUKFCk8G+N5KZBg/HUibA9Ln9vZxUCZ9AOJHOAnXauQv2wC0k7tuCb4rswztt+y21vfoD/7gD3o7ucMHUhfIIO2WgV7YMMPDw0VKgHZoP7+v2x1IH2T4pDt+F151ma1bX7frr7vS5mYxzIPkpYBardsNDzeM1Vfuju9GrxxHozhGiXHJro7vcjQWbXRiyg4dOiJDGyM8DGzk5W6Nv5To6bJdUCqNcSbR7xyJra/8uga1r97DCMh45bxtdBjtOmTNchSPtLihCXkiY6rjZ26VtVjczl+tuf48s8+DoZTLhRi5POJAfotgyNcrr4dLEMYohwCCXAjAd8w8xK6U6inkcZen8jTrxjkELK5HjPpMEJn6k0c9xqOc5zqp30481Y4TCiRQvtDPPwjOUyOP+eP4oBM45ldzRD2vJISO3MhFvtrwI6GAuVNbkJ+8QyS0w+ff66gZEX2XorZ5OYlnrKiuF9dbdmsyfbzoG0UhYyrHuMcYk7gU/ZHs8mKNHkBi2Lmr+Zhn2z6UaiuIH2NDKkcfORsdJBOd8eMHAbM51qzqNaQ3cwC4lpUyrKFuEYd4uHz00yshhwGN4q6bEzqBHPTMPIAsPgfj8xp3+qPyMTeqVxAsEOu+VdHXhkgf4wjIo8xQX288D1H90uzEUU1KUl5jivxogzGNcWuOn8uIuZ2em7f9Bw+pjD6XlC/a9vVSqEF/OOr5oT/6w1MifoxRhr8U4kf9O++800nNNddc42knwxe/+EUnbnzWv/Vbv9WPXNCXSy+91AYGBuzw4cPut+vF/y12AMn7gR/4Aa/zVCZ+gH/k9I/P8m/+5m/aG9/4Rlu7dm2R+1gwjoB1kM7XaSktw2W/QoUKFSpUeLKALZDIcNoY7e5EN5RrJ30giR84HvlDboJwHvdcDbRf/u4kzImjX/qlX1rR7smAHldeeaVddtllRUoLj+e450mJ39mXX2zr1vbaZTsvFPFbcMPCd9dk/GNAYxByXI1uYyiLlrlADD6MX8aDeOyOLNmCDN4FkYXp6ZmC1KgxNYph6mF5EDpZ717HlXHFinJyXPfWXQ8WzbPOemSMY5Rzh0u/cYvqNxYbsZ+IPL2cgEkPDO3mc9HkuHV/DAXEQEa3t42X5EQO49VLRBkPq24c00NsEC3KeVyuOZCuexjY2a6HZUy2CEpoUAguAgQloxhPl6e0Gsa84lGCYVoyUZQ4Lqm6zA/XhgEM1vmFuHtf7kwlFhuSpiTGdUEkx2+OkvqrfOxESVcKUV8+j0/wfqscpAJSxXWV6OY7hJqDTvURmZ7PnBXN5lj4uPp4kEp9jpQG6fKdWcp1qVwxZsXIqGTcUTN7DoljfFiH9LG7VpfO6pevOelKxEm9xgZSM8uHk3qFQs0w86FxLPrOUeAltc/1cswn7XeLVCIXXXt6e6yXM9u0kbIcrbWa8HFSHeB9KfLw5zXm4zMifpJLcpA6pJRlRtkigBD9aVwhnvqjfcZ6QMRv86YNWinMueozTnguGB/ZjGX8cJJrM+aWfNrVP4PZeXvgwYc0jxpLZHvvA6EHbtm2bd1if/lHjz3qmWObYRxjkD5E6nhgHD71qU/5Ttw555zjj7g4cuSIEz+I2L/8y7/Yvffe63nsbEFy+MfM8Qj+kd58882+29UcL+Ev/uIv/Ijntdde63mAHb+v/dqvtU2bNnl8NaDDj/7ojzr5458tOBHxe+ihh5xEjo+Pu47sEKIPbR1P94997GP+693nP/95L0tegjyOpX7mM5/x6yJf/vKXe1nauOeee+ymm27ycrQ7MjJiu3bt8jpcf4i8973vfXbVVVfZc57zHM9bDRA/5iXXwmoOpA/K4QoVKlSoUOErDb63EhnGX82diPhhP5R33ECZ+AHKgHI55CYI+waX23Ervx/J4/t7te/Q97znPX6k9FSBnbNz504766yzipQWaD9tTeSnA+UwyPDxiF9YoUKn7OfGTMMOPnrQjuw/ZKOHR2z86JhNjIzb9NiUTU9M27wM2LmpWZufnrc53My8LcyJTDRESlBKRIQbcbBzwoO7B3vqtnHNkG1eN2xbNaBb1w/bdhmuZ27ZaGdu3qjwetu+eYNtV/yMLZvkb7Btm9fZ1o0qL7d53RrbMDRoG4aHbGigz/r6e+V6bJCdjz75A72ePjDYI2NTaYPK76tbr/J6e7tlkPGIAo79dTiRwsDFkHdjXoRxcYmB5FgrR/E0qQrzWAVRCBE8jGt2Ojm7WxMR6Jb8fjfmejXJ/TJuB/r7fcJZdPgQU/dVpqcejp3S7u4ed7UuLv7kmrhO3yHlmYdzsw0ZtDM2NjZhI8dGtQDlRsbs4KEjduDQUfcPHsY/akcPH5ORfMwOK+3o0REvhztyTOHRcQ8jZ2xs3EYVJzw+OWnjU7gpv5tj3u0Sctrb2yfDc1DG94Ct01hv0pxs3iQnf5Pmibs6Et64cb3i6+Wvs/UbhmWcDnmdwaH+cD4HfTaIG8JFGjczgQTg6hqTJQ3oohbevMZ/WmuFB+mPSc+Z6Rkfg4nJKRnVk9K96IfyRkdGbVz9mVQ/ZlV+YnLCCQBuRot6bm5WYzjrBvvUzJyNTszayOSsjU5NuxuX4TshMjghsoObml9wN7+oD/Icu5/842D3UHMiVqSPlS04geTOlyK/+vwsi3The7hIyzB5+jRpsYTr7Bbpl99V17xr/fdobfgPAZTT+uNDWP6H0kRkC8or+2qDD6rXkwzWXa8+Bz2sM1x/n9W13usiqj2FT7tdWrMd7H6jFzK0jl0/zYGTQieNasObKbXhuuEi/VSwan9WAeXe//7321133WWvfvWrnQT96Z/+qefxDxUiwzy+9rWv1eel2371V3/V553jjVdccYWTw0984hNaH6NeJwERgkBxgxbq4l71qlc95p99GbTH8dCrr77a658KuHEMunDTGPSHoP3BH/yB7xr/yZ/8ifu0zT/bD33oQ17n1ltvtT/+4z92Irh9+3ZPS7Db+Y//+I9+NBXC+nu/93v+z50+33333UWpaPfhhx/2MOnkozdfEFyLyM5mhQoVKlSo8G8J2BRJco6HE9kBCcqcSjlQtndO1j6EMknlqeCv//qv7cwzzyxiq+NU7a0TwYkfaq/HQK/VbWFqzkxkpFOkpCZDmKvEerq6bbC334YHhmzd4FrbsHa935p+8waRhMJtEWHYtHGDbdogklC4zevX2Ua59WuHbd3aQVsrsjAsYrAGotYnmTJgIW5rBvrdH5QRO+Su1/p7RLQwZmVI12XAchMSmdwy2Lgphgz2xoI7TPXYbWAHiKOHMPLYocKnHrZv3PGyw8lZrxy7JwNqy9tU34dcB3wRGhG6oUH5cgPoNYTfLwLYbV0icrXuugYNssCOIztRizY1PWuTBYE7IoJ2GIImd/DgERE1fJG3g4c9TPohkbnDR0Y8fEQ+RG5ERAf/yFGVGTliR0aPyh2zo2PHRGjGJB/yJqKzAEnV/GhsILkcYVs7POxzsnH9Btuo+di0ERK3ybaITG8Rud4s4rZpk+ZD/gYRuXUi4evXD9l6Eb618teuhcxpLtb025rhgaYbYs5E9AZE4vr7+t1BZLh2bU4EalqGOteLjdJvkbQDIqX7DxyyfXJ79+2Xf8Dj+9X3fRqXvYdH5I/Y/iMqe3RMfZ5S3WkZsyJvMw2RuCWbkU94dnZRhrDIsdrhulPuwuo+xzN5aeE6+fIPgiLsePn1e5AvyBbP7dM84Sgnx6MglkTU2ONjR82dfwI6rCE50GJ2DsUHVb/TahA41ozWS6/WSj9rQSRjEDe8RoRXxFnre3DNGo3VsLs1a9d6vF95fVpDzJETK8kOh844RYD3IeIaVg9Hf1jDsW5dP37tcTKnPlKHT29BPNHVHZ8TFjx1inyPK8/HB3kK9+qzBXwc2/6ReJvIovwTCAgLO1kQHf7Jch3fs5/9bM87ePCg33QFQgMuv/xyJ4GHDh3y9QZZhAx+27d9mxOvMj760Y96fY57vvCFL3T3hje8oUmWIHn8jyjjgQcecOLHLtuJfi1sBxdfs7uG/l/3dV/n+vGP/fWvf73fQbShtYm8/GfPOEIGIX3oXwY/EL30pS91WZA4xh3SeCrgM099dkxPR/8KFSpUqFDh6YbTJTz8MHs6pCvBpSOrYbX2T6YT9gI3cTkVcL8BjpueiEi243THJOGWHQ2duX2TnbFti23duMm2sdMDeZOBtWndWlsv42JYhMjd0KANQ4oGemOnp/DXyCAeGhJhau4ChWHSJ6OXh1PXah0yoGVQdskA6xBJw8nM5sjdwiLXnkHe3Oo1PIxx75IMV465QeC6ZfD2inT1+U6bDPG+2FXq7x+UHjK02WHqk7Hdo3xcd59IIztv8nvYlYO89VgXNz3pqqsFjvaxhcode3h+3qKMTX5xn7bRkXEbOTbmO2xHRNK4VvHggcMiZqNaUCJuvhsn8qY8J20jkJhxLTTVURl8yvqunIhcuBHfjWOHi50qHvStDkuXTt9NHBb52rBxncjaRtu2fatt27bZ3dYtmhP57MJBrjdqbnAbNgw7YVuHG9a8rGH3Tr6I2lqRkTVr5MutW5e7dBonzR87RuxiGsc+NfZLDRGsuTk/ljs5OWUTE3LjU+rTqPQdK+KT7iYVZnyOjk7YUY3RYfXz2OikyOmkHRuftpGJGYVVd4LwpI1IzjGRwhHVHZ9kV0+OHb7ZOZuZFdFj/NmFlIEcJATCI3LTybWZNa0XjGWIDhd7ct2m5o0dKx7GrjhrBCJFfXay6t2qywIq7HyOvsaHQ86PmnppD0OcaI5jtH60lzReiKt1OoFzIidSPeTEbo0I3bD16XPQL+LnPuROfp/WHuuRHb5exXu1RrsV7uYzoM8Ictlt6+CuoP6xY4Ur7ErwIwLEj3SF0Z0PP5+FpiuOVCs5SF6QQidpOCdqhMnL/FK4EAkYJwgro5LkLmWV0Rb9koH+nFNH1wTEBTREmHjMAufxIYccb3zZy17mRy6///u/33fEfud3fsdv1NK+4/f2t7/did7ZZ5/tO28cnWTH7bzzzvMdtDxnD5EEjOc///M/e3kI5ukA0pnjRD9wHKfkMRE/8zM/47t49CXB/8DjHX2F0JbvBHY8lOVVqFChQoUK/9aRpCf9djz44IOnTfwofyrEj3D+mHy89gHXDELoTqYH+RzzPNGx0Pb2T9TuyeAWGHbM0GCvkzgIyJBIHKSBXS5cf2+fiFSPdddkWHNszRuVIbrELUYXrAFxYydOAxG7b5kf52GRj62HkcS1eRyHHJLhSVvsKq1dt6bYYRI5GV4nt1bkUcb2EOmDMriDVA7Lh2D29w1YrZu72XH9H0fWOpywzc4sxJFBkZNxyIaI2BGRrcOQtIMckRyxAwdE4hTeJx+3/9AxO8AOlPIOHh61Q0fHCwfpU/3DcvKPyh8ZEXkRERofHbMpEaR5kZdFkUUp4Ncgck0YpHf9xmHbuGmtbdqy3rZs3WCbt663M87cYtvP3Gzbt28SyRah27zBtonIccR16yaV27hWZHtYRHuNrdc4rFu7zm/awE4exvGwxmPtmrUaA8UHRUIGh2RU9jkB4jqtuQUZzur7iIjlkWPqx+EjtvfAQXvowAF7aP9+27Nvnz24b789vHe/775RbkzEbEzG9rj8ialpjZ0cpJSxhJjN4GY9PXb35mxK8Zk5HgewYONKh8TNLCzYrIzT+YbIM7tlmpWlzi7xma7mDhvX8iUJ0YpzB4mhLI87gOBzLRtHKAknU/GdOyd6XVYTaYdQ9RQO0jWgNTK8fr1I2jqN/aDWV604xhvXABZNrQDrkXWp1dokejhvD5IkR5wfF/r64ygvhI7r/mqaZx5hgXOd/EeEuNmMky+5kBNhDHvqxz8JbzhcUykIX3yI+RjjnFjkZ5ox8c8USfFYDPTzI5saX65H9HZdZiCk82qFE4Sc+ImMZJloWXnoXZLzRIM2N2/ebPu0FgGkDKIENm7caBs2bPA7evIrGYQsb0zy93//907ifuiHfsjLsVtXBv3hJifkvfOd77QPfOAD/ogGrrn7kR/5ET8e+pa3vKW5M8bOIncP5ZhkEs9TBdfYsXMJkAORZY7px7ve9S578Ytf7O3khdiPB/SHH1wYH9bF7bffXuS0QBnm/VR3CCtUqFChQoWvFqStkvbTlxvlNmib719wsvYhc1zrdzzyR3re5fNEaG//S7HV/OYu8/Nz9upXv0zGBI8lqJlMbTcF80YrPO8OQ8MryMB1Q1FlaRhlMHq54QcGKvlxAxYRABngbpRGRa+PkRxKx2BRLu6+KGNd7SwtxQPZIZSQx6Vl+RBKdmTUrA+y2EHcDj8GQtW9LcCuAjojAzXzmJf+3MxFT0Ju8hcyOTKJnn4HUOmGQd2tNO5kidocD822Ov1hhNGPTKOD/ugBgmxO+djIp5/+il/30cMJAu1DdiivuOsox7MIGQsNichc9JH00H/ZJkXEfGJiKH1Ty8dDL78Jj/LwSctxnS/G2TWVz/WX3dKP47ddvvtV5BW+3zWT3TWBdj1dGRCNiEe702pnbHzM47EA6SckXLne99K8065e1I+yoTd5eAP9Pf7MOCkfhCbXGi/NC5pJVZfL3HCtW5ns+JQqf0E67T90xHdnke0EjrZLOvicFPVcByHjCfTs6anbeeecY/3FMU1KUFrTUsiMvha9XNE3DWD4ghvns7N29933qiS7rNQPWVkq5YKUQX+b+apAfq23ZueceYbvund2xryEZlEGUD/D2YjXl/N+kC+tIfX33r9HY6TxLHTPf2QJf4D7H77vCb25C6SPHTiOSHL8kaOdECWu32OX7xd/8Red9LAGuK0xNy/hKCfX/yGbI5Gkr3bnUOq9973v9esIuQELhOy5z32u/+Pl4ewAHdkV/PCHP+xttd/85UQ3d4HccTyUY6UcI+H/xU/8xE/4tYq0yS97/KhFv+jTm9/8Zvvt3/5tv74P4tqOch7t5l06uV6R6wI//vGPez/RnTKMUbkO7f3Kr/yKffu3f7sfb10N1c1dKlSoUKHC0w18byUyjF92aXfwXZ92Y4IjlpzQaX9kAoBsrXZNH+l8x/PsX+QmaCdPDIH8jkw9ONmDjZ9o/w5Fbt7opdxukj52BlfTM0EbtI9cXPn7HJTDIMMnvKsnvyy/+c2vckOZF3c3BCGMo2dcM8euC2Eok1Aifh7t6rb5ea6740YpEDmFfUcwCFncVh9ShcEcEwaQzZ05g6ApfVmkrYj7ow7kq4KUERmijsKQPPRyYorvbItORcd8R0bEDRKLztxZs4vHBMAQEEW/vG2IVZBaCAbEl/pOzhReVPutx0MUhjEsky4jQL40dF1dL+QpmWvE4i6blEFn+aoAiUOOsiOP1EI2dRm7HM9gAq2FzY7a4YlxbzYa15gXBA0wdtwtEx95DtppIz+QwXp3p60bXmPc76NTDMNJtV6UYZ6tETqhidfTH9eXRZpS5c9IP246wZrxgo4gd7m4PEVj6Z1FDBfOFfB+qgz0d3iw3y6+6IIYW5X3+Sjql9dKjg3X6jHXHtYLakgbHP08MjJue0QgkMFYkI4oSHw86qC1+FNeohlXeZ6BuHVT3NgmdQE+LQIy0MsJaQk+jqyTEmbmZu3eex9Q91CEdoqMEnynU6Atb48yxVjGWOmvLsKueTtz+zb1hXURlbJOjn30g/61xg3nx0BVjnGamZ23B/Y85Os1++DtCt6cgjzH78v9OIenEyB+5UdPPB1QPc6hQoUKFSo83YAtkchw2hhlh+2Bvdd+2cSJiN/xcDzix130caD9O5L2IX2Qv8Rq36NJ/iB5nGrispYkgyfTsSH7n/aRm/ZrOlAOgwyfkPhxrdn3vuNN/niA+YWGOlH3hiCE+BTkAd0xyDxkXCSHMVF6PNqARsKQDtLH7l3suPkOlMxLBodXKMGjCxSWtUtNFyXHexCtUI6J5Fd1CBnHALm5Cs+C0zB4B/yxEoWBTz3iTkS8g3EUyskgHZWtA/FDP981kjx/Np30UIkgeiKrcAW/YYuIKscF0Q5Ci/7c+j925SIsCZJfc91i91CV1R4yuW6OB6NzBLRTyVLB+wkYvxg3FYfkEPACQRoYFWSR5JA/I3mHxsc9TMvoXJPh7/2QC+KH0V9UycruMR5RlgJ1tblmcMB66hBiZaseyi0Vc4106hBmXLhLJHerdFKoLJoYnZyyffv2O5mAgHB9HOMCIPcMOLyjRQyRSp8KPTysMnL9vXW7fOcOlW+4jObjHlSVeLNP/qb3Ig/E/AWQNzE1ZXfeebd11uIB7sDfNZW56EF4oW9T2DJ9YVbZRewSOR6ys87YpnWDoaxUivl1eAoW45nyyKZmOS3aj0dv7HnwYZue4VET6M7YFOtFZb28y/biMaa8WIzyibOuNOUaqx676ILzlLxYzDdlEAPxi/IRJy/IOqCc3yRGjjDHch/Zu99vSgQo583L9/YEdmE/9L7H7vil3+5iriri91RCO/HLzwCunJ4ohytUqFChQoUnA9gSiQynrdHusD04bVP+/uJyD+4X0P5g9hOBUzQ8Ook6yE3kyZnjfT/SPnZP5h+vXO7wZXi1h7ivBnb7aL/8/V12IH2Q4RMSP65HecUrXuxkjZ25IDOxA5WG9wJHL92whLhwY5bCePWUgN9kQkQBwZAE7qQJeaOxeo8IkBgQu3CQOa+nN2SnQpBKr6cwylKuVufOjBSUfMlmJyaMblj4vOqJ4IWQQp5Il+J+9FH65e6hP7eNcvojDVKSO0JudKs+6WPjUzBEPzbYJHMqgG5zc/OSQTuSXziOyoGieQXYHZUI1al3dfvdQSnhu5N6QRxjUlSXl8Ls9pGCkFAldm98XOQoOad6B8ZE/CTHd4fUWBf6Kx80J1dh76dAVkFtHC5b+nO95tbNG+VrTmiDLWoRAa5d9D5LjheWGIhp32C/9Q6wqJnbkD8qXe6/7wER77rKsXMXJJl60T/1ZVkEmzQHPr/MQGoUK9YS49knMrPrysvEZTRXGufm4pRjjpDGW5MQef/Il5xmX6M8C/02ronym/dQM8oGYZNf1KGfrEeEUIoMf9SG2uPFuHCn1wsvOMeJH3eNpSDHYF33qNRsl/kCqU8Zy1pL+w8esQOHOYJa6OE6hIt5K7SQrMiOvEzjBwE+kzzG5KILzkeor6nUJXSgfKsOGS7Ow+ETRGxjcdmOar653tNXojLoA7rEZ3HJtm/ZYh/WP6mK+AUg8PwvyWsFnw7ILwzmt/y5woFyGJTDFSpUqFChwpMBvrcSGcY/nmvf9eORXzzjF4J1qqAsdw7nOXrIBA3xoPab0rWDsuWbtZ3sexSCya7fqYD22YRr//4uO5A+yPAJiR/GwfXP3C0jEgLSYTXIVEHA2CWjMNe0cd1b+hy3pKMQNdrAKM06fmxSjufjURbywDVw0ADkOwnyfNfQDUZIhTSUH0QKZTGyFpaKG8coDeIF2RM9tAWOlSofuXW1G52jLoRM7y4zBg1i1ZB+Ib+4/o9ySvc06YJ8NnKPHhsVPZFuqqzlJP0gbYVOMuA7IRCqg3Da9Ge80bbitAfx88dJSEZPrVtG86D3O6Cy0pnxzBT0cDkKuR4pS51gIWfBOel6EGKmvCR+/kzCaLRIKHz+mnkrwfj3y3A975wzRSL6FFM5tbMwO29jx0ZcPyd+SodUIKNX5LXfrysr2tIfN4G5/bYvag2wvS0pnBfEAe8PpLV1HWT0MPruccpIPsSvv69XxO9yLSJ2WYvrQtUuLuuD9ng7yOfOpH5XplpxXSbFlQ7xi7r0AZ++FWRNjnXRaXEdpu9SCjwvcufOi5TGMeWC+Gk2fb69H8Wcl+D9kkMXBNNvdn/HJ6ftwUf2qkro4YStwIn6ivP1Ip92uebw3LPO8N1viLTv7ElnfhTx+co5Urs5jsDlqGzkcyy50yb0T4GdyBiFaC/rEN6+VcTvfadO/NLxy1uFpwbyuoRcY+0u8xLlcIUKFSpUqPBkAFuijLQvymFc/uCM47il280l+MaP2/wnR/m4Zspkt6/8vRi2X0u/LAey/Sfqe7TcfrqyXZdpGU5k+CTX+HFzl69TsSAbGLnlQvhO6mRcQvbYtVtc4Fwr+1qRXxaOgYqBCeFi1w62Sv6C2oE5+0SIRM0ozrFHJo5nswFu7oIeyPLr3nigOqRN7UQ9dvDYzYsy7F71+t09Sx13L64n9EWh2CLmrQJJruLmMmHyhv4ifrLtudtlQ2REJUSwiomVK4bWiV+zjyR2YpAXcmRYE1euCEKnP3piw7p11k2yj18QVOozlr6DpnpO5pxHaDSLxrwNDHklUG52dsHu3/Mwm2vqS+jV1Co8pRbphUdytKAkOiiwQ9kj0nD2Gdts4wZuTU+qxnqhYaNHj9mCyLWTCJXP3aS6CNDw+riNvessnxuW3PK5W0W8e9ScCqnf2T4iqZo3iYm2kZUUI1QkmUcYQGauuGyHHzuN5zCy3ii1EtmHdriucuiFoXv3PfealqcTIiWqhFxB/CijgOvawY4f9VWOcdGsKBLFKYNel+28RPPA2mQd0VPKUSY+cKwd1lhrN5LMQi7tFdHJ6Vm7h5upeDmtLwao0CM/NwBZIOOAMJ8FyvbWa7aZR3r4BcJBUpPwxWci5ohGUz+AXsTzpkrLHV3+kPp77nvA+xJ6Z5lomx2/vzzJUc9yOP8B888v263w5KL9S6PdgfRBOVyhQoUKFSo8WUgbA7TbG6s58ETaH3x/un1XyFvt+zHbTZ8TQU9U+9iz2X5+Z7c7kD4oh098jZ+I2fe+41sjQUYjjwfgejzq19QXDvHNFxc2YiRzHNRE0FI818DNi7h5A9RHUZEH92VQQ9jIm1uYtZlZkT+RDG4WQh3KAMpguC6LAUkL10WxYkcNXSLOtVcdfhwQYtdhPSKWAzUNdEFWcjcGgpdIEgpiQmKCXK58ZFOvsdRho2NTInyMQZDLMlTEzX8fJ2piRDM6DFQT1BGBVtKagUG74PzznCpAQimHDKnj+iEHePslEd6qii8thkEPeEzFHXfcHQ8vL9IohAiXo0per3hPMJqRFOm0W1P9LZs22HnnnOX1NWLGTXTY8ZudmfUx8UWsP9rnoeEbtmz2dkhnjUDaIX6dnew8MfYaGXShDcrh6+VyHOkHGLkoDXmv20UXnufHGElljqKdkBVAVhCLkOUteRqhlM4PC4888qiNTs6sIEQol7LCDzktosW6YJ66/McFSHqvCPKF0qu71unzyaeCZwu2xiHklYF6JGc+JXCTGtcv3nmPIrQTazx0IF8v6dkaq0jjL9PclzweqcL1mWeddaaWH492iDZB1gn9zH9c8FT0kMv1ztizs871vF+8826tp9LOrPwsf8a2bfaX733vCuIHymVXc4wdP/hUeHLBr5wcT23+sy8caA8nyuEKFSpUqFDhyQL2RCLDaWeUw+mw5/gO+1LJH7Jykyq/K9ORBwiDjGf7tPtEtZ/9weX3OMi0cjxRDh+P+LlmkJ5H9h+yPY/ss3seeMjufeBRu/v+R+ye+x6yhx/eZwf3H/Zn4cWDzI/aMX9A+YgdHRmxY6MKj435Q7qPjcrJHx2XPzJuY+OT8kfd51lxkBeeA8eNQcZm5mx6ftFvMoHj8QUaMhmyMvplBDv51Hj6bpjMVZmj6kCHX3vXULrfYMYJpcgARrP6AfHAh0RxtHNBBFGWvMuEgPqjAmocPeWB8t1i5jyAfsj65XhuYI8M6nnJxdG+htAdQSelCrj8og33izRPJ0w/cMrEmOfW7L08OL6vz+q9PNCbG6XEs+C4to5jlv6cOlnw4Tgu2yWC2+3nhbvldynN9e/u8nZjYgtXtMVYhSIwgZZzUie57PD4syYoorHxM8tKpy2/zk/h7m7p5nKjDfTnBVgw6ZykKI1n2mWzSlRJllO0G/V8hCQrSkGu8gHmvnNGXPIgJDNaoN6mquEg9j7e6bx+6EK/Ix359AcX5SAdA4NDIkVlXWg3+pIyguitdOTTDn0EjOm0E2HqxBFoEHqmLoH2tAxHz+M9xKof8smmjLdVhEG7nESWZR3OzvEjDPNJ2da88OMHPvoypwH8wmmt+By5Ovw4IV2W4gebbLfcfosUp6xTQ0OEA1fhyQNzl3cBa0d5jsv5pzvPFSpUqFChwlcC5e+s431XkY49w07Z47VB4BW505ZtldtMe2s1fDnbT7THHw8KU3TZHth/xO7fd9j9hw8es0cOj9ijh0ft4OiUjYxP2cTkjI1NTIu4zfnuxdSsSJzcjAjE3Py8lGUvLJSWai7TExRGRY2FyBo0gN00iF0QugzjZH7Kh/CpNpUK49+veSsG2w1XkQceDs7uC3dv7OnvtVpfj/UNDdrQ2mGRuCFbu26dbdq82TZu2mQb5DZu3mSbt2zxOGHS1m/YaOs2bLC169d5eR4AzrFUdgejN4lioAs9VkyCdEwQIg8SRZgbzBAoS6I/7vs7iwhSFzK9rsJ+baXS/XpJTxNNqnWJQMZdi/QXYxItNl+hQSDlleFtevsdviizvXTs0qSxD5AZpKDQryiHWNLrIrHZZraHIy+6yVs6ymQ/Wz79oE0Wej7jMepnnaIPRRyopotslvMi0Tbj1tvTS8WiXJAa9GZNepq7ADoEQj7yKOthrYIpEVLvcyS0oSWHevQj9A5dEpFmPl6+XhT1NVIq05JdpJWyaD91QJbfFVbhXIvkQXgJu8xm3RgD6uC8ObIV8JvsoIfqFkVb9Qu0QsdH1ml3kA4+S+X1VOHLD+aZseeHndXmpUKFChUqVHg64ETfWe3fbWUH+A7ErgxOcnJgq2SdsJfCtlpNNsi8cpkMgyei/dVcIsOrpZ0MzZu7XHDtbqwGT+T5cEudS1aTjLUiG4O9dT/i6SIl2MNdUsJLq5psu7ieSwamjFJ21iAr+TBxCmJyc2fKmfkFG5+ekXx2LKgXnaHT+B3yXWbRcTdxXUa05io6YVi2HpGhs87absPDa5TOQ7d7vH1QFyHEGM5jouyUhJEbRjBIscTJn9agf+6WO/yoJzf+6Giev0RHr6m81CMM6bxOzIUBJfrILDVsUIT0mqt3G4+NALTfJINeP2RRPvWkDKWbfaewMCsj+v6HHrEjRw573AkLd82UnOxPIuWuBsbNj6EO9tvuq67wI56QaPXY5jQvB/btC1JSEBR0qNXrtnHrltAJPaUjY/Xggw/b6OiECrXaa+kjxzV9rhpv9K04/udyBXacJJOe8uiESy++SKFYM9mnaDPCZWSaH+MUKAeZgdBOTk7bPfc97OncJTTyNFaUbapKgHZSVuqidP4Iyx8c6LOLLzhf48P8cLCX9HChQrSfQFbkteaXD8j8wqIdOHzYDh8ZoSXJS8K5EsikGnow9vz5Dms05mAn+KILL7CebvQo9C7azHL4vpa0hmNNRV7spMZzZ7hZ0r333WeTC0pnPbWBB7h/+H3vs+E1fL5a7YNyO+na46ulZ7jsHw8ny/9qRnPtHAfl/Jz/crjs2tMzXvZBOVyhQoUKFSo82Wi3A8r2Q3u47MrpfLdhA2IL4YhnHtwDcpYcBOCny3i7n22AlHW8MOUfb/vp2tMzXkZ7/IRHPVGRuyn6nRnd2GwUDmXYrlTBLhE7OYzW5u3+ZUSyQ4fdT3sIjZ0Hc8OyWwYqZKxe7/ELHgeH1lhXd92NZ3b+kIUtztHIDCOr7IBrpXb05nHqw6Vw9d4+6x0a8N2+7j52/nr9ZiSddfSVuS4ZOL9W0GUWPsQGI1hxP24pEon+eUdCb1tOuR4H5TBgAJvOB1SOMl6MHkWdLAM4jpdhfO8RVZxsFmWLNLpLURzjyhjGYqEA+aUFFpIcmbYaID+5yBCUPm36zqLa8XLkiSC02kgXC5axYm6ph/MiCmXfmvACrXSXpaD3Sy92d6nMdaa0n+VyLDIMvImijVjALN8gMxQJHWKM/RmMSsuFTrtJZgHlo43od4RJjHzAOM3Nchtf5RVyElk3xibj5TKlsnLoNKT1T37rGGYLkc4/hZYeCkVe4WdfwMzsrPcn4kW5FXJbYebYZSvfX/LRGwLoNx3iR5iTYKXslSAv8zN8Ipf9wM/wai7z/y261cYD155/vHC69jnJeNkH5XCFChUqVKjwVMDxvptIL3+XlV379yLAnuMUEhtd3LQFnx22RmPl5S7t36NZP+OJcjzLZdoT2T4OlMOr4UR57XCNKM6D0XngOI1Cing5Q+2u+S5XFw9Ph8T1i2gNDFjv4LANrd1g6zdvsU3bttvGLVvdbTnjDNt6xpm2cavi27fa+m1bbdMZ222D/HVbNlnPgIiV5EFUIHoQR4z08ONaPwid32BFOuDYkSLOLiE+dWXue/2Z2RmrdXKnUZ5Jl0Zs7HSwu6ZhlHUe/VElj3epvDv654Pc6Xcq5fqzuvrL+Hk92tJYSHDhx4T4mNEH9JTOODek/SXQnmRxHSG7n0kOyoBIqFjIwUe+wpLkMnznlLZcZ2kjXSCliMq2Uy7x8o5N6tgO0jOPRch4uzy9hazQAS/bJRkCmCTQM+R3Ks6NdfwGNzjPL98Qx7WWOH4IYHc39Avdsz2GVr6c7/MWBKSsf7OP/iLPNXAwZvFDg+coPT48rAF2YuMOoaQVNbKiS1qJcpsJiosix9wrnzt/uu4tQV4v65KX8RaZVAZ6qm6vPj/SzD9nZTTr66Ua/gIhR+ukGIOUD2amZ0gIfZpjzyiSL+dta60XP2gwVrETz2ec3Xl0UDmJbrZftBN6R9rxkPllvz3c7uKztnq4cqfm2sesfSzLrjwXiXJ6hQoVKlSo8HRC+3dX+TvtZG6179GThcuyAXmgnJf+yRx1T6XNcrgsO8Nl//GgaYFi86XL3TgM3bXr19umrVts4+bNtnX7Ntu6bZtt2brNNsut30S6yN2mzbZmwzobXLfW3dC6ddY3vMb61wz7Tlw8B27IHwLOzU0w9LE43dBF+eyAfN9NxMAudIC6cXMSdIowBQsDV+V5xp/f/AR9lalhdSM7jpBGOOLKoZzkl+MywyMOeazVrKeX69bQL9pqOm+1ZXgDjG3ieVzVHfVcSekuNbkzZ05i1FGvPTvKpM9YRDTkINOv8aOSlxA554YwkJACWTYiEfdgprXByzsJ0RirCNdl0rMmWVNe3v20DEhoPjfRyYEc+vUxVhoDb1t124mDEz51llnBj3zika9E+V5B9Tv9Tq9JorMP1Mg44+hls36RHg7JRdsqBoFnxzqIn4uKMS4h9V0N2SY34eGh+zk/Ppf0p4DrUcB1WBEnTL8jXGM8NJZ5HBmUywPa4eXpUd2R5fDRjUew+I8HCiMtupIV5BSPNMU0N/5yGa15wvMd1wLl8WjXC6yWBsrpLf3ily1+0So70tNxLdrTxdEn+vZkOtZeunJaucxqLuelQoUKFSpUeLqh/fur/Xut7Jddfj+2f0+e7vco+SkfnChedim3XT7xclp7/mou5Zf9RHv8ZHBtMfcgNThM3DL6+/ptvcjfmjVr/A6V+IODg9bf3289InGQJVe6ixutyLCVkclRyuhYKAyxcKNSLo8SglC21RGPqwxFE9mhwhMoJ7W9aBiYrV2fQk7howN54WKHL47jxSA3yzsJlGFe67YBkdS2IVgB2kyXMoouOKJqqwyPwXCSKV3KYGxijHLCW2EnhkU/PU0vdmsYa8bSy1Mi2weFzplWll0GNYP8MQ8hCz19t0i+H0XlVapHPteD4XtcL8aLI7ykULbVnhdpyn0slLZSJQf9mlcbzd1Td1HUdSnVyTaKXO9P9tV10bj19PZGvXZ4UshPZL3VHMVYY4lIjzFZiVadaKTVNmkx36EnBDrKrUTWxUd8OL15cqbrM9pY9KOe+cOFpLrPLvZqchly5izG1CORpnD5CCt+hr3cSVBuK+viIHiQJeYyXbb9dHX0B+Q6fzJceYxx5bT2fHAyP9Eer1ChQoUKFZ5KON73Fv6puNW+Q9vTM5xyyz55YLV0widzX2r77X6iPX4qaLIRjrPlkTYMHXYCMFAXGgtNcgfKOwRNwoWjLqQB8ie/dawsfCcbynvs873aDUw6UVimRYfQp4zcweAmMxhk/jB0tYHvYdXDpX4ZRo+4m2Hr1/s0yJHJA+m5cQbEi7zjIWXhUjd8DxdxSBvxORno0U62L78gdLSLPimLOgBSRR5jEPKlL6a96rLLCFJ/HGVSRsgJ3dt9h4dVR+/s4iWQwW4f9ZUdTkAXwowzelPOVRIYs2ZESH1ceDlehF12EQ6kH8hnRdJXf5dX7lO7vHSt8Yxy+AP9/R6O0XucUFNL+gxwgSxoHWNdHbQXvns+VsDHScL47PRJL8Y0y5bRqp9982iEI+jQDPiu4dISZVhPeXSzWD/lsdDYuNxUXUHy8LMNJ/2CpxdI3dvhskooxzPceJy3MX6qgzGJMXtyXXl+T8eB9BPt8QoVKlSoUOGpiBN9f7V/x+G3u/J35+l+jwLKl1GOZ5my3+7KbZbDp+JSZhnt8VNFU2vfZZLDSI2bn/CMuW4/PonsDghTUQbDM4/QJXGC1EEQUSSJFKYjvu8EKh2S093do1Q6K69pjZZRSluFVLh84p0yVhXwZ8nLCHZjum0QC2WLOFLCcHNSRULJYdRBzurddWqtMPLKyHjT53lqxTPzcLF7KF+yGopPzy342DEOjFG4eGB2ykdUiCv6i87qS8wHfjGmHC1lx881bJFOZGQ45SYy7PWLMEdmG4tLNjElQsPOn1wesdUk+Tyz+9v8MUDgSG0QmABHY9lx8mOtchCRpj5FW6GXEugP8eK1ou+sBY0h3GNuNnZv2XWMR1ngVEI+cqJ84ZOudnDIy7aV6+twaEDEr4iHeyya+hbyXLqSmrLom9Knp7m9bhCkVtsarwJeU2muR3Mcoo/+wY4V67pyl1B+YAD0NXRTXZVlzLnlqn/OGGuNA448vwmRXIIfVnw3jYjGB5c/ypT/oTCTfrS6OF4NpKGH0DN0UHZJ9snQXrYcP56ce+65x37gB37AfvM3f7O5g3rXXXfZz/zMz9ixY8c8PjExYb/0S79ke/fuPWEeGB0dtfe+970u83/8j/9h+/fv93TK/dzP/ZzdeuutHgd/8id/Yv/v//0/D3P89IMf/KD98A//sL373e+2e++918eBHzaQ8z3f8z1NRzx3+hL078lwOac5r6fiUt9EOVyhQoUKFSo83dD+Pdb+HVd2q6WdyJXLZzjRnna8MmW3WtqJXLl8hhPlMGiPnw5a1quQpiFmIdfU8Zy8sgJhNmJ0hvER17hho8p0F2nwa8cwPuV8d0TpeUQRoxfJPCScZl1uoTeGV8jLFsJ4deElUCaSCi0VXvBjcyGDZLIpR31PK/LKsnNnjYreV/ILuRC/3AFJtNptl0U6suhPOG+Q8hoPblIzL2bq44XBlq4Qln0O+S2nN9dLhb08RJExrCHfu0T9QqECyEm92+WFsYhuSJVspS1KucnJqWYb7muuuus9CkIGg+i7W0UmQ6CQ12sORwHy3S90jDh9Cg0SkR5jtthYEsGa8bSYe/KjX651ypSf4dVAHj8w9Kof0SDtrl4nZaWLxOIt01SfY678KEB6li3Pm96oFGHBdyAZT8Vj7GPnmTnsF/GDrnndQp730JuKMATQibdeqEIePsg2mOu5hXmGX4nSpfBz3bv8Ql4xEE3n73pj3rnzbsLLF3UB4VNFtrcakPOZz3zGrr/+eidoBw4c8HQI4D/90z/Zhz/8YT9dQJ+OHj3q4RPlUf8//sf/aBs2bHAfuZDEL3zhC15u37599r73vc9GRka8nfHxcb+LVpJC/B//8R+3V7ziFfb7v//79nd/93deDzL5hje8wWXh3vjGN/qcJRjbJ8vl+J6KA+UwKIcTq6VVqFChQoUKT2W0f3et9n13PJf56Z/IlcuUwXdyGe1lMr6ay/z0T+TKZcpoj58uStojKIWFAcjRP37xzobJdYNR4ex42TgkyA4C19ORTzjKhtELMfQdhqIOEsuy0sBJv92BaA/jNOoDypOO8QaJoyxpKTcRciPN5emvWaboBjtyINsD2X7ZJVpphFv10KXRaNjs7JzHQ+8YV8AYEX+svBy3lu7kQ7Jz/HwECjnluiDHAqTfQqGnQshj94OI6+C55kdxoQbtciO3pK9k4+fR3TKhBdm2E35PVnm9R0vyU04B7hrq+jha7cT8xBoKrKzf7KuPCum4wlj29KyBX7woVEK7DN9tLMqRx1w68S5IAD9qRJXUJfrp+jrJV0LRRCHagU4+vqrPHWchMSD1cZ2le3nuQVlfb0MkFJ2mp6c8nCiXC6Bn2YU+0d+YP37oyHxkei3Pb3ZhVTy2rcBq6WNjY3bHHXfYTTfdZBdeeOGK3bhdu3Z5HjuC7The3j/8wz/Yc57zHHvJS15i69ats2uuucbe9KY32Uc+8hEnjFyDzHXJf/M3f9PsC6DdjRs32ute9zrPv+iii+wnfuIn7BnPeEaz3MDAgA0PD7tDzvH6+ZUEOpzMtZdLtMcTq6VVqFChQoUKTwcc73utnJ7xx5MG2uMg046XV07P+ONJA+1xsFra6aJpYSIqxcUxO3ZhGoVxGgYwhimGLXHy3RBuKtEyJtOV4UatjNSaiIsfSfNsGZyFselymnVoTx7FSrLCNCPcSlPI/agTxi1ywpCLGhFWmgxuyBhVXa7nhizKkOIEtdjRjDZShnurIuo/tgwyudFFhjGsKRPlY9eH9NQvXMDb5q9MeEQInGi1tRN6tvx2A34lKBNjwWM0kpzn8UwnlkU9T0emyyUt5pcy7ELi53MPGbsgLCrr21f8leTQJnFlsRvWQpQFXE8axzpjbEAQIRVZ0Zcct5DtOUU424KI+ZFR1muRTlPu8Ijj6xXHMyMtd+qAt+EB/eU6LQR4O4Us0kKfcJmWBI42UmbEon4QPcYjwp6rcCsvXaRlOn2jnSDKKz9z6QLtcfqT+ilXsoLMPvZz636z3uoolz8ROE4J0dq2bZtdffXVdtttt/kOHCD91a9+tf3RH/2RTU5OelpitTyI3UMPPeQEstz2li1bfCePzxtj9LVf+7V25513+pHRxN13320XX3yxr9sEz8bkplUp65d/+Zf9mCc7fshrR/b5K+nasVoZXBmrpYHjpVeoUKFChQpPJxzvu2y177lMW82Vcbx0sFrZ1bBa/UxbzZVxvHSwWtrjQdkCb8KNV+SrEScRCnfV2AlqKeO+/txgbVOmyHI5hDE1cdQpG8cho9TBIp3SeYy0iSIrCQotQCD9GXMy3NEjSQxyUqYb0HLI4/gc6dk+aOkSTRBnFyXTS0VXADnRxHEKFIhjatEfZIZc9GDoFXY5Lef6ehda40TdwLLffCZB+fSpB4HgZiTNdH9fCdJwki4SvFi0R9uQ+rgBTSLSw6ELPmMTj7+IdO76Sh7zoKin+9FDIgU83Io2w6wtsqKfakPjtBJRMHfYwsVYJrxuUT+JFn3z46vI9LzVQV9Db9rRvBckK/VLUIa7aIYerb6l5BhDCFmx/gS8uIlLIZM0vUhznUiSIy9dGc30Ig5oz/svn7GbmZl1mQ73VspYCfJW5qN3zR97UbSntHKplaWPj3bdy2D9f/azn7UjR444geNauz179jSvyQM7d+60HTt22F//9V97v8poz4OocmfhvPYvATGExOUONGW++Zu/2T7wgQ/4EU4AkeS4aHlNoB8/BiW4ZvDXfu3XfCcQQlhGc06eZLcaTrVMhQoVKlSo8NWCk33nna5bDV9q3um41XCivMeDlpXfBA1gxCrYuWy+3wehIkENy+x1H/OM68QoTxw/FXO7ypMzHsY6PsZmZEf5JBqUJOzGd/GKkPLcMA1lpVITnlYY1rFLSWrsrEHyqOxtKcOruTAMeYhKCIo6AH3kKXlpKY7gEQmjviBWpbDnFkLpF+nhPMtBHMMyDM3IR2aUj/pRJ+TinDgVukAS0CfHj7we7jqql5elvvLYvyDMg8H9OCjzR55eZXgbXifiTnpKu5vsjtXr3c04DikB+kyZmq+F3PXr7e3xnbUmoaEUdQtiGDKKtFIcEMqxiz4yL6RrjfB7g/oRIkOPqLtSXtRnboojus3HG5iThNQp/dXAeJJNCZyTD2+KdRNrZZYbkijN2y3Gwtvh2XyEXZ+Ip2PMXGf9+fphnOTQi3VLY95vlWwH89ophxoxl9JLJYsnCkZ4kfd49qL3ocMHrXDRr5g39Ij20Ie5on38eq3b1wvtldfG6SL6j5YrwXV2EL0XvehFdsUVV9h1113n1+SVj3tSj2Ob7Mg98sgjRWqgPY9xfP7zn29/9Vd/ZY8++qiXgdj9+Z//uR/ZhPwl2N07++yz/cgnIP/zn/+87wQy7uwe/sEf/IG9//3vP+H6+Eoix/F03YlwKmUqVKhQoUKFpyu+HN9zpyPzyW7/dIBV6CibnzS0LAtwUdb3/EJDxlbNjcymEuRTHGOySEvlSM8dmSiqvHwRxwCWK7cHWuUUTqe0JHZJCIEby3LEkeNET3FIluuhvzSofUcQpUgHZDu5arUf8mQ8y4cyJrFzneRIT2Q883Ag02ignIZuQdoKEoACnheyItySl/kZJynSg4Ri2CrVS7lDNTmMeOJNI77IXw2eTj0C8rN/kAMIHXFP0583TUGF2fFynXjJ59huT09vtB0FVyD0f2x6E5knjxBlve0isVzXiVKR1pLLXSnz+YyxJrMO4TyGmmtoNbTSaTWcz4enhRzmkCOEkGR0yLnExfMQKS1XiMg8TyKtAGk16VvvqTc/B4FSoTKQhVNQEr1U/GgRa9pJMjKKtvCacB2ijew/ZeMuvfFDCa7GLmXRzvHm8XTQXp/r87Zu3Wo333yz7d692x3EDeKXj8kAXKv3mte8ZsWOdqI979JLL/UjoP/5P/9nJ5Rvf/vbnVAitwzWxctf/nK77LLLPL59+3Z7y1veYr/7u79rL37xi31HkM/TN37jNzb1fuc73+kycdwIJo9qJ3wcv4zuicSXQ2aFChUqVKjwVMWX+n36dK9/KuiYnJxc5hjb+c+4mmgkWpctdiz6jsO2devtmTdc58TP81QEY7ZknuudMIoq5NYoxnHIapIIYVGkanRsxj7xyc/IiFaeimCIJpDl0lS+vdMYsL4TI3R05k0xOq2vt8eeee01zfLNeiGo0CwSIGC+80GqK0uRIGVBajptYnLaPn3LrYq32jy1CYiWKJv64w8O9Nszrr3S47QRYEzCj3K0Rd3QLerH8VTC4XiW3qI9snef3H7P59EO5AHk8FKKxx20WVKdfCi3l5Lsvr66XXvdNbas4fRiKt9YmLe9Dz/sfUcm8LERQeAuioNDg0pBhllDY3R0ZNzuvudeJYUu2W+AjAyDzF8N6NbX32uXXXqhkyMacFn0US/IS/aNR4m0EP2OoY106jQaC7b/4GHbu/+g657X6JXbL+sKyvp5njuzeleHbVw/bGeffZYGI/oVbWpt6IVeTbmIK4Keh/yMq8zc7Jw9sOchm5qNRxqQTxV/dEahC+XYt1SCx4ETvZIc+tjX02NXXnGZ5od9QH70YJcwyGToI9kxMA5vSy7nltf0zIzdcff9K8aXdmhv25Yt9uH3vc+G16zx9FNF3k3zqw38kNCjMX8qI+a9QoUKFSpUqPBvGfy4Xrb5mj6ZmApOJApjEPsPnx0BCgInJnJxHZjCRVmEBqEJozGNR6AswaX7X1zv1iIzRQGHyyvkJrJcs7xAdu7+0Brv+awtv5GH4HI8h7J0NnaEstMI8VeRh+gkXpRhJ8v1aXNgtfSQW8gu0GxLOjJm6EsfcuwCWb9l9IPob7Gro7ElTjmOCPpRNurLkRb1s18kI1vphexElI0cfyeudrm7JGMUkA4K006Ub9VHu3mRQp8/6eRzXvTHdS/Kl+uAcny1nTfVCJ30Bznj+F3K8VcR1igUNUImTQbIYXxCFsXoF8dQMdJjLMOBQqq/PF7IxzGO7BLleEZa9M8f6VDoTzx/ECg78n1+kU1zpBUyy3JrxXVoqBSlQ5cEMRXzsmVQP2XQDmE/7ln0zyUpr1WvVf8xeWrb62SfXOFAlmuWrfCkojwfJ3MVKlSoUKFChQrHQzAlwNaG777JCOzgujGOgLELEAZuGqlh/HJ8DEMjjJI0Rr2E+271ymFcstOClak/NurUYq0ej3tAXhnUcgNUMgh7A+6FsR2OMtSVbr4F0uXED3mJpcUwzEOHqIuo0I0U5IcTS3DHrlAa0/yyn22m7/WK+quBvHART31JQx9axeUz3XChc9YL/bMt32EtwlE33v24WyG7hZRRdkou2selPlGPTLZca9ZoKM1HO8rmGOByt8jTlM8u2uJSQytC4ysSDyA0rWsiA9lmO7xt/SWBcr2UnmWZs5mZuSCV3qKgrNCbSNSNMHXKDtHKoLzqk8L1kC5bjv5EuCiOawO7bt435bHbB7hsDn3mFyDieayzaEvIfvjnQfXzCGcQPZXlryijNz8u2tPb2jWK+dCKlscKwMVx3aJ96ujlc4JPGe9myKMYZbwOVfwNuUhVtNDJP94eL9ZZ8UIMY0oF8otP65eEvMHKVxvoV87lV9JVqFChQoUKFSo8EQgr0OFWYzj/C7LALf+JpzEbRng4r9U0Tigfuw/EwnyEgIUjyk5aZ42bgmBoUqMwxhPIxQ9x7jIfHx0czULEO/yufFnODeSiGEmkr2hD8HjhQhT56B9EhofMZ/9Ae/12tI9J6okPoXMC5bJraiXaghSkGoA2on4kRJuhe5ZFnj8HjnLeXpYr2qY6tZTkwRDVBGlFEZVBx06bm2O3VKkcE1Q7uLwpSrM/Esh1g4wzBIIjjkVWkApvOxKiTjSc9RNN0qH0HFPCHteL4s1n+VE12YoQY1DMl9JzbN2VOupyvD/srMWNaGLXN9ZauWzCdSlkJ/GBALpC6KdEbmTkvyUIyGKdRL2ivuDSaQNdC30B8lwm8gTqBxSPIqGjIvqEeFL72EW+fG8FX1XVBnOBPJ8jpfl4yo8WeS/GTPnklOV6WK7uRE35KuP9/hLBs/DYbWWMvhocnwee6Ue4QoUKFSpUqFDh6Yq0QJsII7yFNIrDiMVwxNAkHoY0cGPTDcpId2NTcQhf2WB3I8qNqXgQNrXJaxnCgdVMzyznsooChNklyqOeSEw9sl39RY4CacS5LO9Oi4CEUc7NQrqsv7/f2wpZUTcF4ZEessOlXu0u+5U3naHvCjTzslzIi3ZwCsm1xi7TvGceBqSH7++KICec5zbzgPeF9KI+88jjHGamZzzN580J3bKPEaAocT/WiC5K8x234kU6Lo8bphxvqEDoEzrhI4Sx9rBAG5CXVJVr4DJCGThzq88g5bXmLoGGyllBgtiZXFGev6JeWQbvhFfILMo6eWS+fD5a5cpz6Bmg1fWmzAR6UY56jBvtE8YBl+ULM0A+KMsog/yFhdajCBxK48is1yzq5zylbi5Xf2rNX77evY0Yj2a7/n76QAYyeaTCV4PjsQ5frbuYFSpUqFChQoV/O3CLs7AHBQxPJaXxJ9cQqXJD0o3BMAXdQC2sQvwIYzR6kiPKpCtqOinAi4LkpZ+OwrzKaC+HLqgT4bjjIn7WinJlgzrS0tgm7Ollg5t8l7vsuxWZFm3FWAC8rJ/IspG+Mo+6DZGPsnGfYVCILdWngYiX03HI8rpFM8Qpplwvm17IaEYcLi/+HLTLmHHx5+JikAeI+qLIYLnNlVKQHGMfIfesq9bVDBdvj4E37w4CHv0P/VsEivmBxBMmz/O9bpsWRZR899vb9PJRKGURdzkKprwVfhFeiSLf31t+GdRNR4EycUMm6dkX74/iSSK8TgnZH0eRlXLLiLRIdEJXzk+ZRXv4EY3tymyDMcvdwoH+Af8slMW4vkW4QoUKFSpUqFChwtMfboFj8GHihx8p/vLr0dghwzAnHVNQhiyhwoAk7g/15hijCrFLlcSGsMtSOi7JmV97pTIpAVFZxndr0pXqAjdyhSQKAD2CLIS8aD9cUw5l5aARrrscafHsv9CXdtGacN4UpFm3KN8uMx0Sm30pfJBjxI6fCjbzog7jEfF4Bp1keX/RJY4SAsYMOU5aKaW65HOdF6AOf4D0lk6RnI7+aTZJdlAEubNz8WDyxkIjjqQWNVw3lwUhiLue5pHdbENDZaje39fn8leAeOGcVPhYx7po1Q9y7vPpbXK0WOOuOGqU57FZD22KfibyWkTquOeyRbC0zrieLm/uE5nhgZSXr4TPvXzyWXHRbaW4XvKpl/JK9VwGA+eDF3LcES7irDmIX/Y74W22yyzaSuf6Fs7HQPMCUXclFVv2o7GKePstHZAW5SkVaekgqt31bs1tXKeZOrR0qVChQoUKFSpUqPDVgJblKYRhGO/c4CWMU4zUMJwxJd0eVMCN9TZD3msrbSVBivwiIMO3y/p74+Ypska9fhqpCbIiQM7KPBBtBSAjEL/mHT1XkAIIQKGnkjq7FFe51C/JUJd8Xtx9s9vvBtm6xi8IS8gjiXC5feBFi/L4blRHzHcRuRtmpuBTtGjRdfOHfcto9xJ6a4kKssVRyiS91KwxL4yzHPLQJ/VtIeJ+0xAcrZX0pnXqcNyzU+17W2qHdI56xuM7GLei/4V+6OxtFyuHcR8Y6I+IyuVaoS1/REE6xX3s9IqiEU/4uCjO3mPwGPJpMfrhNbNOq5rrzQukPN5DV26Gw+6teuJrLfJByqJc7vSmizz6Hnp7Z3FFHZA6roCirkmmK1KWSx7rccVNQgqdlN0MO4r81UBZhHdqbTTm5n3H1qUXMlqyXSUH5Dj18Di+B2O+PXyc9ipUqFChQoUKFSo8/VGY79h8YfS5sahwGom505O7PYEIUCXLYtCyS9U0Oo/jyoZvGqHHBToUBivlI6kVdyeDPh4zEGlh4LeQZZqGPPUzr2kWE/bmnPzxKADfYaMd8op6LfL1WJC/AhmXz3FKrythpEZO6M94uE6Fa4hwsUMYxIu2Ka/xFcHyvigN8gyx8jgFTgVqdEV/i7rs9PHcvHwQOS92b9Gr2QeVg+BRhjkmNevXal1+F1T0o5HcOSpqluAK+FwkHjNmDgppvBXKXNoJ+UQKT2kJdC3HAeuGNG5c0pITZUF5rfoPAXLkpaMd10FvqQtz4yBPGYu+RnKeov2mHkWjISPWEjHeORoLaCdXY7m+74zLd0daOm4xKufqKWFxacFmZ6ZE3udVh3FnvaI/6yMcCMmPReqEHt7/QocKFSpUqFChQoUKX30orOmScVgYm+zqAIzDuMYPAzeM6Ux3KBrEqggr4HWK/DBgw7CkEEa2Ez/iBVJmIkVjxpbzCKdhHnKVp8Jch5j5UZdyMnyxkD0WOhU2drNu6Ej/igwKSCREqCm/AOGUl2iOgdCSF8i6kAMekg3xY2fJU+Wnwe/Eljx3pEW6P5SbcopShryow81XZNA3VYt2m30kxdsO/cvOJZTK4mgHg5/5Ri5HEXlkRB6DTZnetMQ22F1ChvKcDGqs4qHWpbb81QJpemumebxAs44cOvgRYLXV3JUt/KbLOuUWYlgcLUIX88hNRgiDx9QRyKN8c600w5SNfqZrcFdTUqVg6tWEMphDdlBjrjmaq/pKp90oSZ2Ix9i3SKOLkvMfMPTi8QyxG91pPd1169Wc1Ou9Vq/J1XtEaHuU123z8w07dmTEDh08YocOHbZjx0Ztfq5h8G+/6Q7rptA32pePTrRZ9IF8d65N5Lnv7xUqVKhQoUKFChW+GrCSyZSA8ZsOYz8NRMxB0uLOnBjrMk5FsjzPLcc0Hx8LDEmM+16/hi7a8PTC0ASEMVJ95w1iITJCWtllPRBkyeL28SrrRzlxbugGIFxpZDf1LNRs7gRGlALebraVOFE8w8gupwHSIAxKaMaD5AU5cIKgtGg/jP4g3SGPY3wuS39OCtT3vDmIy6RNMhGPK/AYwlTk+VFM8nC8JC/nGUdZjrumTl6GynJK8h1CxifKxjj38FB5dFcZdE85ZayMBcplUhbrifXm+hSyYjwKKJ966NcO0oOwFvOnMA+8p77XKcogs6yQ95VxVF6RoHDR+0wTFplHIckUOZnv+rhKkeeOcsW4pAsSHzdVybrhZ5k4PlvX56sXwifHUd3FhUVrzDMevdbXO+yuq7PP5maW7fDhcRs5NmVjYzM2MjJmR44cU9pRm5wsdpqbbYReGfdxULv88FCraU2V8qJ8hQoVKlSoUKFCha8WdExOTi7z7LQLn/kMN/ww+LiuKQhdp60ZHLTrrr7Seuo8Py7JWuw6sbuR9qGblYXhCJrBsDf5c7cgwxej9JYv3B7GZdFmIo6bRSVk+E6j/GiXeBxNA67r0qIND/bYjTfeRK4fkwy5RV1SVcev1SpBpq3vxmCYJyjX0VmzielZ+9jHP9G6WyVlVT00WynH66AHbciB7A9xHuGwYd0au/zynaS4nKWGDH+RES9fiMNAj/ohjx46MXSSAFnrNE4azs0v2AN7HrKjR0f82XqUzfZWg+dJLP0M+dGX9Af6++zqXVeqnUUKexnI5t5HH/W56FzO8pIhQjK0Zo0NrhnS2lDcH/DfaZNTM/aFL3whxiaacLA/lrrxzg4WoI12vZ2AqzwE/oLzz7WhwQGVEwGknHQI0fQh6hOgKeDt+l9Lpo+nwmMT03bn3fc0H3Aedb1ShAkWbbNaorbSlcYPBlRCJjckOvusM23dYG9RnizyPOhVXCNEltpB9UUFKEsabkbr6757HlDBIKlce9qxvKAojzupK71Lc12zBa2Tc9TmrquutDPP2GZ9fT1O+iGzNAsJ56H683NzNjo2YnfffbfddtttNj8/p3I16+vvFYmMH1A2blyv/jSiT6oNyY7+d/iu4b79+21salpRJlbJetu2ZYt98H//bxvWnFeoUKFChQoVKlR4eoDLzLDzcqMh/RXED2MSWzAMWhE/GYwQg10iLYMyxCOtuG5IrIl4GrPcICXICyStZVQ2yyi26DtcHXZYpOWzn7sVId5m7NAg1U1h96N++LjUKYhQKB8FlkROe+2GG25olVVykes7LB4pyGIrv1nC04CniPhNzszaP3/sE/4A8GZe0V7qlyjnrxZmLNYNDdnVV+9yw5vrtJYXJYNsLxdjBj0AXk9/5VaQxxiJBzjxe/TAQdu/b791qG85Fjn2WY8Rj3qR4jqx26T2kugwBpADiJ+Xka5gfmFOxG+vz2mn2iQVAsNNWgbUlzVr1/iPAozG8nKXzWi8brnllmZbgC4ttaIuI4kfaOoW3S3iZj0iNmeeud02bFjnZLST7S4fE+nrbXaImCJBffd+RF3GzcdOMkKu4h1dPpdf+MLtri9jlfOSPsjxyLQsB3Gk34Djr2eesd02DQ+Grt5QyCm3X07HKdN8uln7HL1U2vzcgj3y0F4RrnmvC4nu7uoW7+uxBY2nddTt8iuusquuuNwuOPcMu/jcM23T+nXW3RNzzQ8BEkQz7vO4kKnJKXt036P24N59fuTzs5/5nN11190aI3bBO2zNmkH1cNEGBvv9TqfSTnW9a67bsdEx27v/EJ33PiAb4veBP/j9ivhVqFChQoUKFSo8jXA84heWs+BGJH5Yk+7yJiMLjYYbzlSAYODIc+PWDUiOrxVWpOJBQkIGaMmUQakIRrTX9DJUXz0MysoiKOMgy+ZzBrNddMlwuFLZIg5QqyUv5JPPTorvNMmR1mw/5XjtgKcLpJf1AuU6eWS1NU6Rnrp6+wmVo6zv9Ll8xUW6fAdOLKFXhns7KOdlo3gz3kwvykDc/Uhl0SdeEBAQN42JPsSdHoPUOAq1s2/oTZDRaJYp4HILVwbly+nIivqky3miiUhyTaTGU32lLOW4gc/U1JSNj4/Z2Oi4HTsmf2zSpmfmimvvWuMffSPcIocAOdl+s//uIp8wcL1QVvVba4rr92JdOPDoT2jtvrelKClN2YSRx3Ytc0+/lMqz89iV6+npll9Xeo/q99oN199k3/7tb7Fvff2r7bWveJE9/xlX2blbhmyga14kXERxcc6WF/RhlrOFWY93Ly/YusEe23nR+faiFzzbXvl1L7dv/ZY32Nu/67vt5V/zcq2XPjtyZMQmJ+ZsYjyOg85Mc0MYCG7oyCM5EtGjChUqVKhQoUKFCl9NaFrFaai62ZfGrcAOkRu8IgxZJshD7IpgNpbzqI/RnTuDuaNFOc8tyqXhHcDQdq+UFsjyAIKX4UzHpcGfBruoAiXi5WXU0aIswGvWL8o4qUKO8jgOlzLDmG9r02MtZHqE3XsMyM87XiI/dfVOuwu05CMzZdN3ykMQzeoQhTZQLvuYrgxvqh3I1YsH4Gd/o/G4zg8ZLT0FeUu+3cYIi/yrP0mMQJYvo6xPOtpMlNORi7wFEW/I6MixEdu/n93NI3bw4KgdPsz1a5C+URsVeeG46+FDR4oy+23f/n0iNSOuY6wvjlHK93CMR7m9dJn+WL9Vhn4tSKfy3D3G8XI/xruZ7qRvyT9szFE8MH9ZY9ynvF4Rv3X2zJufa9/5HW+1b3v9N9prvubZdt3Os2xtLyRxwXfKF1x6rB1uGJR6OAH3dIv0hSXr66nbFZddai972fPs1a95hb3tu99q3/qmb7FLLrlE5Hla4zpmo6NjPo4T45P+w06Ml/qM3pKXUO+LUIUKFSpUqFChQoWnMwprPwxKWX5uXuZt4/04p+ILDe6a6ealDERVggu5QRjGNbFIFAGEBHIUzQmTyKHyoCsuHx/Dfl5mrCzVNKoxOtmFcpFCprshKmDglkG8VYb2u/wuhoS9jmThc0wvjf40wjMc6iuPc3aup4xoGejNHSJk+0tBdC2qJJDTNJaLOGOUcfKyTYxzHrTtD9hGCmnoQKxox4eX/GXaz51VEtGXKlAt5kW97WZ8i/Y9P9oBqVeilRf5eEEiIx5EK54z6HcSVdzng7FUEbqT7dA45MLbUL6TZVReCiLDX5TDVz29h4swsmiXMt5vEnytFQ1RSW5mZs4OcJfKI2N26PC0wjN24MCkHT02axOTizY93bDJifniZiZTNnJ00sZGpm18fFqEZtz2Hzhk+x7ZaxMih8vsVmvcmGc/KooOODUlyipSpZ4X8dTJ+0efpZevYMo0lmxudq4Yu+gHryC/csuMHb7GU3kNxSFskPXYqVuwhblZGz16TDpO2uSs5m1pwG645iZ7+1vfbG95wzfYK1/2HLv8wu023LNkPZ3cbZW29PnTmlgwHjFCu8y31odco3DzSx02t6g2l9Q/8vnASTfqb94wbC947k32jV//Mvu2N77W3vLtb7JdV+22qYkZjRm7phN2ZGTUxianrFbv9mt36S/zxXWRFSpUqFChQoUKFb460LzG76KbbiySMMxjZwoDuK+31y4671w75+yz3AhtkYrwKQN5KJMNQNk8DqoicuRjnC7ZyOiEfeoznzW/M6jnq0ABDM4y3MBuK5PySJdIW9Pfb7uv3mU1CBFGPmWkD8TE9QiL2SumnivlKUw7lBNNODY+brd/8U7fCSPP22kD6chK/QB+liePcVHEhqTfDTdcL2O94SQBCx7yA3Hwv6JewmVQRn7KI7uheVkSCZiambVbb/2C1Tu54U5Lt5RRTlsNmY+OGPpnn7XNtm7Z4mnIYN6OHj5ic9MzQe6kKxovikh01eu2ZdsWJ0QOeTNaP5/93BesqzOuifRx0Sv1SWS8la5S/lw6jpiyw9hlNfWJfK5l5EYv1+y+xq649HIbGh6wer0mfaWNmA0kPeZ1SSRmyh586CG75Qu32CN7H7W+/j4Rpy4R5Jr07RaBPKzOxrMZvVXpiPZ+R1X5viYU6CyNW1ynSr5ePo2dNqh53HHJeZ62og+UU11P05/f+5P5g7jLn52dFpmdt/m5ZYUbImlmF116pT3vxufZrisutIvO32T9flNNyJrqSg6kn+oQu0XInOsXn8v80UApoZ+itE0/fOxdH61kkV1Nr+f5tZ0qPzO/aHfd+4Dt2fOgHTt2zP7mo39jB44esu5at/H8SonzHykgkJs2bbQ//b3ftjVDQ0V7FSpUqFChQoUKFZ7qOPHNXeZm7eKbbvICSsPE90oU4MjfOWdut0suusgNZ45wku5Gp5cPYuLGcwHigPIZTuN4SeXHxqftE5/8lHVzrZ/S82YVAJKRdRLEo81AGOVFuuLDg0N2xRWXWW9fj8pRl/Itglc2+ImnzmWZxKnBTsr41LTddfe9NjY21ixDPijXCSM70tMHLivHQ+E1AwN2zTVXS6vYHSKN3RSM8SjSqtvccZTV702hq8KIW8Tw5+YzImSf+9yt1u13gHRx/gbZRRZtIKekUeGH/GyXvkAOzti+WeTvrOY44Y8cOWaz01Ma3xbx40q6TpGpzVu3iKCpvl60Nzc3b7d8/jYnb7kjiO7NsaL5Ik55z6cuUpXe1SXSIcLnO7dLXX5zl2fffLOde/aZdumF59q5Z262fu5QWYtaLlUy6Qe6zswu+A7h/Q8+ZAcPHbPDR47YZz73Wbv7nns1XN1erksKQxbZvfZ+SgjEqjxXfh8ZXs00xkPxJfTu9Ltq7rzk/GYf2KlcubY8qIjmeXHZFuYa0m3OxucWbH6WxzEs285Lr7AbbrjWduy80HZevMPqtUWthXmLB3TEHNJL5CLZSZ8IMWSvgyOijKHy0I9dTG7sosb9uLV/Nl1KgOtya8XuN2Pg1+tK6IJ0Yx1w3eStn/+8jYxN2rGRY7Zv7173Z2bnbe/efepvb0X8KlSoUKFChQoVnmY4BeJX2vGT4eqZKgTx27Zxg4jV5ZjAbpRKjgTEs/vcACYBXyCe6RivhN1hyMr4XJbBOTk1ax8X8WOHIY1YN2xVv3y8LOU02ymQaTh2pIYHB2VI77ChwX4ZwFEP6xcD2MuiRxFGJ+pkPGXpzfvGMVUe5wBpOCICUS7j7UlXkGGvW8TLyHpojX5XXnmFEmV1awxIx7zP8YzjgtF/fwahXlzjxq3645b9DVtUmB2vnv4BGeyL9vkvfFHlnX1F2/qLu3Kia5CRJjw79AtC2NK1S3U2bVprF15wYcyX0pZFJsZHx2xqfELS4uUkROI5Drhl21bfdfNxUfq0iOgX77ibrvkcx+JinKIdP9bruiksXeNILg9YF1lhJCi73GUXXXSxPetZN9tFF55nV112qW0cHhIxkoxFjqJKeEeQHNZQIaxoQeuncNz59OixEbv73ntt34HDdufd99vffvTvNYZzvoO4sLDgOlCPcY2Qeuh9KfR1HaWgzxdp6Afx67WLLih2votxdJLt6zfW1VJjUSRvznf2ZiF+c4s2K/J2KX175jPtsksusUsuOtd66qqtcVnWZ40jmcw58PlHDoRO8hdpR2Pju3xLcXMZJ3isQ9Vj7fisMybKY5ijF/QKzelH7OL6DrzSmEtkMB7EJdHGJyd8vXMDnXmN0ejYuPf95S98kT/KokKFChUqVKhQocLTAychfnNO/JIwsOPnhWRMchRwy4b1dvXuXW5sOoGTY5cGP5HGMsZma9cnCRPlMD4bWLY2PbNg//yxjznxw8CNcm6fNolf1i37iZRJHX/WoMjQJZdebOvWr1XHyI88N6C9bLisCxgAh+KxyxJhTHAeAXD/nofs4IEDzXIpI/UgTF7KizHpcuO6tSsqKJujnjzHj2OKGPp+h1S9aM3JlmTMz82b5sIJHzszjDNGfVwbqPGUqG5IQa1uC8o/fOSY+hZ6IIO+ogrEIXVqgnK8inT0dqIpobi1w/128cWXSG8GL/oyNTFhYzwrkJcKoQFHPdmlZcdPExd9lJuemrZ7798j3Rte3kexGDeQYxI6cofTmvJh6OqTxvvSS3bYzTc923buuMgu23merRnoVbpkLS5IPFfoxRFeJ2IeIh7wUVbyMrtvemnEPHGZ69066vbI3oP2mc9+QSTwgH3yU5+0e+65z2rd3U5E2S3ztanyixoPyFvKjJFibiCyWusS2y/id+7ZW70vDu8+48pxznm/+QtjMDvTMPF166j12XXX32iXX7bTLhZhvOzic2ywT2RXY7Ag8h5EjPHSnBV9Y0x9faCLyi0qrmKuX4eIH3fEBb52NEbMI+VTd+CPjZCfY8N8+nW6kke/ufaQXXPIol9by8j5Ooz2eW5i6KHP/pazWv2tUKFChQoVKlSo8JTHSXf8LimOemJSYgrG4wOCEG3bvMGuuXo3chyUwyBXfTcYKROGcuSlwyD1QgIEj7ISbNMykv/lY5/wNloEJIhClCYeIfzQK+CyiwZdRwWHZJCfd/75tnnTJsQXhC/Ip++cFLJc15LcBGFvx43fDptvLNkeEb9H9u6NdLVFu1EndMk67PiEX7TnfQzj3aF6A339IjcXiTj0qH8Y36Sb302RHZYJkayFOXb3lnw3D+LHET+IAcfxMMDduFfc+ywXfgjym7OoXW5U4oRKaU0SsyxSQZt6xbVhRT8I4imtX0TrissuUxvRP9JmtWCOHT7i5Sgf+08ifiJNGzXOhJ2gKI+jng8+9KiNT0z6mmEM8jgu8xrkqcPvRuoakKaZ2751m33NC15oV122wy4TcR/oqyl91klPlwiVOuXluK6R9iIuHbX20DF3iRcXyeXFGDS8vaUlxoejp5Ams7HxSfvinXfbw4/sszvuusduv+MOkbUpkfFutr+8LuwOnUO22mK8eTGvaqNeV983DPtOGXPE3PuzKbWG52a56QzP5RNZ2n6mXX/tNXbmtm224+KL7dyzNltvD8cwG+oNI8l4xo8DjAdx2owxY32ovyiNLj5HMQeQzJ56TzG3JFI75tPrFT7jj+9wMXp5PGTwgwJhX0fIVT4/1rDe+Ox4Ob3z4866dVtU7vERP+T9/u//vv/z+Y7v+I4mab3zzjvtf/7P/+n+tddea9/zPd9j2zRWjwc8sP6//tf/ahs3brQf+ZEfcb8dd911l/3CL/yCr13KnK//FV8JsLvM9dODg/HsxycDj0cH5u2v//qv7Y/+6I98F/ibv/mb3bHuTwV/8Rd/Yf/6r/9q//7f/3vr7e0tUr90fO5zn7P/9t/+m/3yL/+yrV27tkj9yoP1/Gu/9mt23nnn2ate9Sp9Por/9RUqVKhQocJTBCcmfjIMLmke9ZTZR4aM87ATlm3j2jX2jBuubxqXWaYJ0osvvzK58vQi7IRIcf3Z2NSMffJT/+rhaCvKpLFalo2ipKdcN3rlU9KJh0L9MsjPOeccO2P7GUGIVL1p7BYyqZMyvB8kFYMQ7aq8DHiIHzY3jwi45777vR6GUCIHroWWzHSAXRIPy/X29Nr5555t69cOSzfIyYJNTE7b+NiULcwvifzNigTKWFe7W7Zutysuv8K2qy88S4/2fMeF4eOJ6DLcISxf/OLt9tnPflbiF63eo7HvWLTGUtz0Px4Ujk5okv1r9RN9yzr39vfariuukGiIjjflxG/06FGK86c0AsuuE8TP796KOnqD+O3bd9COjYxFfY2zz5tq+Y8Hcuzy1Wr9bohu27LZXvTC59vlO3fYtbuusEERvs5FkSa17+1ICrId6FgEUxmuwyQV3WlfnEyxZoUgZaRkH/UCzOt8w0T+ePTDATt29Ih97tbbRATvtdGxCdVp+PHT1J+723ItI/ogl/nhukqeychOLEci5zR//f2Ddv55F9iu3bu1BreJHK6x8885U5+bAetWfY5yAl+76KPxkBDXD5fwsSNfzj8vgoIOdmMpy/hTJVyRmQg1vb+51hl/kGOgFj09QapXK7XpCQIPf+/tXdOUcTpA3oc+9CH7q7/6K/upn/qpJiE7fPiwvetd77KXv/zl9rznPc/+8A//0Pbu3Ws/+ZM/qXHs9zKnA/6x0Z/f+I3fsKuuusqe+9znFjkB9Pid3/kdb4Ox27Jli735zW8ucr+8gKh84AMfeMIJ0Ong8ejwhS98wX7u537OfviHf9iGh4ftZ3/2Z+2lL32pvfrVry5KnBhfzcSP74Lf+q3f0v+7ffajP/qjj2vNVqhQoUKFCl9uHI/4df27f/fvfrKx2LD3/PZve4IbhRQowpjY9e6anSti5XkFCDcNRYE4DXgdORpQoOUo42+dNiOicPDQYSdaXq5AhqNKUWcVH2M19SMCxeALeP369U0Z6OK+HOXKzvUspXs5FYwaStNrZmbWDh85GrsvhSwKJcEFVMWRnXLwUwffPZEjp6+3xwYHB2x6asp/RZ+YmPYHas9MNWQUb7NnP/eF9tznvcBuftaz7aabnmnXXb3Drrz8Ett15Q4RwUvssssussvlX37Zxbbj0ovtggsusIsu2mmXi7CxI8gOJbqxO1OriZyIWKTevpvqurd0DK2ImNXrPbZt6xbNRxBcai1pTcyInHq/VJedp0SPjDmIHFnAbxqysOjPiIO40H92k/x4Z2dN+tWtsdhhA4PD9qIXvMBe+TUvtZc9/1m244JzrLcvCBbHOF0/ledGJZAOrreEYHaqrU71hx2oDnzJh3xhyNMGunAHT+Ls6uA4zplhj9fxeWB63bZu2miXXHi+XXzhBXbu2efYjkt22jOuv8F279ptF5x3vl14/oW+3tev26B5G5Tx2m/r1m4UGT9LBP48zcFldv1119sNqnPzjTfZzTc9w571rOvt5puvsSuvUN3tm0Rmu61eE1HjeC56Z1/cSV/pzzhB6GKcVE4DGuNGWvqtcI4riLEv1mUi1yHJ5DPnBWnL+faZ98pBMBP+mVB6y2le9KrVuGFS1D0d7Nmzx37913/d3v72t/tuHnMAvvjFL9ott9ziu3x8Xs8++2wnCldeeeWK3Tr+YUFYjh49av/wD/9gDz74oG3dutX+7//9v/b3f//3/r8HuYwdu1Ojo6P29V//9c12Euym/8Ef/IG94hWvsHPPPdf+5m/+RnP1LN+9euihh+yjH/2oH6/+8Ic/7DqfddZZnnfrrbc60eCz+pGPfMR98lhjlEePv/3bv3VCyc4P40c59PjUpz7ldwQm//bbb/ddfeoODAzYAw88YH/2Z3/mYwCpWrdunesBQT506JDrQ9/o1wc/+EH7zGc+Y5s3b7Y1a9Z4f1arn2PFUXHapAztjY+P2/vf//7H6HAyQG5uuOEG/c+5zDZs2GAPP/ywyyatHfSfNtAHHdHnnnvusfvuu8/78U//9E9ejrliHWV5frRiFxL5p9r//fv32yc+8Qn/kY95zPnic1Eee/o4NDRkn/zkJz0d+ZRjXpH96U9/2v7yL//S7r33Xl9/p0NO0Ye63/3d3+3kk/XQjhOtHcZ2Nb2og+wDBw74/J1xxhmPWWPta6+9PmSbtH/8x3/08eNHjpmZmVXXBnWOp8tq63u1flaoUKFChacu2GgBK227EvH7NYifvkBJjONehREp9NZF/M49Z4VxmKQGZFrmg5VGZfEmR5DdLe68GDtpUY8vbxD1Wwpm2oqwjN9MgwRA/AZE/DbJQHBIHl/wqyHr4VZDjEGXP7PtgMhplmrqWNQLGegcBjTJcXSu1Y8kiTwXDcN9qbFgY6M8O23aFubNLr7oUnvpS15qz3vec+1ZInvX7L7Czj/vDNu4ftAGe7t93Lmur1uGvziLjFoe+t3hN3nZsGGtnXPB2SKA58t4OdfOO/ci27D+DLv//kectNZ7eCYbRIFjekUvXOei7/4XPiSJW/f7UcfixRhCUgk6moQDEhIEK4+TctSx0Vi2cRnZyMxr+LprvbbY6LShwY32PBHbr33Z8+2lL3qOXXX5xTbQqw4taRDUjv6Ma9gai5o32tMYakSbDiUj7MVpkbcCRXpEfC7KPiC0uKy5kOtSBNcp3SFlmzau1xiebTt3XGiXXHCeXXTe2Xblzovtip2X2JWX7bSrrrjMrr7qSrvu2t12wzW77BnXXmXXXn2lCPlO5YuIX3KhXXTumXbG1g02UNdYL3LXUPrEznGH32ymIWIcz/STCqwPjWEes0Q59z0Q4ZZjzeW6inFgDSpGtximtvItFyQxP8/FOgwR/oOL66I3HPPI58XD8vlcxg2R+NGnV/Wi/qkCwvHTP/3TbkxCOjjWiS6XX365EwTy2e1LQxjidvXVV6847glR4Tgd5TkO+nd/93f2nve8x8kiBjfHO/nxAwOVHSDID8Sx/Rjn3XffbR/72Mfsta99rZMM2rr00kvdKMYI/rEf+zHfhdy9e7eTDna7nvGMZ7jhzi4k48eD79/73ve63ldccYX93u/9nv3Lv/yL3XTTTS6Px2Ls3LnTdy9/93d/t6nH/fff72QFPWnzkUce8V0iSC595/gp8jDK9X/YyQoGP/3GGGcHkzH84z/+Y2/rePUhUNSB0DBWEGOIMsQNQlDWoUz8fvVXf9V3ZW+88cYVhj16bNq0yUn6+973Pvv85z9vb33rW53UlcER2u///u932eT9yq/8il188cV+N2TqQRggEvwAsGvXLp9Txpux4v8Hx4Cvu+46H/+T9f/mm2/28Wf3dmRkZMV8sXb+9E//tDn2yCePo6rPfvazvcyf//mfuwzmlR3M5zznOT7//LCwY8cOn+fE8cbl0Ucftf/4H/+j9w8C+tv6zmQdMdfl+hCw1dYO/fk//+f/rKoXY/yf/tN/8i/qiy66yNc9fSIPcsYxaYgZnwF+CHnmM5/pRBFyjJ4ceaZflGFsf/M3f9OuueYaJ7WrrQ3G/Xi68CNIe9v8aFKhQoUKFZ4+OAnxW7T3/E6x4xfF4l1xggPc1ELEDyMtjckySEsgIQ1KjEfANVchWeVkfHMUcWxkwmZFrkKWiJEIjSoYX7M1GZriOlwFZZ2LIhCdNfOHqHfKEMYY5plvkhU7JHHksLe3z38Z5vol2pYEN3gxwPXm/WjXO0F5yoTeBLnWbl4G0wEqUcLLeXvyuQENdAMdOW1HEc9L+TLU4xiqfCV1iQ90So+56QVuUGnnnnO+vfKVr7SXvfTF9uxn3SACeK6tHewTEeG6ubi+jSOHMWZ69+YL6iMFuYlIQxMKoUCfDTKGL7rwIt+lOuOMs+3ss871xxocHRm3vl4emQG5Exkrbi5DP313zQVzfLNThtuw4hwPhBh1OTmYFJGjbhPUo5r6hkG3zGMBljSfc9zBcsZmZmc0H5qbzm6bUl83bT7bnvPs59jXvOyF9rIXP9uuuUrkdN2gykApgljEiAouWH1lbJ1olBsOeAoKsTMpL+oW9ZpEKuol6fa+Kp3ZiLtnkief/GIMfMdRcy4e6NdhrhnqlxuwLSKFZ52x1c46c7uduX2bjLyNtlH6rxnsFyHSClN5riXk2ZRcZ7iwsOzXaPoD1UWEZxc0LvNcYzXjx0Ln5+dsbn5WYzXrc8iPCxyzhrRgFBOO+IzHJycmRQpIn1ParM0onV/w2U1CBm5mZtrX6oLa4Zd6Puj4/Jiz2GgojtO602eXzznXKjox9Y9m7NongS+DMeNVr/fHuJ4GuHYPogbhe+Mb3+g7RRiiGOvsfrCLgLGJUU1/IU+UKRO/TOfawBe96EVu0LOT9OM//uNutGL8s5v3bd/2bfaWt7zFr7VqJ33MPcYtcjH0ORWA8c4OFjLYXcHg/pmf+Rk3iiEAkAz0hBAwLxj6EC1IDMSOo6QQQ/Rl7Nhl4tgfcQgm7bzjHe/wNmmPXSx2N9mdw5huaE4gcZBXCBltnHnmmU5QIT/XX3+9EyH6wpFUyDLGOjpAclerD/lrHyt20L7u677OCVlZhzIgKKyznIt23HHHHU4SmC/Gix3XMugP/UQ2en7DN3yDEzf6wtj80A/9kOsGQWQs6NuLX/xi/z/NGmW8ICfME3V+4id+okkE2/uPHNbwavMFoYKk5tiz2/Xf//t/d3IEYWGskAH55LMAaacOu8C0V/7+AscbF+qhG0Tqda97na8JyCYEqUyo6ctqa4e+Un41vSCT1OFYNASdsadP9PM1r3mNE0jWLmSZzwBrkHoQZNYP/xfKY059fhCACK62NpgLjqyupgs/ZLS3XaFChQoVnl44HvFb+Y1XADsvjT3em+HCT7STQAxFjHnAlzlGOLkQoiiFgSmnL/C6yEa91m093XXr7+21/p66PyC7r2dAZGXAet3vt6GBHhnj3X4ksN7TYbW6nOQF6ZL8wpidl+GLYbC01JBRG+TG23d1VFhh0ojGTVxid8PTMt3DHDlUTBWXnCQFGWLXhX50ycEXGDj6FGnsOqqPLqTlILB93T3W0yWS1Fiy4YFB++ZXf5N979veaq//pq+3m66/0jYM91pfbUnjEDt7Lp/qajd2YhadzHKckpu/4Kf+nSJotLnM3VKX523rlrX28pc91173+m/yo0hv/rY3+x0z50XM4Er1rl4RNo2tSHK9mwd2qy31lVuqLIq4sc8mGie36Ne2BTeCtEOMaAM5IpzzIiYzozY6dtQOHj1sh0bGbHRiXvr2Wlf3gF19zQ0yNN5m3/O277I3vPYb7GUvutEuOGuj9Ti5Z47oU1yHF32LNL9BjeTPFYQGNy2HETY1NelucmrCHz0wLqN/bGzCRsbGZXzLjYzayLFRGS0jhX/Mn0k3OiY9ZZyPjY3IqYy7cTs2PhZ15SZEsCARE5O0MSUfNyHSNWHTk7Q/o3YhY7M2Njmrvs7YxNS8jctNStcprb0pGbLTDemuPsxpriHl7O5xTLVba6Bb67xWr/tdUTluyk1l8jgqv6hz4xvK8CB1Hp8Ase7pYb763HEclzTK4zBI+XGh1iVCTzsKY/Dilz+X+E3nKxayitP6dhKoBF//LNoAP6aknMcDSBOEgB0cAGFg54ExZscO0pb/kCAA9Od4RxDzGqqyAU5f0I25OhEgmRz9Y5cIAx9HmDTyAMZxtoEOyMWIBpAmdAOpH8Y5Mr7zO7/Td5XYkYr1y0CaG9Y59u2AtLHzw+4MDuKCkQ98Dchl3xKEke9k/gT1QXmsyjodD9/7vd/rO7PtRx3ZqcSxKwvJwPjneCk6lIE+1GXdgRwr0NfX57qX+8PRTHYO2RlEf3Y6U8dT6T840Xzl2COTOhBjds4g+l/zNV/j8wlhYmcMXb7lW77Frw2lbBnHGxd+KNi+fXuzfUguoB/tON7aOZ5egB1pxgBASn/gB37AyTGEmuPQjDdzm2X4f0Bd1gRoH3PKJ9rXRrrVdFmtbb5vKlSoUKHC0x+Ptez0pcG/eL48cNCb/CLNLxSc70gVZcjHYTxSzu+kqS+KyOeLG0N4UQbhYXvowT22d9+jXr5Pxmw/rtYjaqo6MphrIkmQvrVr1tuwXE1GM0b39Axfzj0ydmUI1zGOayrXLe2kLYZsI25MQoeiXQWUp+alL+oURE+uyCzKhSt/sRGE0FGevAS7SPQdtI7PtWTg/Ogp9SWkWwZ0V0eXDfUM2de85CX2g9//Nnvda15uN15/mQ33awyXZq17ad66IKvopy/quRmRnqlpN5IxKDBu8TEauC5wbFRhERB2hUjHBWnBjdjE+CHrWJq0a6483772Jc+y137jK+2tb3qTvfyFL1WbwzY5Oi3uxY6qCEmnxhBCovCxwyN25OARO3zgsAycg3bw4CHfkYJQzy/wPDpuZCL9NE/Tswt29Ni0HZS7f+8x2ze2YGdfeLW98lVvsje/5W326m/6JvuGV7zcnnvTVXb29rXWowHhxi3svjY4+yhfK0ljybV70qW43i127cLPdZbX8/m1cZ7W5WsCx6Mt2F3s4EH2nYS58Uqf8npldIkkaV3VKevlijIq26k11qW8GjdqYYeS6wnleHSJP0dP7WMgcW3estqEwHGn11kR75lGTQSvy93MQoc/p4/x4REb9K9DYxnGGW3XrU8kG6PLnQyz/n65vn430nguYJ/iGIZDa4bc76PcQL+TpuG1w7ZWbmho0N2g0kinzIDKUB6HbIxUDME0oCGQTi6li/dF/cg1yufCP6us71jF/mINxudAThlR9vTBbg3HEjlmyP8Djtfhs9PD7gJEHMMf8odxib7l3b4nClzDxXhxNI5jcTjCpJEH2EVkJw1igS6MVRr0HHPDKIZYsBtCOmPMMT+OLL7tbW97DDloB4Y1/eV/CUQN+ezEveENb3Aj+3SO0D3e+mUdTgXs8v38z/+872Syu8xcMkft64GdIK7VgzRAPiBRjOfxwLHfCy+80EkVO04nI+6rgXlrny/IWBl8Hjhyyvi8Sf/7uDENYYgV+nGskV1Kbl6Tu3unAnYfWctcv0j7/IDAWkJuO1ZbO+zMHU+vdqAXP06wCwpBZZzZsaW9vIYUHwLL0dDTBf9/jqfLam3nDzUVKlSoUOHpjWAvAl/qGH3+1e4GILsCGLO4NAgLKMxNPDDmcGSVy/g79WUM88XHL6UYE/v3HdYXypgdOnTMZmcWbMuGzXb9rqtFil5qb3zd6+273vIW+963fbt991vfaN/15jfI/1Z7+3d8l739O9+u+NvsG7/21XbdVc+wfhHDedXv7uixgd5B68PgFTEYOXpMjbJrhS6QqYaiXHMVD+p2/dK5jpG2mkGEocxxR9AyeIp6AvIyvTl28iHE/T0iHhAKpV2za5e97a3fbm96/Wvthc+72Tat47bq86q0oDoNr+M7NoiWGt0QHXc8wkGERCQE4sNUKSSduMuodOZp6t62CGR3XHMHIea6wP56p63p7bRtGwbsxhuutDd88yvtzd/6evv+d7zNfvidP2DfKqPx8h1XiiDWRTKXbXxq0Q6PTNuBwxN24MiUHTw6a/sPT9uxiWUbmTQ7Ntlhh8fNDo4t2+hMty3W1tsZZ19lz3neK+xb3vhd9h1vfbu95jWvsq/5mhfZS170HLtyx4W2fkCko3NWfWv4UciZuYaMpdh59EO8HNcV2WruVsn5A93VV/rCzljTKZ6Epq65rtV7raYxrolcQfI6ReK6uvusqy7S1yMS1L9Gxt+QO3Y4/QYlInsQvs6u3iCKHd1qF4KmuYIgyseoTwKFo20J9z3QZenqzg8g+4FkD5NGGeSZSKga8D4xr7k+/LPhIYXZaSs+U77r5q71GUvnxzGbYfK9tssIsbyFfLxsK1Gum5/jSI+yrBvfISwIderblKNy1H88gIz84A/+oF+DxhFICME73/lON3wxgDmeyXE9jplxdI1jaHnzkicK/F+CGHC8DmM5QZi0f/7nf/Zx4Vo2DGiO9XH0jZ080gA3/uD6LG4GA9nj6CHklbLsiLAbstpuT4LdOMaC/rEzSD3cN33TN9kLX/hC/5/IDuip4vHUb9fhVMC8cH0g7XCslKO7EIDyjh7gaCXzy6MeIA78r2eOjweIEySS8eSGO+1HT08F/EAAMWEccr7Y6SuD/xP0F+LKMUzKxA8tfV6W6924Lo71ybWf5fVxIrBuXv/619v3fd/3eX0IKORxtbW72trhOOXx9GoHZJbjoYwvO26sNUgZR1khkswLdzilfcj06YK5PJ4uq7XNmFaoUKFChac/mg9w3/msm93QwwgEYSBGYO1Qv9104zObRiEGE2F8ADlJI5GHPxOcl0yuh5iZnpabtbk5HsbdbTxygbshbpUBtVUG1rYtG2S8DNvAADt9MuxlQ2P0uiwMURnSszzjTk2NT0zbkWMj9tDD++3ggYP2+S/cbp/+zOdkoy7oCwuC0GmDA71W763ZOhlEPX29xk1DkFaIlEwIVAu0kUZylMR1uM6f+ORnRTT4pVuGv/KljTNl+qdazfLdNSmtoO+sQF5EBi6QsfWC5z7Hrrt6t1147lnqG9clMm7qiLgCMpw4KDo/zwO2SVhyGUhf8mvP5Ksgxwa5a2ZDpInHCDSJg/LZmaT92KXiGKz5sVGO0sIkF5Y5Vik5ThSlg0jixMSUPfzwXnv04X02PTNnk/Ma3wbXh835ztXMbBzjghhgIHTWup380BaEaHBo0NaLwG7asN7WrhkSWeqWPg0/qjrQ3SXSqblQH5c6GzLAmU/6odET62N9OdGQvmjU2clOcsgGMaYE0o+3wnN/YalT48XOMsSGXlI3SIvPkbrOtZKMHbvPvuPMzV0clFO+3mocc9XYeR3pzrFXb0u64nMn0lnNzdyCSLrKeLqvfUgTzxeUfH8FXAuEM6nyCHdDZFUbnfxmO8yrl0t9Al5PaH6O/C3SAEHvH75ecV1e6OuFo5raic9fygHlMIX9Y6u0aJO8pTh6y3Hboi474+i4ceMZzaN8X21g9+Z4jwfA4IVgPJmPYqjw9ES1dipUqFChwpMNTgpiz+WP+80f+VcSP5mFhUHeDMsf6u+166692o+PuZXppMTlBhR2W1mGODf8OHTwiB+fmRgf9+OCfX2DdvXua+3KK66y7du32I6LL7SN69dZT50btyw72WNnyE34ZYzMlqEPSWpwjBPypYaW1fCiTOk5EZZ773/Evnj3Hrvzngf0ZftnKr8g4tcjvZf86ByPHRgYimN0DTdqNQCQDHU+yBN9oSF2CBrKw66PHRKeTXfL5+4oiJjgA5IdJdjhxj+bPTWRU/rOrtXWrdvtRS96se26fIftlhvs5Rbica0F+ey8zKktiBwGOMRoYUG6aEx76x3WJ527RLKWRBDpL6RmjqOWsxy5DN0gHADuwKM2eusiZ6qPc0LDkcWiL3MiPU58YI3SvavO9WXcLbTL5xb+MOc6zIuAzvnNSCZmlag26C6PHvDW1FguHMjF0pKIvHKgL5SD/tQ1Hv0incMi4TXKeDnmMsgI7YEgLcy51pfmyheiXrEo1bTyYpSjjhMROUgvRH5e889RKx8GubjFDWsjypIBiUMuu86MV+gQaU6S1Va9C9Le7WneIHp5sMOPJs+L+HECmXZpCtBnJ6qac64BhTC5HoXWcW1mlmZORP6YF67flJqq1WpPbxyhok6zDeqit8tV2OMksd6kmXw+l8hlvLxPGZdeSdLIQw59DX0VT70QSZwg9ZWA7w92V56Plxx9XLt2s/tfjaiIX4UvB6q1U6FChQoVnmyclPjtuPkmFcNIDKMwfvEPYxLid+Xll9ng4JAMUhmHlHS70q1XB0bj5NikjRwbs/GRcZsXcRoU6XrGM260Sy6+1C688CI7+8yzraeHo5BdIiyx4yITVwY4OzDIxUAvG5kY0pil2VZhuHLDEUiT9dr4nNmeR47ZP3/847b/wAH7l49/zPbte8TWrulzmQP93b4L2NPf70dyMJLpZEMEQpxAA6G4xKJ/HmvF6OYuiV+8/W5vlzTIEumq4cY1pI/dSN+ok6Aztmy15z/3OT5O11x1pa1T35Ur4iHSNh83WvDdM9Udn+IujxAE2sYA5y6eIqsD3XHd4lKn6zMnHRZVZkmDzTVm8yIHoUOSJp4PWLc+jmAtQy5jfGJagnSxYxXHccOYV0U/ElqDUUkW/e/kWREC+dwFsqH2OZII+fH+SxY7rklGkE8+iygIhsi5yiK3rjntZedR6ejtN6JBgldS3FuiLfqhmPRArUYD4q163dyFlBpKpLDCXL9JHyBJ7PTNL3d7PMdCqnjRJCzR/ZizIIvRf2T5jqzmDRIFpUWt6KPql8aJ4ktO0yBXtMNnIz4f5CWhomzzw+TCyI/nkBGnTxA+dmJZ60n8mHq0hpTj57FiZYYcdOClZKIhvyDJzJnapl3GwNew0v0mQyyKEON98h9virIOBMqRFgNVAnmFF+10Wl/f2lbdrzKwnjieyA1D2vvIXUXJJ8/no0KFU0S1dipUqFChwpONU9rxS5BBYS8oNzzQb5eL0AyJ+CVBcsKgPHY8+JI7eviYjYnwTU9Mi8j12LXXXGvPvOkZfgH55s1xtzU1L4N42Qb7an4csUskgUcXYHJ1Sx6GbkPWKGSBXSG14HeuDKXk3CLFiBYhUbgh0310eskmRP7mxcCOjU7Y7XfeY3v3PmKfv+Vf7bbPf8YGerv8RjC1nriJht9MRI47LGKc1yFBNY4qxpFK2oBA8OX94EOPxm6jmvYjgRo05xroIUAiLrn0Crtm9y674Nyz7OpdV9imdcO2tDDnfaIeO1PT7OipjpMByeA2/40l5TrpUx/13t0lQ6Ff+tS6nMPNSxfmxXez/NqxTidXGPrI1YDqTWSy1uljB7kgjXYgEWgIqeAYadzQhkqQI0gJxExJmksn8pBY1eX6Ot95WgziybxqiUhnUVjJom364ERDtDtIFHUZl+gfWeii1CAePu/kcRfKJM8MoXIprPo8dmC+saBE6dXV7XLoa4wzxIXrGlVG+nB946JfY6e+NGUxvh7yhc1coWP2Z0Gyfdzoo/qC71uJ9D1BG5KPXi4XvZ2oxthEEdWXbuhCuLwT5j8oCHwmOn0XE7IV7cWjOSRJxA3CzZgm8VNNlxUu2sC1gLwYQ8Y8Ulr6+DgW8LpFmAHxnBWyCjRJZniOLC94suvRaf3969Q+i6tChQoVKlSoUKHC0wEnJX6XPftZXhDSkwakG3yKs+N3xeWX29rhYTe+IU4YrTxLbmx83I4cPmKzk3MyspfsvLPOt5e88MW2a9du234Gd1uTsSqi5kcrO0QUZLP3dXOkUQaxxIiDyAaXgaySPMCbY4dpWPtNTkrWKWkY5TzEnAOf8yo/pgqzkDMZqV3csEOv6ek5u3fPHrvv/vts/8H9foe1PQ8/ono1vzkIxxy9fQiQ0jDmg2jWYodKfWZnaYLn7onwEMfHAB8aHLYLLrzQtm3dZhvWr7MLzzvXLjj/HFszUBfBxBCH7LFDxQ1lIMaqG1a+608BrifzHReel6c8yEJ3rWH9vZ3WI31MpHBB/YBsQQB5+HgY3yIlirscN9Olk2RxxJLr64KgaV5EpPKmO/QJ+YTRf2FxXuWW1I4Isdpil2tBOviOk4ul77FLmGSp3i1CKvm0CJBnHTFHENnYZaJvpBMsESLKSmaU0zgX4xvHITtsXj7rKGUvL0EeRSSdzEUqj0SAiFJOglSWm6xQON7QzJ3aiofLB/FDF8bL2yvapQy+0xz5Pq4qR5s8+460vLEKGcxPkH76oRT6A1x8yIpxKpLl19iOFvxDRr8hm6rMUdwgfsycK9+U1/LdW4GceygvoN3joT0nWlmJ49WmHyDmN9ZoRfwqVKhQoUKFChWeXjgp8bv8uc92I9F3i2Tk8jgCN+jl98mQ3rnjUr8jGoQAg3BuZt5v+az67nq66nbjjTfZdddcZ7t37bLenj7faZFZjNQwpNWg7zaJF3SL/EHgukVa3NAuiAo3AsHHWHaD2Y+3YUzH7hLgQeSY/+I4Nu/G6lLs5JCpNHbpuvzIYIcdGTlmd99zr+0/POKk6NjYuD300MN237332KjyeDg2umGg1+oDThzYQeLar8HBAdukPm/ZutW2btli69YO2ca1/X7Xs3Vr19lAf58fU9WguXOCJc04ljkzx3PtpJHkYuSzwYSe8Af6wdiyY4a+1KvXuN6M8VEfEcduoMpA/BboKKI0dpAfJ+eS5jt97PhJDjcRId2JH4RxgbuaQqw51hhkirFfXJrzQWKnkOfFQSI49prXwvlOqpyPiUqyUNiFRDfg8yhQjhBzg3Ixz0hmjmIOuW7RS0cVrZ24KQs7fE50WEcLQTILQdKhWbzZFtd1MidBTGgrymoJU0hVaScWN331Be4pKUlyi/XloGmV8ZfGkBdorlWUUFo8qB/ix1rks0ApfiAgWzmul8qjg6fxxnzGEVknn0WiouEyJZK9nPueoAaaKisQi4ZC4bUyH4PMKcQ25bYjxmB1OTneoXb0r79/Q/S9QoUKFSpUqFChwtMCJyd+z3m2G3tuyMrww+bE3INO9Yr4XXzRhbZx00YnSiMjozY5NmNTInwcB+R5Ti998Ytt587LbMOG9S4cMtcON0X1xnFP2dROKCBsvjum8nFTElhPkD5IxGJx7Vq3CBn3X/TdCPElDGU64EcXpSxkyo8HqiwEodYdsmkPGtBY6nKCMz49Y4cOH7W9+w74s5A4isluHiStk8cEiDgwBsjrFatbu2aNXxvIDWKGhwasp8a1aIUhzID67g47kRo7BZHD8VdukjKv9uAqEBCu7xL7kK4aV5E7dr/8+XTqA21BIH3sKcvYE1a6VIvrCFVOUd/5inZF+OibEpHhhr4UgLRRZ35BRIeeKw4Zog3UhpTEUd1iAVDP+9JqHx9A8CEvEAGcp3txvXEdoOLerFLYjfJdPBYPO3IKowFzwfwyxovLPDxYY42C3jZEsJCLFGSlPgXIYY6Rk3o5n1YQWgY5c4Ipl0cvIUjQ7dAfPYNcel9p10sRLEJFWhJIJBDnOYydasyv5yzKJvnCZ+wLlVqQDL9zK8FsSFgx1iU05bbLoZ1CzuMB/V4VEst4ngjJV2PHryJ+FSpUqFChQoUKTyeclPhd+exne8IilizGviw/jGvuEtlXr9tZZ53pu2Ds7vE4gNnJGdu8ZYu98AUvsN27d9ulO3aoWhAxgJiyoevkRMY4NiRONqWIH3ejjON/5EMylpbnxV/CoOYxBDyOgAh6YORzt0iOj8ZRQSDC2BmPQcgOYkVnBxPcbZSyGOswBx7Kze6eCjnp9GsXvTgmPZRJ8J028gvioLbZFaIneU0X707u5HhOnV8vqPa5ji92s9jvQ3+u46MPGtNaMfhyTvycmEm29EeekuC26qP6L90WGB+REI7G0gvyva7CkRIexEXF/UYsqE5YHDvGQkXQGaIKESqPTTtCD/qInhLgYx11gnzha45oNKLQWt9p9c07ac+cNrjrpdKo43e/5CitwkEQ5SSPPpJGFDmpV7QT4pP4efukML8qzA1k+us9Pt6+ayhQBgl+l1PmWrFoU/PnOSBkR1usO9YMueqFfOYE0AY7m16uqEoZr6Wx5BWSVsLHrA2QqEKsI/sHPLmIku59QMYqck6GrB99XwUS6WMo5JjGOLSQ+lfEr0KFChUqVKhQ4emHkxK/q5/7PE/AyIb8YepBtHD1zpqtHV7rBurs/Jz19/Xbs2+62a66apft2nWVjMMBkZO4JiwawZgMYxGZEBt20nh0QxiV3BgkDHdkYrSncRk3i4EwQRbMFpQGIWPniscmcD1bJ7eAwVilAzJia12LIlMicSpDW5AzjGYvQ32MXQiJ+sbuIHWWiqOUyKCAkxGKy0si6nkFIovxibgKKCGIcmMBwgP5WLbuOjdiyZuz8Hw82uzwu3XybD1/5AIMjoYEdAyikYLpU9wFkmsDIXFzIk+MKdfZlZHqJYkIWqTR8f4wrtIY415j6zt+3pbX8PIng2tCeeQzgAWQJ408nRdtseMpNUX0FJfO7L4uqg5jSXPoCNn2llXBfcnmWYReBijRR4aytAlUhpDPia8RxbqWfDeup5s7mtaVovXS4Gir+uuELOTEHEaVokWBtdkMeb6TMk8IIrQCqUcBJ35ep63cCjw2Lz8P0ZvHouBa0QfJfrzED0T9E+kXYExXL0u76FERvwoVKlSoUKFChacbToH4vUDFoDYymAvjmeOVfi3aEoZxp61fv9ZuftbNtnPHDttx6U7btGkTsv1mItzKxO1FVXQzEmMSo1kejUHI4nl9EEqRtW6OOUJTMPIxQNU2REpVOf4nkf7IA67hc0WVjj5wnx4RvVo3Bz8x9JGZx/hoVgmSh61KrdwZZAcM4kd7TpDYsaJsoaerSpjcJCJEi04RJNQs5wkQvzCgqUIpjiqytwUZ4no2Bp1dyrqIKbpT1U8kUr/lNfXMOGSR6/WcWMKAlcPjIFqIfnjIPd5omR0/SDOESmWkgxM/jb/v+DEwRT2U8R0tUrJ90lIJJZGObugRxyVVRh1YWERO3O2UdK5DhOTiIO8+hBCXon4L3lqhQfagSGMdFH0oOqUweZorxdEN9bkbLNc01or14GW9vBz6U4O+KpQ7sxz9DBT9K8oliLEckONjUWR6fZcdSI2blRXN3Ja8Vijy0L0gl8dFIUVerEMCkRbxstTjY2WvhNS9mawAfSxioBDfRDMunfsq4lehQoUKFSpUqPC0wkmJ3zNf+hInPBx77O6oeybH9Or1uu285DK74oor7Iwztsm/zDZt3qRyMoExIGWsQzDYZcKozGNyGK7khcGphuS70a4Az+/jwePd3Z0y3uP4o++kSMaiwosimg0RC45K8lw59EBhrgHkSGR/DeJIJXUI+bgC3inJoR3gRwyl2qLiQSwCHEd0pYQ09ONYHyQjSELZOA4ohTJqNA3sICYFRASpiTjSMa/J9b7JZ2xo0glGG2LXK/JdH0UbrjtakK6x5WhqEyu1i3KaC3lOFlXfd/w0hoxdXOMnEl+QTvTJ/nMdm8tDP4Wcfi2xiynnJJLjpsgTLVcxWlpeCl2Yk9jdUznlxLFZ+hIoJDsY32g403mnzRgr1h/Xx3l57w9lNFjoh25yzH+ddeQ3womaLqXIB6R6q4rneuzy6+VYk0VZf0UbwImZipISYym5ivtcMaghZlV4+RBcpDwWqVuiPe4t06y3W+QVfkY5tns6CHExFyGj6LHPd4L2yoIZxwx2Wm//Rl83FSpUqFChQoUKFZ4eOCnxe8YLXyIDnjttdNj6NRv88Q3nX3Chbdywwc4640w788wzbWhNv5O3IClxAw8MXox+bGOAYLcuZUw60aIRRQvb3Uket7R34ldnFzCeQydaQRVVRR47f/FoAh4R4e25TLMe1at3FTt6HM3DRxde0oP2/K6MVFH7TkoWl2zeCUTLqObAaGiGHEgV5EgEk/qR6vquRPTJB6+ZIrkCca9XMqqzLY4igoyvNLQDMaZRBiLtdzot9HWnMMOU0pEAmc0wfSMAaYP0sevHEdTlBSad/gVp7upE/yBE1KMaj4uA1Hm7SltgN1T9bKZpHvJaPK9AXXwB3QhD1yIFlLUEjDR1JZ0+0J9mGXLUT4VoK0aWvnuW6+nkTX9xLSRHhhUW8YtxZBcXmSxor+rymzuopAm+xMh0SCZeK+p1VoJMxl/vrnd7fgvlcVm1VCk9m/TPSRPRVvwVc64U/xGCRMJymrpAeyMpFLTlxeiCLITsVtuRm4IDzbF43MRv1D7xO//LPn6kiNpaO+/aq+3GZ+22reXfLkDjgN3y0X+wj9++32Z7t9mOZz3fXr5ra5HZwoFbP2Af/ugeSV5rO77hVfbyC9cWOS3M3vo+e89H91vvtW+wdzzv8ckI7LGP/MIH7M4iZuh13TPtxmecp5rgFnvPiz9uN/7tO2y3x59MHLCPvPPdZj/8bnv5Y7t8ymiNTa9tu/xGe/6LVpmrrzBu+dUX2Mef+ff2jmul34feZe+2d9kvfN3Wxyz/x437PmK/+GfNWW5i7bPeYm95RmltHLjFPvBX/2B7tJ7XXv6N9qqX5Tp4gtC40/7hn9fZ81dZs082ctzfrXE/PXz5PiOPX6cnGKP6P/Fn+j9xiuviwD9+wO7Y8Y32/NNQ2/+n7dlt7/iGHfpkVjgV7PnQL9oH7lJg4432lm9/5hP2WV3t/9ETswb1P/yH9D/8Rx7H//ADH7F3/X9m7/qll9vpazJrd/7Ze23/7rfY888tkr5MKI/d7F0fsPc+stve8qLzitynME44vtg5H7HeV7/edg8WSU8xHI/4uUXHkbk3vu477bve/P32ju/6QXvbd73NXvvab7av//qvsxdzt87LLvNHG4AgAyIUIir4bmAXRjbwXUMZyuFjwBdORj13d8S4x5DEtqR+ErMoI9oiGxRzt6tj0bq7lkX0Oqy/t2a9Pdxlk0cQsPPH0UXsUrULwUyjVjLi2CXkEUKD2cshP66t61anw3V0xBFWtyDSIQMdCDpaoTLS6CC3XMKNdXeQGOiXnMYBn8HOAaffLSktZH3GweNykJyoW0yYlyO3aFkEjWvr/Lq6RcZT9d0paxHyoz6q3pL6ynhwo5iG0mfnFm1yet4mJmdtXG50qnDTczYmNzGzINewKZWbnl+yWTHJBc2RPyoCUi5Z7O7hGmoMH+qQcx364VxjD3uMPhJXxMt6Kod7JWEZ0s0RTm76o7nuqVl/T7cN9tVtUPO/pk/hni7r1/zncwW5WQ6Oo7T8oJAOOaRxKWWmMW45xj6GK+IktCPSoj8K4xFqr6N0Qs305jyvdHpzt1peurJOeivGJ0AoRqyVVsZx85pNF+3olWWzfDOvcF86Zm3PX73L7hzcbbuvxW2z2c+8x96w+632gUeLIsLsre+xV+1+g73nvl7bQbnLe23Pf3+D7XzNe+yWyaKQZN3yczfaN/72iG3zMn328R+62t7wh3sK7ROj9g+/8U7b05jVl+h77XMrMo8vY3WIjP7IR2zk3EL/y9fa6EffZTc+/xftllny9Vn56KjenxoYffRBG20UkdPF5C32i19/vr3hv++3dT5X+jK+nbl6lb3n1ie3h7Oj/9Dq1+Qe29NcE08Qjtxi77q3t1ijLXf1mSUT+77/Za961r+3O9eSt8Pso2+1q7/1A1ohTyBqO2ynvdfe+uZftE80fywJYGC+60NPaGunh8c97l/Gz8iXYy2cLh79gL3hurfa/8/ev8DbWVXnwvhY97X2JdkhAZKAykYtkB7EUKgStF8JolyKFBCspPr/NNgqod649BRSeirBc8TgQSXoEaO/vxo4BwtWLZfWEr62AvbDEoqWgFY2CiQ7IZd9X/e1vucZY853vWvttfdOIl6i81mZ+52XMcccc75z7Yxnz/nOd7Mcp/Oi8C+XY17cLjP9RiEWLz9ORm67VC79xCP4bbUP2AWn86LHZPkZgfTtDxa8Gt/Vo/bKvfcNvaTz7+f5+2jk+aED+x1eG5Gh5/dpNnXBiGz99r2yZdfP//d8fOxGtm6We3/wq/P/56yYbXxLQ/LwfQ/L0IEO/y8RSvz4WoEL/vAs+cPzzpS3nvtmWXn678mrXj0oPT1ZqTcqStDoQHrHnsGe47I44Z1GEkFdJXJySsR4JRmEHEmMHcACfayv5UYUmanH50MP6RpXp9Igfzy1M5tOKAnkqZQkfEo14OB3rlbQHH3vGxxw3dfIZ+syGcmTTKCfObTNeCbLZ+ZQnAHZ4HksevAMydUBOr6u/1xZMqpJ0kdS026fDmQHdDxBgPlqDI6XH2OuwFYqFYSqlKt1KVabIGMNmQAhmywhPVWXUrEh5VJTKmUQu0oTOqCnAkLNlVISNTTPF7KXoaNYqoLY1RDqMoZ6E6gzWW5KEfJ8cb4SQ94GEnt9xYYmaCHII0h+EiFRQ69A4JEbD0QncdA/AGj9dug4eUILVsbXJWSyacnlM/oS/Hw+KQUfQPYKWdwzkL0cZDMkdRxjBCN1TcwT3EdP8tyV6TTa4UzjHxI6oTmQm+12+/5EgZ/OPA0ke/zjgkuT/MUD85zO7rBSr68b1NSZypE1W902dKvu6lr9fdCxjxhcvlJWnsZwtlxy1Rfkro+KrPnKFiuE47T6ooflwm89IF/4swuc3AWy5vMPyD3nIx/ES3+f4j+MjdeslJs+vVrOpsxZl8i62++R1S8rCN9IGWHXZrn7kStl9V+skdXLN8mD/x6757PomPk/nwFZdkrM/r+8SzadtUnW/zKd8Jccw3L3ZRfKY+94QB74/Bq5IHavHnhwjWz/yJVybwcR+bXDy05097gVlkfErySbP3+pLPn0XXLt+TY2qz/5Bbl21zrZ9LgTeYmw+LQr5AufXy2LJzq8iF8FkhMwDY98aY0UbrxL1r/7bJ0Xl3zsFlk3sV7unm1eDBwnF/zlF+QL7xyQvXM6i0Ny+0dukiVfWScrf0VXE35VMXAsvqunLHtpV+V/LbFYLrj1LrnipF/snxUWn3+L3PXh5Qf/HzPyy+WKO2+RC4506YMIcI/N1SsUMuBIJC4kY879o+9E0saVPRISJXogVQhK4yCEqNvdSOE4FbAta361KwMC1pPPST6XhVNur2XQQIcT0jRFD0ahRZqHuoja1kSEFJ/zA5niQS6wiZwvwUNnWAFx3d6JGsjRj5pDUBYXXYljJdrGOD9K9OiYI8AWPciD/9g+gofV1xq42kNy3tnXcpR5sqYBFeLjoqufIHYMjZq9045krATyNgUiNjlZlfGJmkyAkE2SzIGMlUDGilxxA9EjOZsg4StZmFLCxnhVphAoO4VAQjhWxJV6yzUpVUH4QBZ5LflrpSGVWlKq9ZTwvXqNRAYjwlUgBlIk9A0TgGOlh+/4cdNB0N6wU1ZD7wPSGjgjWGaBw8eTN/muRj7HyYN9shmu5IHEabAVvV4U9Oez0o950Yd4Xy4pPSDi+XQTRA/EP1lT8s95kGIaIZusItQlAwKaQVu8I+5OukALYA+fF3S2u7tn8wbBFovNfvbagn0h+IcHDZD3J9v60JLlqjTkoawVR13V4WTiulkWC1rWFmA3beL0RIjX1RmHtB9XW1W2EOl3ttscZ7Dvoe+j73e8v5rvrz5oXTRCIP1SYuDQxTI8vlfjW+5YJyPXrJNLumwxGXzHOrn22bWyMXKiRmRv3PntO05WvmFx238cw9/eJI+9C047/rtfee6JctO3vutKPObWMReWHDkoIxNFl4phZKvcfvWFcvqbT5fTL74cdsfpJLfT3CCXsuzNF8rlX9oiww/e0LaKM/KD2+XKi1l+ulx42YZpqz5tmNgqd19/aaut72E8O+7T8IM3ufZOl0uvv1u2zkQcHt8k63ZdK+ve0WXLzaKVsvZOOJ2LXBrjt/WOK+XCWD98L7mN56Zvb5EN7/F92OhWbEGcruPKoYpF2PLZC2Xtt13tjrHb8J19+/PprGO26xG5ydly+ntukHufdfkzoYa+fXezbP7u1o6/um+VR75ygaw4Pj5LBmXl+Qvk4a3d/wDAsdjwYGssLr3+Xl2Fbs2BS+WG+4actCHqy9kXypU3bor6Mvytq2TVxx6Whz+2SnVt+B4z75UrP3K3bPmO3WPNA2YbjxEn27LHFUzD9Lm6t0N2v+ZqG2aeP53QMfzeiDzyCTfPMWY3zTIv2uf75vZVN8yFDZe5+aVzAfPtPRtki//K1IZlc6ydG76+dUa7WoAtR66T1W+MU4sFMrAYfZqxcqz/71orN3195v4TQ1+5UtYtXi0riw/Llmdnt8jGa++s4zXzfeOW3A2y+Skr97+XOGfeq7qmzxlu1bsh9v26+wettnSF+muPyN3+O43yzdH3j23dJJu/t6FtjrX1brbfB/jd1/Z7FnPkwIB53jEX7X8lYNbf5TNjv74X3X6Hd2Cff4c77HX3T9u/+nZ5Mj400/rk/w/jFtPW7xD+brkKv1se+bofG3wfvt3+u2pWxNuZ5bvEOXL6Z9wfgN3vs0eQp236+xr73ur/J9OHqCtsh8RQ2/298o4OO4Y3t/3/EM3PGX63tmEC/7e8fRXKqJHz+Uq51/1XMPP/gw7T7jt+9/z3Vv1fJOgrKqJtgny+S1fi6P613GgLBJ1CV835hwYrV4JEEoWrJ30MXOXjSYw8kIPK9ZCOTBqOPE/3NLeVC0x8BYBqooeLBlQfotaUswFOMu2ybY1WzxanuLLIPiCOHwx0dpm2rZ90hU2GgW0akfP9nANqiLeLdRing21bFZv6snkjpuwjV85Imuv1itQbVQ3VOkK1pq+sKIOsVUDEqjXrD0YJ9axf3KbJbZmVelJX+nTLZbUuZa7eoSO88gXxZYQSiGSpxhVBEjvIQK6Ccp4qqls0EcdFA0k7u2DjY2MTRRCUHHA8mrCFpNqFZAP3iYEv14cOPqfJQ3oyaZI6hqTkGDK2OlcAievNJkHokjKPIc+QkP5sAgRPcG2iDNcc0iB6PemGFBD4InsNsJHn93CFj89eWrBVYG4DBm2FlVxZdSSGJMcFdCT6IAPBCI0GpBlIxFhfVwxnCCYzezByiBFzsmzDl8XjnSGyJx5gbiTT0TbL2a8IKMe/WDAdlGmRPwQfBdrlfR0U6/fdAmWZR7hqLxFGZPM/3CsXHL8M8WHZ+qjIyuUz7fEflBPfuF2d6+bASll941ZZvfwcufwz+KXc1Qkaknu+MiJrzrWniQbOukRWffYe2exF90nHHKihja8/LMuPWuIyPIZk4yWr5cnT1ss99z4g93x0hWy+CL/M3X+8w19bLed8KS+rb79HHrh3k1yx+C5Zdckt0SpO6Xs3yNnvfVhWfJTl98j6c7fLFcdfKZu7/kfPFbpzZGPfarnrmw/IA1+8Qpbcfblc+S+uGBj+2ipZ8T/F2vvmXbJm8d2y8uKNXbegDW99WOSMEzHa3ZFfNBAR46HbVsnq76+U9Xej3bvXyYoH8R/qfdZJbuNZ/9/vkkH24R/Qh1M2uxXbvKw47Ti56c7Nrf94S5vlrk+CdL8Rmktb5IazVsvDp6yzsbvxbNl+1XFy5T90IdcxzDRmD4xzxmKMPrJG9r7jLui8R+76wGK5+8a7ZftMk/n7t8ilb1wjG/9li2xhv447R26KnD1chzE+HX/RLfQNyMPPbnepdnAs1l2PsfgYxuneu2R13wa58I0r5cr/xNihjw/cfonIR1ehDSc/y/1ffMa1cssHVsiKD9wid90JXa9FBW49umONXHnvUXLFly1v1jk0fLes+bO9ckk0H74uN82wat1trl5+NeaIw/7N1XbMNn86wTHcdDX0noR58Q+YF5+/QPZyXvg/FsRQ+vZVsuJLA7LG9e8SWSurPuOe2+T8OvcK2XpGbH599By54ksjYjMMc+U9K+SmtH2f7rl9jSz++kq58La5nN0BOeXdq+WU6I8iwLP3ysavXyun8B51wf70n9uLL38Xxv35x+Th722RTdecKMvec7s8M8PXguN1+9VXzThes983bsldJ5feuFcuvPEuWXvG4mjOvGPT30W/Q6I58/hNsvLdm2XwA/77NSib33u23KCOMDAxBHs3yt5LNuJ3wQNy1ztF1r7jJrjIBNtaLzd8c1DW8ffXN9fbOHzLjUPs98HfxX8fuH5s+cxKueu4VtnQJze5rff7ie+hD18/TtbpvVgvZw+tl9u/x8Gd4Xf53tn/J9y/70W33+F/JlfM+jv8rhl/hyt+dIus/bzIqls5priHr75H3nSWH/PpfXrw4qui/59Gno9tX+Xvlv99pWzctUo2QlZ/V13X+l01K/y9W742+i4NPni5rO72OAXmyOYRd+P09xnaHF4tX+Dc/eRK2XLu2bLiPZtkyUc2Rf+fvO1atwNoLlD3x6BPrA/33L5Wjrsv9p2e2CxXvnGjDPj5q/Nzgz3Pr7bwd+ugfMT9bm0DSN8NZ1whQ6uulzW6Ssr53NqiO/3/wQdbO5e63vdVsurTB7jF92cEfUqF8hmHaOXKBY8oBlkSMkaMmMHxBbnTIpe2cgNXC3UrY4XvtaupniQIF2VICKlHn8uLnvejA08dtIUBLmoUoA+BrytQMsM48vk6ARKjYrli789DnM++8bk0klhbtQQ5U+cWAVb4vulVsy0dt13jsTTlaFtrXPw4GeFokVAaDznaiWG2d/Lx+Tj0FfpIWRKpjCTSWUlnsnbYDYkxPH7qA1fTrZckbuybBqT5fkCuFuq2TJigcirjXqNAW2gJrroVF3madv3mk3l8mTkJagNElWRVV/iYh8BrAnaS1qZxjxgyuLd8po5bLQu4Xz2wtQfkjqt1ukpHksfVO67iIc6VvB6wt0KmqSt3BZC8POIkdoVUXQogcXmEHANIXDZRRRsIJHQYNgaSSgYlYbBat2zCTpI1D51zvDV+mcwFHvrDMp2HLGaAHgZW4Q5gH7htWIOWsy7GKaYrrtMCtcXgG9BLe9k02S5QGyFmBxUxmD28aa055uWor5Wn9zMe+HHxCKZco8zV4GV8vtYF4mmW278DxsYPu7+qISxbcqJs6N8gG9/BR6SLUhwZlCVxx6kDA0eucLG8LL/qARl6kFueHsZ/qqi38kq5O76K85+b5W64fCtf5dL5FXLWu++QzY94r2AfdEzDw7LuXd7+FXL0yy6VredvlrWnxVd/iEFZ9eV7Ze1Zg5jraOnYU+Sc47fLiP6nD6ftY8NyxY1XwElEvXReBs9aJ+su04pASR6+cy0chvVywbGt8psu2yQb7+vinHOFbvgKWf/hU2SAZvQNytkfWydr7LYBIKe3Dcu1n3Tt5Qdk+XvXy019a+HYOJEYihMjMri4k8h2x+A7N8m915wtg9x21necnHLGctnu//MGVsARPlu3SKIP77xcLvnsFv3PNH/ahbLmvtujLaOlRzbL5j+5UFZCtPQvm2TtG9fJeh5cwbE76mxZ9z8vl9u/eh/+m5wJM4/ZF++3WtGqC8oGXguH4tYLZEk0RjGkB2Tlogvl2kc2yfqrrsB92iSPfWk5HNdNMztZDsO1mT1OHQtOc+g/5R2r5bjvrpAr/gz3jIflLFopl1y2RO59lC2gL1/7yxnvfxP3b4GO9wIZGAAJZ31ieJVc+5cXyHGLmTfHHIKdkaU6H26TW87vdgzESzxXOzDX/OlE4aIr5NrTbEVe58Vn4Uh/5d5p8yJ/2rXy2KdXy3I337lV95ERc7VGvv1FWXvy2tb8WrRcVn8UpAtlOh3+8x7ZMAxy7b5PWv6xmyR/3e3Oad5H0CF8xy1y4tfX6rzuhv3p/yN3rBX5/MPy5O3r5QrMy/W3PyYbj1wvf/a/n3ES05G/6CMzjNccc0xrL5Nrr1kjpxw1YL9Xps2ZL7g5U5LNt18pJ163Xi55Lecev1+XyHqQibVfBIGwGjKMOb8a5cTAaZfI5Uselq3Rs90rZPV7zpbFauigXPInl8iGx42ox38fFGK/Dza5+16KOchaBnKxfIbxnhVxR5u/Qz+6CY58AYnZfpfPhP38XnT9HX69XG6lQLff4TfN+Dtc8fiJmNeX4DuAuMpvkFuW3ST3qvz0Pp09W5+GL5HV713e9rtqpt0Ncei943ftHahLs/FduuTTD8imbrtJOqFtHicLEM0feYGs/sCQFM69Qi54FQcI48n/Tz63WR6b+ddFG7acvFrW0Q7/nf/kBlniv9N9K2XtIxt0fur85fb+745Ec1d/t153gSzT360uTzEkt1+2Sp78wCb5zFuPdnnT0f7/4Jro/8GZ/u9u3fdfLCLi183DU+evC+jgekfUr+a1HNN2eCeSxIPErsZ3/tWqIC98no3khKSQ30Q6vOasa54jaVyJbPCgkliIkx2ubPEF5/75NJ5maat+SQQjXu7XvMFFfde8bb6v3l6txf4wOxbiz62xSqOeikK9loI9CSnVk/gllZTJSkK3ZZZKyKvw9RQp9DutMt5+3fLptmmOl2yb5kS5JkX3XB8Jn76TT4kj+qcEsOHGgOSQfbYyvnbB22+BtqrRarzeL3RJSQ4JEHkT4rAeJIsrbSB4XLXLYtpyy2UB5K4nJX249uUT0svQwyvKlNjxucmEhoK78suSSzVB5ECyqBQsjmfMcKbp9kkY4AOzuRUTXVOYLY7kdQSMgBJU3CwTBnTOaYz9Y74L7B/76uYTfiD4fAtG5lyc9TXP8r2eFtmzuhoA1dkJFNlYu/T+okv7hN7HGZROy2X1Dttac6EVPDTNPwwwL1bO759u7Wb+AXdI5JLr7tKVik1/tlxK598iG6/CLz0tWSBLXnW3PLZ1pt/kJRn6/t0yuKi1lSp/5HK54N3rZdP3t8uWD4usO/+m6ACXLd/aIHtfWwCxA6nQ8LCUBl4rN3yt5YwQ3XTM7ODBWf+02X/X3Q/LM9sfwH9q3Q9ZKD21SbfZLFtytKx486Wy7hFXgH6UHj9FTjzWJR0GX+VJ7YgMg3ze9OaC3jcfVlwHd63bXwHBaLa8/kQ5ziUNgzL4Rn/Ph2X425vl0le3dCUSS2TV1/Afdxd9CxYfJ3dvnYviOExslU3cxnP8Ejn6lNPl0htbK0HEia9u/w+ebpQBY/6B7bLxW2xnRO79yhZZfb6tzI7sQt4nTpdCrO+JU9bK9tJsK36zjFmV5YvlklvxH/3XV8GmZXLOZRtk80x+y0lr5AGQwrjl+TecIxfeh/+so4mzV4pdpunKxd3Ik6FtLECsl2G+F2ITh07t5mEatZ/33+MizAH8LjbMoePIS2TjZ5bI3e85UY4+nivem0FarWY7XuK52ok55k8nTjm+fZbLoiUy+JWt0wl5abts/sylcvopR8uS40+X06+63RWgaGK7XHByx3f2yEE50UVl17Bs/valcnSsP4mXrZK7cWv20cfEsID0vXW1DH1kk1z7+m6/HRz2uf/D+N23Qla1nXiYl1POvlDue/DxacTXY+bx2pf7tlKW+T+aEW7OfH3173TMGeq6QFYc197P/HEnygW7Wod1XHBc3Hb8JmhzoE+Uwfj2/nTrN8VMvw+G3V9yTvnwZln1/E1y+nH4PduxxXS/8PorZPM7huWmM47GvbAtiV5Tt9/ls/8PuJ/fixl/h7vofv4OV5y/Qo5rew50QJYcNSyP/chmy7Q+zfbVu2hZ2+9D/q7aF/DeTfuu7Ss62lxy1AoZ6GvNCyKPmTy8j9vKp9nB78LwY+6PDyXZ/i/carxCjl6yTE5/8xXS+o0B4Hfrss5O/Ms6WYXv7C0n36NEtov3F2HG/wfnvO+/WND3VsQnN9w//bCHmh+/uuCfccO0tA808ZUIfK8bX67OF3uraw9hvpidJKzRIDlKgvhhDnMSc5smrlxs4tbCVBJ1kqAhKksigzKSHgRd4QO5qiGUQZzK0FMmwaoijv/wq9BVx2+YRiKr1yrkSYq4KbDJ7Zz6BYI9uKr9cKxZg6SHB8ZwJYltMdTcNszJUhNkrKHPzY1N1fVQlBH4JHsmG7J7vC67xmsaj4eRKYEc3IXJpowgjBabqF9BqLprRcahbxz5JHrj+O0wgQ5MlisgimWZrFbRJ5BjtN/AACQwEH41jttgeaxKHeSHQf11jhGvHGN11um0c7ssCQu3IjY0kIjpFsp0Q3Lpuq3AgeD1ZEnkuFqHwCu+6XaoSkIJIEOWIcOtuTxFEzr5zF0Kel2wA3hA9tAqQ9oF3QaJkU3x3uLecz7oXOF9wBUiGPtkFLQMtpL02NZZBqZVWvvjX+/ANApdXkeAYl0dRH0+g6fbNmmPXpmPekpq5kbrl6+lW8Sf9U2PBsahW4PPc8HLzhba+B6y2Jzvj+mOBa+bggj6QVq/s5rPbMT5hwDOCQTOpQafMWVg2uV7sqfB5akOVc0fB47CggFdqVh87pWyfuJyWRdt1RqQFWetkbu7/AVf8ezdsuEr18rZb8yjLyUZ7jhVa/G5F8qFjz8mzw7Tvi2y+ctL5MQFIHPf2xKFrfgVe8kjd8tm/c9iZh1DM3lSQAG20/6Btv9UO/CfG2XVn8HBvPUBeXL7M/LwP3xB1p7iyvjfz2I4X3AM4tg+PORieRlYtBjOReweuHCXrox2AP8JL/7BUIfzu122/8jfp7zkX3uBbHpuur5rX+9EYhg45WxZc8ctbSettlCSzVevkBv0Uckh2fiuNbL9/I3yAEjzM488IF9A2b5i8NzVsuSOzTL0/L2ySVbLhc7JzPctkcUffXiarc07V81yNPksY3aJW71cdIqsufUeefJHT8qmPxHZsHytbMbv206MfHejbPxuh/MI0rkX8xNTF1gsg+dvgd1aEmFo691dtvweCGa//+5XzhyYew4NvGGN3PLNJ+WZLRj99K2y/LrY1tsIL/FcbcP+z5+tQ+2znPdl5PzBjnmBOfrfT5dNR14r9zzyjGz//gPywCcucWVAOi93O+c3wshefGMc8nlZftEm2d7Rn2bzWom+wrNh12ZZe9YVUvyLh+ULF7U7fO3Yv/7n80OyvXNa8tnoxfhd5NKdmHm8DmyOcc58JpozG9ycoa675cnO3xfPD8nDGMufFTP/PrjE7nufHY7z8I+ekc0fXS4Pv3OVbPxPrbqfyMtx518rX8CceebBdbL8kVWy6kvPzPi7fPbv4X5+L2b8He6i0Lc/v8MVX3+y4//RkhQnRI57Gdrv1qd9/9W9z+C9m/Zd+yVhmh36O/043bJf4q6fOxbLtd98WJ7Z/qQ88A83Sew3Rne8ca1s+vYmOef21fj/cJ//JNSOOe/7LxYt4hefZEwj2LZBrqAxwClUSYKOtznvfEl4jU4lCrUeviUQt7iroKds4qrv54NfqStUNa70xR1777Dip3N+uSLIrY18lq1ahwvIZ9142AnI0lS5LqVKUw8vKdfcYSgIdoAJryx3V+TpShwPOEGdCshmBXajWJ+PKyKDz8cVQSJ5aApfZTA6VQVxK8vIBMJkBWmGqoxOggBqqCGfp2Ra2RjqMEyQyEFu0h26wpfQ0z69whZezW6u9rmtnOhfDb33r0rglYEEmGmeztnUCMbFjQ3JtD6jBsLlT7XkC/FzXIXj1st8Vl+FQCLXWzBSx9diMN7j4npiJl+RANLHOlzts1U/I3jRVkvcEk+4LKB9F3gyp15hlB50ovJWR58DRD7/aERaF0EnCO631mM/LJiEEZpWIPiTwZFDRBlMliUtHV6PkTAjfBZYG/kcu0jvXICkmarBwEh7iNtqIZ43XT4ejEgijvupfyDhvVbChryZQrtBgH5LTVeMvDHfo+373RF8uUerHy8VFssF110rW6++Sfzuy4Fz18r69JVywTUgf7HfpSWQg7XxbVNwrtadtkY2xv66O/LgPXLXWSvltYth4XfvlfWnrJF13KrXFtbJlZc8Jvf+C+rNomP5XD7rXBgZlseWnygnum2rpe/eLrd83eJc7Tr76u2y/tbY8wnP3i7rb/TrjAOy8qLVsvHWja2H90tDcvt7Luzu0Jx0tly5/Ra5PXbgwdBX1seeweDqWkluuTW20om+3/BWEJ9uW3sWnS1rbyzIlRetlXufj9+EYbn3unPkBlkna9TZGJHhLejjcud2Tjwit996t8X3BWjnkpM2ytpr7pLj3nl25LwOnHGBrP7yLbLxKd92Cf25VC78UocT24bZxoxzeKtsWIm4IzADrxqUJSAvbvdfGwZwz+7+8PrYw/UjsvVLG+BUnoORJAbllHPzsuHLsfHE/bvlDvujxM8O9OVts99/OlRDMzxPaJhjDj21QU7n80H8Q2t6QI4DYeUfQaYPh83VW74Se9XAzzJX27D/8+dhtBPdlxra+ehayZ97StvKAPWOPL9EViwfhLtMQO7zGzVGLD7tEllz23rZEM2vEXnkM+tkA2L62w4O9pqJW+SWb7dGY+TBG+Sca4wYl559RN/R1xXP3i2XnnaDFD5xr6w7YyY65rE//V+McV4hGz55e+tAlZGtsvG2zXL9Bae4fk7HI7d+cYbxmnuOTYObM89wBb1tztgf7DjG0Yo4bYPuCy9a2UHK9x+z/z7ga3pWyNoHR/Te5Y8clMFDH5Ph6RN5TpTuu1JWgMhq1fxiGRxcIFuoaNbf5TNhP78XXX+H3yTrD/R3OLF4o9zy2daqJQ/m+cuvXCMrT2Jiep82zNmnGbDrEdn42c1d/1irf0Tkdy36Pxa/S2/DvYNdLzX4B7sND3azwrD4tlva7HjkEyBuf8GD35DaNSRLTj5RBt0XaegOzDeLzo6+U+TaOy6XJ995ody0ZbYdKTNA7zvGJ/ZcL//vbt33XyzoCys6HUEinsfgt3/RweRWTF1F0GfnSOK4lRNEBuRKXymAoCtUkCVx5Eve9UXv+NqybqVWAyGqSINb6UAymimW0VkH8EN18sASkLIJvlduqqzvnpssVkCcai5UoQekjuSQV7SpAfUYuAWUMiRh41N1DWMgbAwjXL2bashekLi9uO7BdQ8I294plHElDgSQbRtx5BX2IlSq9pwiX7VgW1f5XKIFrqbotcH3FfJZRsbBLkHwEiCudjhKUlecSEbgoStRIjnQZ/+Qa0eWkPBZ0NVP3iYwnRTiGcSzYq+l4DN0tmKXAqHjdsy0kr1+kjs9NZOrdxkEvgeRAfXA6DTw1RYIeuomyBuJI4maPmOHuF7joS0PfUmiH9xKyduFH24x1QX0SZeweG2FCBDyK2mEn18EaRs/kX4nYyXUeGBo6Wlvj4iXxeHl4sFDoy7J+LTAAurtrjqCrbyptNbzV//Hlm6hm10Mre+nD6ZPQTvUntkNYh3UPOBxnhGvWi3r3nWPXOFP8yIZ/OJjsvH4zbL65KNl2crTZcWrl8iJl22WZbfd29o2BdKw/lvngDSeqFukuFXqxE+UZN2tq+XoREk2f/MWWXX+Svz3Ox3Lz1glj912lwzNomO2v9PvE066RDak18qJ3Ga2coVc+OBKWfuXrgxY/uFNoE8b5ERuKzllmSz7WFEu/MjK6PmB/Gnr5IHzt8qVy4+WFSuXyZLjL5fHzl8vq+NbryIslyvuWCt7P3aibmtbcfwyuaF2uax/nysGBt+9STYs2YixZHtHy5LTNsoAnMCZjoRffP4XMEbLZPOfLJMEbFyBsUkcv1o2H3eL3HWjH1c+ryGyFvbzmccVF2+WlddcqyX7hrysfOs5svn7GJ/4M5L5lbLu2xfK1o8s0/uyDO1f/v0L5BP/9+x3ZaYxe8+rOLePk9WfXCmbz+WcWiFHv/omyX9znZzf7SE/zMlNn1ggm86w7Xd8DvXKoVVy11+0HOzBd98i60o3uft3tCTOuEtWfG3mZ7n2F/nTrp/1/g+ccYXatATfW1t9nY5Z59Cxq2X9GzfLOceZ/YOfyMk9H72gq5POubp2fF3bXL38xjWudI52ZsX+z5/Lr7tQhj4AG/B7YdnLTpdNr94km97dOS8Wy9nvv0Q2XwR7qPeUGyT/7nVygSvV3x33rZSHLxq0+3v8Ktn8X1bLGnTetmANyurbN8iSL2Ge8PuE3z8rbhuQddfg+ykjsvmTICJ3dHNch/X0wo0/2Cxr37hA//+IwvXRPu8Y9q//A+eul3vOekwufZkb55OvlKF33CXXvL59+1sca667YMbxmmuOTYObM+cu83MmH80Zsw26Tl4iy9Af2rb1LB5oMhf53QfM8PtgvfYjL2d/YK2UPnGivFLL8Pvk3HvlCpKb/UQe5HUtv9OvXqH/F5zz4AXyd5efOPPv8tn/y9zP70W33+GXyU3vd8XA/v4OlzfeJJcfCfJ9PPoD+eOu2yuXPXCt/Y7q0qdr11q1/cXIIyCNEwu6E3x+1x7kd/Y49GuF/S79Ee7d+zu2IP/MGJGHv7xBSgtm/jPDihsvl8EvXoj5ye80/j94Dv+f6XcavzHOulxWwU71A05ZITek4Zecb/XmxFGXyKZvr5Itb79Ubu/YGTE3eN/XiXwmft8vlCvPyEe+wC8SiYmJCfXxnts5phmc5N7po/MYR1saJIQp+04g7hxK0hh6j6Rx5CusoiUsRwDHU2rDF2/3kIhkuSUUJAeESZ/pQ7kRSRLHplS4OshVELbHEyapzJEIRjXGJSgiZp8605q0PF11jNK0XS1FnpUTaMKuyGO29bAlQzu1acgpWUC800VmHQ0o9uRFN73iSlCaTj1VKil0bfJglkgvwJMzNc0P8qKVNBA15nHlLZWs2XORKsNxNVkPxnRXpYsbaAEC5PghEq5/2k/qQbCcFigZz/P32wC7EFo5TpIXtuMq86Iy2rZB74QfX2Ry2207SH5dJzhuzGlrO2otAtPt9rVg95b3p32s9heRzZ2NO2gPnXo/r7qBc53F3OpqBNDs44erqYRvay74frXBNT6jDhT7u0EJxrwkt+QW5h8OO/itDXhJMPGIHmAw+LV79sFh/vVB6cG1surZ1XLXNOc9IKAdj1yfkM1nzLK17WfA0FculBVb18gzN6yUQsevyoMVNl4NjNevSYcCfgVRks1//jYZeu/f/XL/3yptlisvGJI193b/o+3wHRfKGtmwD9vPf/kofWetrPjYoNw1Q19eCkxNTanv5xdRoqsrV6jDCedTr10DHVWuLFhQotYWoIOBcgh62Aj02uqFxZXP8CRPGFBrpqRUhnGlpr6/js++6Yobt1ry2Tq+s67CrZLcDmnbH6vQHx2MAkJIUsitpjwkhat9tirHA2TqyEeAPA98qTaQ12RgXs1W5yDDVcsmAh1wC1yl48oJ4+wLqIk6z7pGZ0CEzjIHMIV+2KsqeConAlfTsinJ60pbRlfa+MxcTz7lrgjIA9/V1x/keUImEn25pPSj3jyQ4Xkon19AyLtrD0NG+nqS0qc6RPJZPquX0KDP7uFO8jm+NIhTPKQYdM3Qh9a2R4sjoHtRQL6tMSKgrn/+sT0PBAP300gu6/AngQGjLJIayBcoqxOOZNUmnUnrbGgFThqARMoCpHyIgfXnQjeJ+Dz2aY94/r7C15kpxFfm5gIlbMtnbMVOv0/t6SjeJRA6NqqsFbrJxoPK6YjpjLZqLON3geUBPztqJRl5dovce8cNcuHyVTJ8zS2/UaSPf6W99yvDsurcQPoCfvEojQzL1u/eLRv+5HQ5/Usnyt3X/PqQvoCAXwy2yCMT74mez/6l4fFHpPTeC39uROnnjokRGXr8Xrn9+gtl2buHZe1LsevoABCt+P1055g5gnD9zOGjExkjOwQScAldgoSITr2ljAIQvJoUfXYtd+qUMCgBMOc/qZQBbUAPnVyuetXYNgrV+VQ7AL2YU6ogu3Tgihe3VLLQ26/5/LAd1YWAttUq/DMHmRYw+J8sol6rr7moaETD7GVQwsQ+OOasJ1DqoTbWll+Z8+8ypDqSLy+vWkgo1alHkjnMZkLrM9GCppBn2bY6pNVoG1Na1qrTirXg5dvhdbJdG8+oLplXDF6MYFuMtmz3tWiPZXoZLtBS0NYo7WP3iP1QLe5KMRvrlCapk/MCpYiC8ytUhlfXZjQ/OqHFrhIunC4q6/J5iZrpBq82Xt7RlLVtmR1FEaw6fsb0+Nb9WLT1IRZv6Xf1fZEmLSNe1YakQ9BB28G1ldOO6LAdgJL2ug/kJFPSN7AEczes+P1M+MFGufzLIzJ43HFy9rlny3HueYvfGDx/t1x+a17Wfaz1fF9AwEzgi5AfPuUBWXMA2/imY0TuvX6tPJw/Tpa98UK54PX2yoNfJ9h4/SPGa6bf8AEBvxngC9zXC8K5v5orfltvu1w2jgzKcf/lbLnwjOPstRk/R8y04qfEj07hT3eOOgcRHy7X0RFsgtYg2nLuzYkkQFs0Hi+LQzWgEY1TDlfdxke1qoPuK41gG7aywVVDnlZJeL2+PV59PA6KKfGL4OqxcwyapY1GcdUNVUpw8Y9JgidBMsrB0QHiE3eO5CkgrytkLAfZI0lLQ4YvpU8i6LNsENNW9R9TrAO91OfN16tP7Ds6SWGEmfJjmEmC95tnnxJ+zHm1oTYbmcvR0LiT8ffCpzuhWpPuviPBwPvNlTAlfo5skigTXh+fgTRSzjHnyGFeOJmobf3J+2c6WNePuUd0D9gXXS2zfF4oxqs20wU2/wFXn/B5nVVm0tEVUeNmr/bZG8Z2mO/as7np2nR5nej2ffDwJdp/p7dTS6u+m98A54N9UBeEb96CQPwCAgICAgICAg4mzEn8hrbvaTmI6oPyh626MM+DMrZtE7X0nzmxXOHy8O6kKgJUryYdQYsE6HAayaCM6m4VToO3z8cNuIJEWJnLoe1IKEFzK4x8HULUeQYTNIcexbpls2FEIgVSl0qnIV9XnfH+q8Uuj9e0khjqoD2sT9mWo0wZrgoy27flfjiwXhy+zPKtbcvT6AGDlVtt8Z6ZQo679TvezziY64nfzLDxIPRe4sqDe1hPSR8zIGCryRxXd79c2y1ghCnCPzqojS2Cx/unRe7eWyvtYL+m5SPpqkRg0pO2VlmHUBewL3Ho18TF1dg2+JJYQ4y6ixW3asdxoMSPsu35vkG94xH0Hqkcc9v1c9y1BOM9f2EgfgEBAQEBAQEBBxPmJH7PbNutAlZozqAepmIUKQJl9Nkj5ytGKyEx4kcw10oMVmrnE3sX1Mili+tPUqd4LcqYTT6uzr9abGnW5IqfiSSUtPGUSn2ujQQulRaeRKknVqZIJqAP1RjTnjEBG7jbje4u1ejAoB3v5XsiwbL4aGia+xBVB0gtCag+x9Y+Ztz6GUcn1SF8n3xfPdSW9iyFE99nUEd8LJEzra2ZQKmOLkRo6WzZGd0f11NP/PSAHc2xsTJC3j4aDY4dZTn3ODdUJzOoxBrwc68rrAFcXMSjoxJLfRZXmtnObGo9ZiN+bfckpi/KR4RR5ut4xmQ6ESd+c0LHEboR9vWeEv4+tc9q5CPNb4IRv3C4S0BAQEBAQEDAwYR9In6EZjpHUIkZr+aqWpwOJt1XXlnT/k2DOsRxLxmyqZiTzxJ70qvdUW1La3Wvg/kW58EiJA3MSUBnKs0XdfOVBHzJeFpPDEVSgx0owsNPmGc6aLbWZdA85nLVsGZ1SC411+QJ/tQWOwgEt4cSmgtvXp8/axfpTOq4WV7MJk3HZF2ks67lmDVdCg0o9ho9CbVa6s5rOg4/Bq6KwqJOh/7sDh1LCFAvr1qDmbz4uEurDD6e+hppaqf6fmSsCuOWw6SVWHy/4e+b7yu0OLNw3ReNJmP2t+Br8qrvz4uBf0Cx7selWhciGvsYVBfqaIkOaqxCDFrOopiIHz8DMmOMnbYz1RpRuzAdt4Pfe+oj4Zu/KBC/gICAgICAgICDCXMSv2eH95gvqI5mawWAlXRtDPnmXOoPLknoyp+Hy42gh6m457g84i4pK+gTdTGHk7GOhUNrH+RKHW6QGJaTlqUQT6MTjKczdSV9JHx8Hx2R4DKfA2N8pcJ0xPPYzyqyMDgxm9oB5bGxYR2+eY/wjjPHoYMbTgOLzR+nw81rF8Qc9jhsHGJxixhiVdgbk+hsYLreyHa7wW1QAjKjkbHyWeT8PJm2WoZQn6GfPwviNvs+RX/M0LihW3/jsOJ9s4+6OvXxS0bEvyces415G9zYdoNq6CjS71QEFpoAf5oqfI+7tK2vk6AU/2k2Zg4I38CixYH4BQQEBAQEBAQcRJiT+P1kh71RXp1BR26MPDDPVsBYpg4rRbjd0zxEhY9pHkQoxsUmblnjOoOq1dUnRliOxnGNjvhnBRQkQL4sbjJ0ZX08BQeUh6hExA+BGhMpbhsEuQOz4AogFXObpzVFnWyLxBUZDqramnFgWctBb9kUB9IdrI7Hj8RBLTMRP9UHARbPINLCLMTPE4q5EOtuDC4TBlBX2z1kHPlKAhDXgA/lZkJUHtPTOW5RGzEZgqnOsYrbo0D5TO3PJDstn3ANscRrU7mY/s56TOofHWJzoRuJmwnxcTDVLf267RiZ8Ta72W3V4vm0xUWZj375NJO0TpMuc1qfmB2r4Eu7E7+kDPAZP75+JSAgICAgICAg4KDAPhE/ZqhjG61qmWPIdS3NhhOspIPOoXOAI8cSdVUWafqVGnxtNoYYq2plgFsQmSRhY9yeESRxs22bVKD1E3UtU3nmaX5dSZ+9JgDOrpPlaxNI/Fz1CGaXOdoeSf/g2SyIO+4zodsq1qzEj1c2rbFZMIttdNL3HZ0tmV5P2HjtJAeeBHTmz4p96FPn85tx7Fdb+wCvz485/x6gV4Q5x96BKvzBN55s7w/xmw3Up2PsnpGdDZ1jE81LNVAzNK7Jjjnb9O/CcOBKvH7xZoE2R0IJGxcsWhqIX0BAQEBAQEDAQYR9IH6jKkghrvAhph4gyxpwAlUIKa1EwtBB/HSFDWAN+p5M6esR0BBXN7gVM53yh7uY80raQVn9Yf8kCbVahmCrLdAPZSzz4CsASAJJ/Ni8nq8CXfqeQOqEjCdfGkdosE+IUK/mcxvqNHLlKs0C6o9DXzQeg5ZO00uwTy5KO1x0GpyQJxwU5EgdCKxeZ11vm91bjXEQZ2unszsq67JdWbym19cJEj+KtxW5+i0b2mHTy+d6YbtEA+rrQZhF/ElC5eeRwlfFlW1ZtpV1piNQ1lX0etTOfQXr0Catg3hMvY41iyPiFytkm7EkbbAp5TPdNW4L2+ElVpHF9l2OgYooEomZDh0DjTFu3ytu8TzksED8AgICAgICAgIOJsxN/IbH8dM7j/aDFfSjGQ5eSUeeOdm8NvRkzRSJHoqU+Cn5A1FLVFWceQqSm5giOp6pthUK09sOtg9ZZLOEtWmjEr6YbAcfi/rQkol3YN/RucLXFW2D0x3T+9WOOMGYS3a/EKnlmDkaO5d6CHWK0CTW7bZipbZ3VFBZvd+WVuID+H7azGvle9gBQ5ZHa7U5nW9Iu5VPvf9I63yNjZsHxw8zVltQG6aLOLS33Sbnimas2g3uvrUf+uLbwBXl0R9Q2pbh0EqXOZToIHG+r9TYGkeDH4amdJA2bd7fey9dj40b8jnmCPxjzsLDA/ELCAgICAgICDiYMCfx++mwrfgpnBOoz+epsHNWkeZWN+alEDwszeeWoBBXngXB5+34GgNtRAPkVK/FCZ7oyJ8ezE55xkZZ1vHCMeg2zW5wsnRoOyWopxsp2F/8LMRP22efdAym94voZuNMsvsNqPZEw+6JG6+51JvZHbAxno34dZb4bZJR25Cz9/rNBrbMEbN6+uoFp5mTmLD3/M2sh3X99lgSvxmbnHMg9kkkQtTMtAY5Fy1m9xv9cn1EJ/kTaJ/DnFKd08qPHWtwbFjDxqeFacQP4HixNbv/rGXEz9IExkqJXwrELzzjFxAQEBAQEBBwMGFO4vfc8B7veuo77/S5O8RT6ZSk00aaGJT4Id+ffKlKEEj81A/XumgowY19fF7PGlLZ+GoeG1UW1XJUVS9+ao53RGNVPMhDrRZ+aqRdiM55S2s7qFM73EXCnPCZwVbU+UbEj1VXdHrov0LoZtpcZMbX6TY+8by28m73IGqo1SDrTNcag+o0CT+PPPRe8hPJcC5q0TTYbAYoq3PAdLZhjoHQVjpFnB5r3V2dEe0rfR5egZNx9fmqe8LbbyudBjUZmu0PJ9aGXl1aJVkR6fZ+kVCa3jiietoY4vyuIi8aX11ZDMQvICAgICAgIOBgxKzEjwLbXxxBJkheKikZrj+wEIHbNnnAivf+/QqPcjb4iSrHKFddKAqyp8/lIZ/OK8s9otUyZJmjyYTPNHj5Nke0DewEy03GstqdW+bO4cN3xVwHd1ClJxDdbXPYR+IX2Q9VNoo/GyJ9Hl30dprGpK4AxfozTQ+SLO62uhcBdVgav2/t94AKOu4TKlA+Xmc6WGa6WcGv8sVhK8eGmfRE/WajM7U1y6RhdZ0fXkQHhOpc20izSPuiEzRWpuB3wUURpxlxtAgaC+y74+Hvh39n5GyrpK1aRHfi1w7o4vOuAMdO2wrELyAgICAgICDgoMWcxG9iZMw9jweyF9vPSGe12XRkLgbvYLYcbVsJpIvO1Qmt2OF0an4cvqoHnU6XN5MD30J8daNdtqMVhT23xBIGxO2fQnOjshY6T0hkKg09RkOcgriIq95eqzvaW5q5jqM8XaFUQyvyB+lPuzRv2TS9KtDKZdK2SrZy/bi2dPGe2lXz9Ec7GTDyFY2M+4n7bxNI80kcTSeuGgExUZJhtayGSViK1UFdPPHTtEnHobfJZXafN7496m3B92oaVNjK4m1xG6UfGzuFlgHpSNylI8TjSLlkZ7uWbXnd5rTPS0ZlBk0hz/dZ0+2qp7Vl5Daeh1qO+HnogTDIJuFbtDg84xcQEBAQEBAQcDBhVuJHN7A+NaqOo7qFnc5zh2MYR0t2ZpmZoHUZYBjb5tY49yjWdBtiaDnH+w4Sv7atd9DvW/D9ji+HqT0WbYN/EXxkg3/+0QPZM1u+/6DN3ezQmxcbI7O3RUw8Ovg6hxqIWwjKNud4orxNEeo328lAI0Y71QadVXwfoEurbW78o+a5IsUjgBDT+9GUlMpggrq+6YFBHXNLVcegdePmdUHnuKhFc/bb/6nC5grHKVrEQ5t2680Yk/P6XK0OO/3ziezRNEI2C7yd054vRQP2nSFRs8KOtzd0AQTaVl5Rb9r3m+X8JRFW/AICAgICAgICDjbMSfyald3qA6pjqM54p5fpcpyD6UkHlTLqktPQ1blmwy7qYXII8QLqdRld9ewDrB51zEz8FGwrlsF6nU2y2BMSQotdUseDFWJ12mxG8fRez4zO/vo024nH44hq+LquTesL8jS7Vcfr4QTQmKZRo8NMkzL4os6tiEqKGPfSuFCG2yNZrpON7AzVrCYjzPPETy+SciQv6hvrOp3ad36Y1LqarfDEz4+P71snZiqL50dt868QLh6Vx0kTiji+EVSWcnWXjJUBXv/+ED9fh5hG/Lpgv4gfo6qfK/ocT1cZ5cwNxC8gICAgICAg4ODDTMQv8mLtJeoMcACTXEWgs85g/qx3DH3wsHgr3Ym4bBzMn+7HdshCgEZr6CI9E6I6CC7HXWdBhwjt4+DEQ2dP4mmzkWpmaAvZcbv2N0RKYuiUSTRwgxG4gMM4Q5uM1jcdcU0sww+faq+jAbnQyUDuzODLSOzqdQRti0QP97XBlT4SMHt2kJONz4ry2hZQxpNfGUg1kiR9ZrwFTbcs9bYYybT2mWZn3CVGQBm8TCwgvxvi8zQu76H6Oisj3dKL8UbWtDkRCweCA623r1CbY31XMOn6FhAQEBAQEBAQ8OuBaMVPKrHXOaibG0eHY9gFuo3PiXVKT3cgSR5dKyxDQg8OQV6nDxo3pa3IJagb2iwBUJxOOBiA6bMfAH5ANqYOxANUg+TEpVsRA7mHydNxt2J7tqsdcZ1tpShgGVvVunFBQoX5AxLOXrbDG9Ld6ea4QZf2mTAZ36skKvKF8pqmDgxm3e5uhLha34YX0bFEHZoSwcfJwwgnS9JGKywY4YoTCI1y5QsRzdVrXLHJtudRzNI+V5Mu0SbZasqi3WRgU+c4tmyMKQAoN23MKevktYz/OsaTaliLeq2HTHXomYYOHURkFxCzQ9tlGa5+/rAtttO1lZiern3StlsyFI83bYB+TAL+IWjR4iNfkhU//uVp165dUigU5NBDD3W5AQEBAQEBAQEBLzXm3OoplREVPFDY4R6GlnMNwO+cwUVV0CiV9yIdTug0shQD6+nrJeLtAeoUO/bSWbY/mK3tTkx3sFvg9jtakXLcuNt4qJOOK0exk1t4kGTxZEeujNH194d9+Lb9Ai7rM6eJm1zv2PsXJ3WdNpO8GaEzPQqvm1eoira6ahskibCGdRp1TCorszHXUk3H4VtUOqhi7TZ0g78PUT+dDbONuUfnSa26qm0xFwz8w0Wnum73odkxnn6siX2da5SKz624Do9pMvrDMtgOY3iFGoQAAL2VSURBVN2e/uwcm7nHCHeiw2zVj3qJZEoWHf6zEb9vfetbctttt8kf/MEfaHr79u3yb//2b/JXf/VX8ju/8zuaNx1PyFff9XG5z6Wkf1DOe9+fy8XH97uMXw4qP75fbv3cV+TRFypILZIT/uhD8v5zjpH+OYanMl6RbH/WpbrjiU9/UIb+6GY577COmxEQEBAQEBAQsJ/4uRG/lls53cnfF6iDSUOcs6l5+CgxAGYnfnTsrb7BO7uml/BFmkTcSxK2qsGceC7h6trF4OORaKwOlHcSjAjsF3gUdaUQeOWqlqpDPW+nUTkEqO1GOBQoMOIHkqX6zPX3OtAZbc+TR674kZi1ZNhGCxr3dQGVQJ0Y7dNM1tJtmICNtUqqzQxcVdRtnW3Ej1It3fEuWW3+YD32ugVvp/tn8GpYhjo+P+p3F0RVOomfjpHGVEi1MQpdnfqYiuaiyjADkRh0nF28NQ9nB6Xic4vRhs/ARcsthavFdCx9HVfYbcZ5G/xJrVEdwivtBNvUMteWS6dSaTnksCMOmPiR9D322GNK8uLYtm1bRAa7k78n5OYPDMk7P32eLGSyvk3u/PBakau+KBe/TAV+4ag8frO8+8tL5bq/vliOIf+sV2TbQ7fK2n95jXzq2pUyMyXt6MsMCMQvICAgICAg4KXCTMQvdc011/w3dTXqJRXcb6iX6OL7CRpEI7yz6q/miLo8/TkzojqAOuaKKLIPaLXvEXVpf9QQTg+rKYnwenFlTEkfrkqiuA2SZMmk8TFCEicScVBDEtWsPqS1swhxYVfXSJ8rItHpFHLQWKzvHAemUrwvTGto6oEraQT/HB7TvDLN6nyHI6987YLmuXrxVmeEu2meeHXeC4VTpHpRrmM7B2aWieUz2q05rYsC/tMOxvV1VOhITgfnl8XiOnw1P0q+JA6/Nkmw6vQ67brjY9dqYd8Rq65xro729M7T64Hgk5/8pKxfv17jJHt33HGHxo855hj5rd/6LbnqqqvkHe94h+a1Y4d8974ROeGsY6WHyWS/LK5uloeyZ8nrFyM9PiQPfesO+bt/flSGpo6QV7+i314uMv603P9/7pR/eORp2T1vUF61MMdckZ2Pyp1f+Yb80/eGpHL4q+Xl8yFdH5env/01ufMfvyNP754ng4OLJDdjN7fJXf9ti5z+8T+R5X0uK5mS/le8Xk5eMC6JRYdLD+qO//B++drX/kG+8+Q2yR15rBzeMy5P/M3n5Rv/9LQ8Nzok5cNPlsH53eTQ43+9X0b+y5lybC8GHrYNfecbcsd9/ySPPluRI456ufRnrNnKcw/JXXf8nfzTk7tl3tEpeeJbz8miZYfL7gfvlKHGlPzTnegnyha9+lWywNXp2v+AgICAgICAX1tUq1W9qm8fCwfm0XWim9d6gIg7rz93uLboNMeD5kU/O4Ohs04UXHkc3ELp3wHHlRh9HrIB4ueD5nXoiQX8oBIjjojzynbq9BFxBxsuMC+CS/jqMyE+2oyTsLXW8oyYKtlr1qKQBGlN4ppgvIE8qSMY6fPkkPU60epTlOEiAO9Fl3tPEX2lBUNcfi5oxRnkY2Utmzplu9Wdbt/c6KanlRdvv82EWL5PR2BUky7PmRXJOpD8+Tyva3rQYgXjFmy+2usnDgxc7fPbO/12T67uff7zn9etnkuXLtU043OiMiQP/GNOjj2K8Sfk1g9vlF3L3i7v/KO3ywnbPy7v/tLTKNgt9//VrTJ26juRf6qU7/6GPMEdmSObZe3/eFpOuAD5FwzKo39+szyK/N1/v1ZuHT8Vsu+UU8vfkG88SeEZsPsJeajnNXKsstB2LD3+NbKQPOqHX5QP3p2VldD3zlNFNl57J+hivxz7lrPk2KWnynnIf8PSmeTiqMgTt31QNu4+Qd4Ombcve0E+fukX5ekaip69U9533dNyLPvy1mNk6Lbr5bP/DEKJ27Tr+zfK9XdX5A2rUOekXXLzDZtlnOp23i9X//X3rc4FJ8gL//Pd8s2fsiAgICAgICDgNw0R8TOHf/8CXEQXR/0m3Mx4mPahTCuwuuZrHD9iweczTHdUO4La0SmnWe1gJgOdWR+fK8ROmOSLxJGJ7O4BP6wddBQ5dkUHNO7a5MZMarH1MlClZFoaiTRy4TmC9HCMuKrHbZy+/wxUwR/6nJ3+8xSr/Y64TaBoygKX/TxRpM54MI3OPgfrC+2L0T7Y1UiQ2sHOZgq6khgOa4udZMuMqTVtc4B5ddVCokvya8p5JZFjW62gZQyd0CydPRriIq361kY8mDiEdQApqzeEmVGIxg0iahZFKOtENY6IBSuIqC3iHB+9b1SnsrTF4oT1q6VD9/wysD4KGMwGQG31uQy8D1rd5TCOK9tw9hF+DDxa9w6j72zU+caDjDpCU4OXQWA++xeVITi9+wtu8SS583H/TB+vnuwtWbJEVwK74vFb5QPvWiWr3naanPSnX5N5l/+lnDkgMv7Pd8r3z7lMzlu2UPoHFsoxb/+QnPfgffJoPSvZgV3y9JYhGU8dIef91z+W1/CxuoGVsu4TF8sg4pWpnCx6+QuybUQkW1gku558VIbAjo4452r54+NneQavXhYpQL9LdsVvvUe+eNUbdMvneDkng1PbZBfi2f5+yWbR7gCuJIgzyEUY/47c+fh5ctn5x8hC1Fm47GL50HkPyH2PN+XpB78qr1nzHnnNYf3o+6Cc+UfnySJXTeQYueiiU2Up2lu47CxZOf6EDCH36Xs+K4vedp72X7JL5aw/PEG+/uiPtEZAQEBAQEDAbxbohR4wnO8JwH1FIp6GN6rpVmiVEj5fQe8yFtolHZyDy08bomRHvoPWIcnwgaRA8+BOx/M7guizYdSJ4NpmvNPR9vDPt3kb9aPxVn+cNiUNStBI/kCqGGw8bJSUA2g6FrRJ/QG4XKfQbMaVdrngeIS+3oFbN7k11AelL7iqbAeYw563AglBSmogqEpWebgJ7Cf58XeYKW0vHjQPtZWIISPeFqMuT8doWjAxwlaALTA/XkZ4+RZB8wF5aiMJDNJmNq2ytNZu6WbQlVktsbTpdYHlyNX6Pvh2WEXrxa8GK2LDrXaY54NlsTyWyeDEWU1flcEP4rTPi0RwCbPRB9RDvhLUjmtkvyN3vo7ltfKZPlDESd2JJ56oK33EX//1X0fP9fGgl+7P+AGvvUw+/eVNsun2T8l7evpk6VGkSiRv4yBQbgunYp7kBipSqffLymu/JKuXbZPvbLhKVn3kq/K0rvg9JDf/6VVy8zc3y1M7QOAc+k/7S/nSpSfItn/9rFz1zg/KV384y4rfYcfKCU+DSNVdOobxHxt55GrcB//0o7LxHx+SF3SpbQbMJVccl3GQtLYegqRWKhUpj2M87bWXBpI8XOwuLZJclxXJcnmX7Nr+jDz19FMWcqfJVa87wpUGBAQEBAQE/CZhn4hf5JDj4+HzPHSlBXQG7iaCucgeUf0DCB5RDJFucvjXJc+FmC0EshwYcYnOOgg8sEUD+qbBbTdk8LA48zRhV3XFfDCZSA4fXf0CdPWmIxBaqw5XHMPYuUpHmKxLALpvl1fotjUbUDRU1mfxdFtmPDDPXH2+P88oQneQj1jfbMXOcT4NnbC2SWfjbSHf2c4rRAy015RPg/WtNc5+TFrozKceW0XzwXpFosPAcTab2VPOUiN4vi0E9/F7ZiPySHkYrsHVbW87pgNZvkudMh7MQYnKWh9j84kGxoLJeD0MaJ8dUfi8VvByvo4dNoQ8ZxMv/g8LHi39Bp9u5bfK9hfc5vl3f/d3Gvfk7k//9E817tN+y+esyL5GLl01IR/fxO2cIguXnyqVf31UdnsStu07slmOkWOzu+XR//MdKR9zplz8Xz8lf37Up+S+J0V2//OdMvTW6+Tqd50np540TyrII3b/61flO5Vj5My3XS2funpQbr7/Kc2vbHtCntjWSQKPkfPeMyQf3/CojMfIX+XHd8r1t21TwvXEN2+UwcvXyYfedqacfAzMcu2Qws0b3x2t6s0s53DYyXJq5VF5dLdL10Fk/xEWvDIrg8efJ49+z8aBGN/yPfR99rt07PLzZByk8OTXnazhhP7dMpnxD/8FBAQEBAQE/CZhn4hfhBk9DBQk4BGRqTCoYNyBPHDsyzN/vg3fXjxMh+lTsqS6nf6OdrQHnfo01+DzLO7SiE+ztlWlrc6sgIy+jB1XT/qm6Y0rJiBAymOnfvor6A8IWCtYng+Wntkeb6+RPsTRhr66Ybox1p4L1hb6QNtRxmtbFad3Nvi2+YmD1aIyJnweWGkUmuhdwo6gIRU1mkvbjbzVUSEi8wimi5oceUR9Ej/Wq1M+qjs7zJ6WXR6RrRo0B4Ej0hqViGz6gMaiejH4vPbgy/wVeUoS3Rz3TbU3+QsBV/1I7v7kT/5E/tf/+l96JUj6Zlzt60B2xftl9X/eLHc+i8TLLpa/PO1Ruertq2QVt4JeNyQX/xVPzFwoRxz2kFz/Tsv/+I7r5eLjQRRff54s+uZVsvZ/rJUPXvvvIitM58KXLZWH1jkdN+6SdW97jeY/9Teflafq0zd1Ljz7U/Lp131f1jr9qy5ZJe/7Wk7ef915sjQFgnXmh2Toxg/Kjf/javngbbtkqWuHpPHMi56StW9bJV/9/mxyHkvl4utWyqNXXmTtvHOtDP3RdXLe4Qnp/73L5LKpj2vbqy59j9z8w6ycvHSR9M9yT7Ov+5B8qHaz1YG+9309K0cdGohfQEBAQEDAbyKi1zkkK/YnZriM/DE3WCmSY8QSWl8jXbzMZvw0Oa7LtOp5MNdg16jUR8giYi4426Ojy3K9Aurr8odlK/jsnEkb7H11rToKff4qBiWxLehKkhNvEVJ/9fBt4GdMdRydNaYRI4DEr9WGgWlz9H0LoCbIa1niyVwL08gKhLUf7vktkpuaa7+9T2gHNvgusIhbRtMYE44c6VQ7XF1UYC29u24boT5rhnweRuPFCOpu6UcB67p7EJmCCtFt8Hmxe0YiZwUxxUC0nTMaq7YfimjkkMXcJrfrtopVtx8B3cqLqJ20GW9LayIwz2R9SjuBhDe31ScPI9VE+zlLrgLgVBh8xOtBXc6FaOyY5RvR9PQ51A084rcbksmUHHb4Ukkd4OscSO646tf5OgeCq3/Mn3PF7xeKp+WLNwzJRdeeOcvrGX5VUJGnv/BB+cpRN8r1b+pvm5EBAQEBAQEBv9mY6XUOMY+P3rU59T4+W6Ac30dnaV4NmqXJTj0tGQPdbrcy5YI+D6bbKb086QM+SiIdVE1Lr9rBgIajQCHV4WV8IGGx4ElSK1i9toB2Ow8smQuQwgeYRdZ6FgtdvLZuDnsbSQVsmGCpBvQUgboiKUaoJh58q6jAOqpS44zEEVVQeFkbRcbtPvntiiQwXEnjCllLxmiTBqiyvI6gsiSG/g7F0q5f+Geho44GrUe72G4r6ByyAbKgBjBgyrsQra5FJBgBIjXUY2CffJtal3apXLwtG5PW1ezSOOqpBa5pk4kHJ8M2nIwF06f9c8/aWdwFl/btkepHcmozDW7B5x1I+FngV/T8830e/jm/Xy3SB4yX5ZiLZnsn368Adj4qX/3cjXL1Je+WW7MfkusC6QsICAgICAjYR0QrfonyTst5iRB3Go3EwCmlVx2DbTdsyTHGVSElT4740DG3CP85WW4rnQlezuulHsRtxa8d0x3bdvviKgzmaFvMrt4mL2IOebtea4d9sjQVxyWoK42yuDnxZ/o8Ou1lmuPUssE2NpLNG0mFLUwwzrZxpaza6FbjOL4kawR1mYnUOb09rvilYJiOAl9D4aCyWsfVdh1V8kZCwlNBUde04RpTy3KFy2vd9/a2FVbkW9GfqrWLaCcanHsdcmaRzTW258eK2z81n0K+TWeXh449C2PZNNmLeZ0+TnTrU6eMh+rCVfVYVgT7w0gclJyum/lU263dmWF1CK70Hb74yANe8SP8y9p52Au3efrXOXDbZ8ABoF6RcRDUHE8LPfDbEhAQEBAQEPBrjJlW/CLiJ6UdmvFSYrrjqxcD4rpGEctjtOEYjzq8iGodLxOZ5zNmAIrNeVc3Vq883TKOroShwxhPVbwOWpzo2K5qT4CZvQTJFF9iEMf0cWhvmLl2rmcL3Oq5f6A8W+bqqelkdxrutFEbT9pLWgrS51aI1N6YPSrNsg4biRbxgxY9PKQFTyKpwG+jpYiuRCnxow3WdwaOqcqwgoO1be369qnSJigTCIj7cfTQR0tdvJvdhBK/WaC2OBGvQ+/77NWmwY+z2thhr22d7W7fzGjNPo9uOiKb28YGdWnGDGMyE3yLSvyW/GzEj/Dkzz/v123rZ0BAQEBAQEBAwEuDOYlfIk78Ik+b8E7j/jqs7c6oxjocUG03lsVo0xE/L2/8DZI0ltGuaNerejqIk76+IAavPwKbUFIUQ1uC7UOoGT9PnS64o3lu7Iz4uVUsp8A3Ew1vRyPMTroxVxmUN+vtxIpC7U490JnkoSqwwBM/glsDfT3eD+uhW+2jNMrixI/gDuCILDhFvHB1lsSPBsbN0xz8sJ60iB+f7bOtidSHMvzjVl6TIfGkHtcOgXLHU7W+XlnHYs4mm7ya1hTHDj80Np2QevhnB2dDxA1944TPixDPiAsadK4zOxo/2mt14s9MGqbX74pOsWk2sTkTSvgVVAc0H5XNjA6FTj6VSsvipT878SP4C4jo6enyzoGAgICAgICAgICXDHMSv7Ru9aTDR0/RnEf1/5SZ0Zludx4dP4uhM4MOcHseU2oEvVGf1lgcRhq0xAzQVOsah3ekzdn3zcXJpG+AL1MntGlEKetrK6VDPolNm2vuyJiHEZvOPK/Dyu35LD9+MV1dgdqQYV0SPxsWWgPECJG10W6b2tvp5IP4kdJ58LlEam8RP64J4qorel4jiF/bgEGW9XwW2+EFOrytrBmnVxT1JYTVJamENdqOgRI+bhG078p9bf8+xBZMxsXwM0akXEG8hubZP4XrOtCpdzqiOk7W2jNo36HMjyVhzbdkZkK8Thzd61OWfZ5Lr58vBpOn5f77Y+Azr911+V4COo8g0yHGw12WHPHSEL+AgICAgICAgIBfDOYkftnKzpiDCEcQ8ejEwTZiYJhO/DpXWmLkwYH6vRGE0UkTitqOrczM7DB31HHHPvq0HsTScmsVjc4TOn1dQKVBJvz2ylZZO7FibqtWd3AlzRO/ucEVKqNMfjz92JAxaVZki63ReejNS3Q65Ohj/F5plCtrVGP6uAqnWzm1r8hDsn0XJO9bLINirIL2dFz4D2lmd8LnWVskfinE/b2hDo1GoBzHXi1jZddOG1iklbuU/QKhNgA/bxv8OPv2ZkPcFpPnaJJsY65EZe3zvg1WBbI2j/xqrGXaXFx6xMsC8QsICAgICAgIOIgwJ/HLlG2rpzmQ5nS2nE/vRLbgiYqv02zGD1yh/PQ6LX0GbcmJRVv0HPFT4xAI1mvZNl2PJ34KFNH95SeSg5pGzAG27HYdWqNTryNwXp4XL+FtI1r2oE3kx4nfNFvbwDLogUzbeOIakSEXZ2u4ZZbhoc8bRhW1j2alq88+RX1ADgK3dlLW28WfToODtaQa4gXMRprVmd1OJ5ADYW+dtoWUPkfo6kRwOr2d+4P4mL+U8HPLj0k3xOdfHN1s0rnHj8ojFQ3M7P3upiveZqedcXnL0lnc0Ub7nYqjVb81X81Gi5DwBeIXEBAQEBAQEHBwYSbiF/P4Wk6mP6bfXMC4EzkdVsecUQ2WG8vTjP2Gd0q9LZH+WRSyjtWzui0d7XUs28o8vOVzwXS129LS30WHk+seXF13ZSABZvCvRrDXI9gWzUpnSDTb09BTbSQ01ECgaxpPaqhLWmqSQkAafa9hEGq8InAVsBVIFUgiERBnWgOMoA2UsVctQK4ttGy3vtiVnfN90+A+v2j49n3TJEgemr8P8PNp/2Dt+r7PhkguFuLQPHdt0+uC5s3RxpxgF71OywkICAgICAgICPg1QOsZv9Kw5RA8JIRObszzo19pjq/L1FoezIOjbwkHrjx4XhlXhH9xp9KpMeeVbVjaVi6spsnG24uDpbaq4R1zbvX0h6V4p7hzq6etLMZ5L/RYQxEicqD5tBkf6KGdHlzhY7lv2zZkunqAb386WjIEyZTC6bEarXpU4WVaBKSlg3nazrSmbBwpqba4KuxLdHV1ov56G2J2M8ps1YNgr4CwGpTTKvrHAg+0G9k5M7QNyM0t2Y6ovwcIm1/t9Vvjapiuf7qVVsXkvDj/nuJy9Kefn4TrLiTc9sqONnza7lOsPUTjq9aGVl3Vi2vK32CApZyLMS0GZLT6bySeedz+a8Q9hSt0pVNy9GBY8QsICAgICAgIOJgw9+EuEfGDqwivjwJxp5QOYQJ56mEq2hYLAXNKPZGgwxkRoA7Pk7o6QUe0/dkkg712oDvMPh9aSDboekMjdHmZdqeZXi6d2fY+xPtLTH+0EVr4QkDk+3e9tchty257mTY+6lED8S4hy5pp72ddD9iYDm8Tn7tjlOPUOUZzgRpYg7rM2W+Hb2M2vfosIicMRCgdf/cf76c/pXN/MVPbkd6OeUgw3S3/F4Pu836fAHtpMXva6m5rjhpi4xAjccye7TlVg/+DB66URzHnogEZkOfqbc3NSyV5uPJkVcZ5j+v1OkSN+GVA/F5z3NGSTsdPsg0ICAgICAgICPhVxpzEL1XcroLqNjoCNs2xZAVcmD3N5+wAi6m4m3Pu8+Jl1Gypdseaz6R1XbUAIj3e+XZpXfGL9MRkGFVFNIyRdq3dbI2AIp4MqoFx/tDqKRQxQ6VQDnvVZiejmXa1MUWy/TQVq+qyptvA9rytrXp+RIxKGDpHiSXMaV07dRva2nT3mLDseB2UoZA5nvjNhpn0EtP7CXTIzIau8xNgficoN0021paVub6pmEsz6oS8jMn5TP7TChrXbC3C6Kg4Zy7mYdP9IQCZWhf/uImX8FboH0O0yNKcv/zDg69Ddb6tqC/eDtXNfLfNt1aLZLgCzfr8MIfPn5bZNMq5PVfzUa/RqKsNrMfvCkMOhO+k448BAQzELyAgICAgICDgYME+ET/vZCbbtux1R9vJj0TsNE7CkyRCndoY1JGlg4nQDuhse09ei/h1Q6s+9Zvz60HyZxHqRMfRJxaz7Rba9XbaSRWm0uuGLVq/1VbTrzzZP8BkNMsLdaCT+FnNucacddrH2Jz57m2wTB37zqa6YCY7Z0P9APTGx36mNtvvz0uHfemjb3t2WbsHOocbHXMOeVThs3xPVIby7nvFpE0B1ucqG+kZRDCX9FUn+g/zCuJcgWswoBJre3IWB6uwBu93HYrrlOFcRoFpbpXrqh6qUwVXrblSy0/rRE8WktY3JZfNyO+ecJxkMoH4BQQEBAQEBAQcLNgH4rcNP0kXCOcEOv8y7mhaTGtojNDiiGjZxZKmp6sjjSzmO3EHEpmYXg3M82DKbIznRetPLrNVBrgEX+DOj+9hSxPjJkTn2sOkfXVfAAfZvOyoTy2Sp0lDXEb/WdqriYtGiJNtiLsarj7BnCg3gmvKQFlfV+u5mszrqKr2RjKdhe7aka1wZZ3c1d9+hZPxaiK4PwQYENd/7i54AyM9LtI2sA7M6+yQB8pad9bLkOy06+EJrr5USZxFcKVRKNM4763T5Nqz1TFbEee13kwqmVJCplpYBzFGVSm0xPi6ylKS+ijEdlCX+fqldO8o5FxknukyzZx/JHWsZzmWy3KSxvjrGLx6Bv8HDV7VTmYCvKaSKYwFDWQe24bmhi4Jgvhl5fUn/TaIXwbpgICAgICAgICAgwH7vNWTUMcQmeoG0vm0bABxTcBZTbScQcpbfgeogJhWZhnkAV6EoKOtrxvQ4rhr2wLl2/gD0JSai01v0Du5LGHU0mwDgQOg+WgLcW3bA3kxKhYBQ2hXp7fVUnewfPoKXztUh9Pn0SIac7XQCe/0+3rWC//Scw8Wt2TaVxL3FVobOvQK9e3jxfbiberd1auHxUzO95ekyN8XovNeK2YdE5axvvsDApK0UPUyiUtLN2KuLRIqrmKqGZAhQarVuYLGuW3EyvoK8sUjTgFdYYMO6uTqmR9PatSYS1Ohrb5ay5SL/oCAwC8jlCrR88bRXiYjaJHTq99J6oMUSZ3qoh1ml6ngT0hBtl6vQcTuMfvFVUTa4AlhMpFWFUxrXTcI+VxOfm/FcskG4hcQEBAQEBAQcNBgTuKXLA47P9WcVEIdTTqp+Pi0OpPMV8caOVCiMq4OlbjYDGAdH7PgwXrUTZhTinhcwMO35aDvEKQonVstMnss2pJV/ZGdVNyyRcviSzOAl7WL77dV8GXemW+BbVvMlzXmIH5EZJeDr+vbng2tutYfvSdKIpjvyECHnXH7mx3bdPcHXg9bIVmxZnxbcb2YfPquR2+rgUSKNrAGS/yzg95edqHTOk/iWoBsLIv3qMGTKWkbAovqsRVVIz8kbdxayVU0I0K0js2y7XqtrqSPw8ix1BU1xFvPzFE1yR70ujaog2XcrskvmBI55uOjpIr1EPADeu17UyMpgwy0azt+PHWbtP2LwFVrQmUQ0iSMsTyGSqXi7OMrPbgiiVCrSTKVknQ6pW3wtE6u9DGPSCYQpy7A6yGy2Yy8bnnY6hkQEBAQEBAQcDBhTuLXLO4wx1PF7ac51D5PU1Gcq1jekfWOYjfMVtYdbKVVr1vtlkUGTekPs9DSJtMuaTDdVmKtEZ7U+ZxWTVNlev0rFbx97H87mN+eN41YtVRH6OzTSwO12KIzQO0HSerWvpLHTmjXSCvabbZnMTvkSW5clGAdNucJEXPcMOp4aoAAV8942EgS5ITkhq35cdbn1ECKaFu1VkUO843QMHCrJPXzPYZUzg9lSIKcCm2HxK8BwkPd0bN32gfaiKtbDWMGxBVsm3OE5SqDdIKvPmErkHdiWpaC3TZH2KhZ4UFZEkuSwRr6UK3WVMJ0sh3YiqvV1xraN2mCwMW+wBn0W9uBBA9gIZFjPyMSh8Cx4nioTSkjr7RIdSDNMhI/1zPrI+ziNU/id+KyQPwCAgICAgICAg4izEn8alM7Y47mzFBnF9fo8JR9gF+9Q3ttoLPpaYnXy4MmfFrhKmkKeerMWioGOK7Iitvf2VYEFFBOVwljpIhOL4ZF46bGnOV4mtLalf2C9SqOaYRqJlt/ZrCduQxG446YcnQ5Mfw4TrMTsDtg4xW3W0mTS/t6VMMtlI26rgVKVd8Px3FEAUXchaAs50mkAxl68AjvAQtxYZyEpA5zqYcrdWoJX83hSKbdWyom0fPaUY+lej/tvipJpFIHras/Lc62VA8IospTLz9uVZhFqksD7GE57ce1Wq3qyZplrr5pKWQcGWOKBw3lkcznc7pCBwYme6fKWoc28pMFkSOp4zv0UiR1zE+A+OFKkBTrQjfvF/qipA71GulWrxjz46FE1kyRGrd6urTeG44dZVjMPjCGf7lcRk5/4+/qyl9AQEBAQEBAQMDBgbmJ3+ROkyQ0x6D+bZTUlCLuVE4HKmg+3eJu5QZzNn25yRv5Mr1WAl2qrqXH8YoILVfXdOjPDhkPU+PbjQtRi9Pj23JOtgJ53LFJwkF4UujRfRwIypnT72E6GNBiuxqfDS7WoY/OuYuanexBO6ljLgk5S1pq2xvQF9C7uDam95rEyXJMtddLu31926oYjQ3IoiYR5TNvDYiyW+QT9VpDt0lyEyNJBuvQohraUnKn9fkD2v0A4Gpj6Gx3+doblbX7wzb8abGE3UfMGhAy6iIZZE2+ksR0sILZZpLMZlvoHeqoPUxQFleuGPLDvEa9Jg2QMcown8/GVSq2Osfn5tLpjN7LSqWqOnn6JtugfA31SAD5bGUK9vJdeIzn83mZV8hLTwqtpFNShVwik5EpcD6SQG8jiZ1a4sifdcXImpEztmNjw/YIkk+lbbiSDOpKJm6M9oXbWSnEsrYr/+mPaAx0XuFaADE9c+WKQPwCAgICAgICAg4i7BPxUweY0JwWOpJtiOo4qP+IjydI04FSp09fgh6RDIIFVqjOq7vS6dZ2fMWOrZNw313MQNF2s2iRwdvr3N6u8NItGcsx4mdtcQDj8PnTgUpKkpTCaI6ZMFP77CuJVKc+WhBvE/U7XujNZ8C4YqpbBVW+sw77oNRA436M7KXfJk29RiiR0nEGcVDbDRw/3ttag6us3JLZkDKIj3DboJbx3vPeIjh5j4iU+Dw0QfLloRNzGmNn2vqhQ4ykX8njdFBdSOtkpp1Msw2K4mp9oj1+Tlr7jJOg0n4+A6criVz9Qr5qR9+4KswTLq0N6IZsA30lKeMKWxqEjUPEVc0MSKDaQOKohjG/rit0KebzgzIelJLlM3YYjSp1Q5SvV5BkRokloTbBDl1FZNuAkj0X9/nWj1Y+EcloPjPa77+NkUtYTyNwTlt924ba11uQt5y2Ql/rEBAQEBAQEBAQcHBgTuJXndgROY1cdWNc0xDy3rOWIo9ObJTn6nQCfqM5wA4Uo0vdyrE0HWxCHVLNNAmvV0t9c9Sn2ebMmgzJjskanB5TG9ng9UX2WnYLyFZ7AE9GfFr7C8SJX7xvRLdx0D5ptne+WYfjyni7PNukDuqHy65ttRxxp0tJCfpLWXYwRvyomXwItzVmC3Njjj+S1KsRyJgU9CkhQq7rk1qALO48JHFooL0qmiJBUhtRVkG+WoO0voeOulmZRAP30O40n8Fja4izSRbzpzVnYJFrl3KgZxqP91vHAdkklfxwLZGlPKCEynR1jzHUMVUJPSRGxxJkilsuK+WqEjRubWQ+9WZTaSVRpWLRythXpKmnp5BXcod/Kuu3W2bQlCd+yJA6ibQST36hrG3WZ+AqG9N8hhIZVBTls47OJaYR+J1j2tdVOXelXsvjlXZSnuPgriSpbFpbs7FkGeU98eMYGlrlFrM57X8haImOJ8agJy9nBuIXEBAQEBAQEHBQYZ+JnzqajiwwroCDS2jK580AFkd6HIHyoMNKeIfTNMb1scS15WTVpUeW5qpjCjhnVh1nAC6zXllOCXVpXVYndJUR0M6b1gh0honOfA8OFPvgicO+gHL+cBeOhx8bthZHRDZRxpMY+SwZ6/pVKiuzdlWnrnrZCpEHd4dqdgTa2HEPaAOu9oyX9QFcSNPsFwlQRVe50Had5MJ08MXgOt60n3X4k0VOhz5wpm2jPRIdZiXsNRtGVP3oTkdr3FmbejlmnD+ajSvuMNXTZCUwtA+yuhIskkan61VuyeS2y7L2oVSvmr0AyV6pVNY463N1Lp/LSm82p+lyuYxWuRUVutk26mVAdmzac+soD0bhdkt8M6gS+boChygPU2E7el+R9uPIOEknhUGr2En8MzmdQ8yAvdzQqZ1wnSW516sjlATbtzmDKq4t2kIoKTblLaCIpTZ12u+/B3V4Mqhtso4fcH550DbJbyB+AQEBAQEBAQEHF+YkfhUSPziA5r56BxBQn9J5layIoM6rc1BbaKW9k6okIAY2yLJW+dywFSqAdVDf4s5hdXr8Mfe+nCnN0Z5Z0FUMV93l+GQLdLT1n9OH+ox5h1jbIyGihDrlGFAth/OtHANllEUg2eAzXgwcB74E28hDUgdfV32gj6FWq0u52pAaT3eEIl196rBOU9DLI/m50pXOpCSXww10pJzgOJjFBPvMn9yS2bpfddjN99NVYR/fQWerRyQUtMW2GJa1nj0rl2ymJdGA3ZDTlS0wH46P2sc8yqA/rOeJvr70HOk0iB+Jiq58QTadTEuF2yrRD26zzHI8UiBtkPWBzyjSJnvXHEkObFYChTGmXairfAVXtY9jAp7JVT+9D7QM1ypvCAQoRTnjYIyBKKJdDe5LoIedQHcVP5i2w2hiQELHEMHbxEyOmfWPeVbD31Pa5ceWJb6Oljs7mAkLVEYPaaG8ltm4KgFTmLzWZQkLNcv+EECYFl8PcGKtjHbQnqiuXSL9zGdeIH4BAQEBAQEBAQcfZiV+FKiMt7Z6doKOrYIVESg2nfh5J3Um0Jm0rXSqYB9hz5fhE9Whi9tJ/PQSwZMyI4hu9cmtjpmDzGtHJcJtnbT+WjtcIeRgaVuaDYceKoz+2IpNIsHTKpEJ0lIBiZicKumrBvzpjlwBI+njcfskDkqQoE5tgD4SD3A+lfeHcLDfzh83IJMrZ6xLe9JpkMmsjQvT2WxWMkoK7ebqlkZUatStD5RTvWiaz5TxoBVu3yQ/SnJ1yY8v+8deJar4CVsbGciktetc/UphsEmv6tSnfUnocf+JBjqAfqQRZ9tUnCVJZFsgedVyRbLprExhXCosxu3I8gCTVB39x/yDTKlSk5pj+hX3PjoSNI6UvnsOcSMlLrAE/TWSahb6w1DYd5XgbcFcpdV6X2EPU+wv63vSxvnsRl63rupo6fxBb91cV+JHCXaKV021dLI9KzHARLvGMn3UiJ7ZTJAAqk2+kgpaC93BEtR34p3wNk8D5LWNWHF07wHOGv5hgTK9IH5v/v1TAvELCAgICAgICDiIMCfxK4/xBe7dncXp+XRSXVQ9TyacExs5rnBaKeTTBBxpTxZaiMeng4tH09tvET/WpmNtLrKRAbjxaINpOu2uo47UeV16YX4sz4gf+4arZpHieHknw+2FIF8kPlUwltJUBUSBZIE1kyAuTSlX7Gh+JbnIbdTpSFt1T3z9ahBvBEF7lYQwjqCrQq6Oto0ASqNxBm5zNJJoZCGbySo50ir44ckr31XHNvjONsqRFCsRhDaSDzbIbYVcVXPNKVWGpPZe+bLWAwGGTiVrHJ9EXQkft01yvOrlKclnuZLG5+ZMHxl5vWb9J/9NgqyOV0oyMjklmWRW8iCCiZS1ROJX0+Zgk9pv/eKzdDZGdq94pX4Oj9rOHxgHauFhKuy39VOLtY79kYLjZWMXDzoWLDflrTJNcXygC2ltnTK8/04PjUASV9PPWt5KwupFqgHOQ7PLt0A1Cu2vRS2P99jmhrZFQMDrsvq8x9YGU1bf7PV1fA1vm18h1j/g4KrfDSejF2RSD9sugPi96Q0nh1M9AwICAgICAgIOIuwT8TOysG/Q7XyAOtnqZE6va+TGeZN6tTotoLQzCzCf1epExM/LaZk5xF5GtyGqc48UFCp9gghX4WpVbsVrSi5PghKzh+RBr6rCwcgSM80GK4jsQZLPyJXKdZkA4SuWq3qUP4eN7aRSGXWsScpaSEi1CmISH3R8Km51T+3Bv5QjpoRv2po1ksgET+xkfYMRReq08eF9AHFy95BEj0r8s4Mkeaxbb1ZR1fqeoYx2zralUjabTcu83pwUJ8qSBsnLgqwVsuhbAvaij1wNS5HcoVZvT4/q5tCPTxUlk81LrV7Tdti/Ku0hmxOMi6RF0k2ZqFRkslqRdCIjGb5A3RE/bjttwkbqMlID6IX9NSKjxJjlarOlTUIzbXWVaYw/SyinzzKqDgSOERowQm5zQWUQ9L6pXAycfFoNP1gFF6+X0HvJIkdEOc88oYr0It/rtWqud5pl7WtMZamP9wt5zKZuplw/PXRFk/Wa7K/Vt59mk7/64MG4rdjbLwJt2+URagqjzpZ8Pgvi97uB+AUEBAQEBAQEHET4uRI/up1+25o6j94ZVb8y5njCBXZur/5E8yjXZAS64/wZrcJAgE6uHhBiypmpP00HAiK2qkNxvigcBKMEgjFZBBkwXSkQGN9xrlTN78lKBj4286wmW2Y/zEL+5PNxTOiKFsamBJ1TFVzLDZks1pCHdrkS5rZ60mmnLHmfP3iEhKJW47ZFa0sD9Wsh+gYldLxBeZDr+oUy1qMd9qyby8OY++2OSgaSjvhp30loSPzMfsoQGWhmmd++CGukryenWzYTIEo9cO7TyPX3XlfxsiJje6fQHkhfLimHzC9ItVbGuCZkqlaXKvparlIu6+olpFSDfvTfnsczO6ruHXJqC65cNazgZpELsscJyPCZQY6j1YKt1EdZBmbh6omvjpn2Qi8a08U2S1iamkFoa2oX9bAcmnGPPFwWJNvRknAlEOSKoEY5uOwGx17toe2UMwKqK7DI4zZJtR31KMaXsHuyxUBZHTPkG6jLWmS5/2KyLgsY98QMCUu7ug1H/Fhq26httVM/yNRxZ3BQ/Sx3eWqP1vG2mB1GjEW3eL4lbPUMCAgICAgICDio8DMRP1Yk6FCqZxiDKwIsYmn+oGC7cJLPTHGrIQKJlBIlFuAH22ZerZ5QksKVIz1kA3W4lZJCXGnioSaZTMJOXUQn6JDzoBAekMIVHz4vx5W4KZAzntaoqzYAN0XS32WbaRCD/gKICzz9HMgL+8egK0XQp9v/mG7Ciad+bqlEuqrPoTFNIkWLzNk3x5nKree2AmRkirqMEJAE0IlHX8l0gNbNSIEMoV3mQzdyVRZZyNe9lma7GyzaRN+fz7ZJIgsCVZXeTF0G+npASEv6QnCSq9HxCckl03L44YcL7rOUi0XpgQ/fD+JHZ75aLumzgeie2s7TRLkGOYV7UClVbQzQKLf88VAWipFUc1tmpQF2SGuQpp3ab+hgxOfV9Rk55hnZ0Q/7H1UgISMZgjzaZT0kdExUh1U2WQ6Ay1FjAbNPZ6UVu3ydFxrzObhiaNk/tt+y0+6D3T/oUrt4/71e2EHbaAvzKMx7xitAC9kvb0d0xdxV/RAk8WOclfjHCyNV9kVUo5nGVe83P5q0cWOOETVNqpySTarAD09Kbcsu8vlP9auoQrfwuv7RVrYb1aMqyPtTZ/kMqs9jG/09PfKm3wtbPQMCAgICAgICDia8JMSPnqV3KD1aZQZL8gdlzaH0MqzKGE91LINITBRrUq3SIa3jStJGgpB2zjQ5AK4wiaSOTjGfH+OhJqkMSaCtz1B3E968rmhB2AggWZl1UlcC6czCYdb2mUT7fAUA6UE6ndZ6lNPtkAh0lnkUP+XpuLMNOuyqC0SK/dJ2maevPGCvDPS/NbAc9ushKJKWFNrLg5DxIJUK+4o+06nX9tGSJ356Mifscb66kj3aQX8fVFIdf45LOgXym7TxknpVFvYmZOkhBamWylJN5aWcSMuesXHdTjmwYIFMTk5KtVJBf2xFinrqHCc0VCW5RmMYQSWMTNs9YB/ZKxJcGz/m61hAL3vmSSzjFGUdTSuZIyGBjOqxsSA4/gRl+VSipvHP6pDstBM3L++hbTDPXyNpAFGmdLuti2ttyNIOvR8xdZ6kU5CHBFGlP2CHCRsDTSmsbf5zSpwd1MG5o0SNq7esgiIleJRWsZYe5jP4PP2uaNwFZ4xmobJe8NPbyh/8AwRttQNwtDmVVVsQOF95yBC/K/4L71887+c9viWYj00pFovaVg3y5VJJCfjiQxfJmW86JRC/gICAgICAgICDCHMSv9LodhWIo+WUqkvZBl/WWce5nw4WVxno4FbAar2ppzfuHZ+U8UmQNN0OCFKgxA3+LkiSySOOOrpiBieUjq63Q3/GmlFXG3VYTPJA4pRCwp8wyfwEDyVhOeVYyZmth57gQ7LHlSwjflyxaeo2yEbTPYcHkJxSCZ1mgo43D6zx2xv1HW4gdkYsSGEI1G5mEeCgK5kjATLypKXQR46SlZoUckYQYYIUq1Wk8/qS8QTGjA57uVKUbC5rxAjVK+hbGWVNOP99mYQUsnDcYUMJZLCSzGOc0R+0peOjY8gVxBZ5o70kZw2QWRJRkmOV4wmdAMdKgy6Tsc9MO2KkxMRkIlAWFxstgNWcjH2sv9F8QoYRpSipUBlcI90qr7Xb8x18qyyzeWAaW/MGA8q+KaHnfLJ7SlnKUB/t4JwhvH67j5CkPbxJltIrwXx+kfResl3IMC/tZLXfqsr+wFCr1ay+U+HttPYQx71KY/5k0ny+DsQQE6bIlesK5xq6gDHn/Nb5BvF0GoQMdZII46N7ZcnSJVJLZEDo+VoQ1SxlVK6Q8Dvyx+25Pf19ksvltN0G5k+5WJM9e/dIDXOO84cL7Pl8Xg6Z1yNnnfa7YatnQEBAQEBAQMBBhDmJX3FkmwoS3vHdF3TKapL+bHxZBaDjOg4ndnyiKOVqQiaLFX13HbxlLTeHmCtAdNYNNFC3AdJwEJ9CvqCHkDh/Hv9823TmEVffGY48AgkUnW1uD+Xqj9I76OO2TTrOdRAxkkoOBEHiWSV/g91wh9WeXBZkxzdBW0gcUJ/EC0nUZ5NcsyLJMDvrfHcdN0wi03SjXhW2IMqQYj4K6YAXCgWZ5I2B3kX9vZCsQgakCnZNwNnnCieUQDcJGogeDCQB5BiTvparIKPsO8oysIm2VdF2nWQaBJr8QGV1wBiHjTRW4wxGehBTMuqJX8rdApXXUsIOFGF15rIPbUD/fY4nNNxfae2YBo63rqrG6vK+ED6Hkq1SB2Q4FdH9op1KQFU/DObV5TPT266TnERMCb61l0IB7zdt0bqUg3QKY69xtQ9zBaQ+AVKsN9NZxlg3RH1E+2wuesbTVSDx4ryjBmeZFQDshyRrugrdX8jIUUceLtlkRcd7fKopO/cUQfJhD+pxlbZY4rOrdcnk8vjK1FC1LON7d8nRR79S6tk+mSoWtT0awK3PpVJJ3xHJfvX290sapE7fK+mfR3QypWKJ1sg8EMPenqxw+p98wmtUNiAgICAgICAg4ODA3Ct+e19QQSZAHfCTjimcbGTYe/HaQedWy0wADmjLkTWgBPVAVaRca8qe0UmZmEQ7pTJKkkoEjaxZPXO24XwnzDm2541AhSpgQJAlCeot9EgJ6TLqcaMha5AS0ZWmkxuRLzjzXHlLJXgqJU+UpJUmg5/qaOsKF1NoQ8miFtiqoPVdrdSBMnJgg1blahhlIUJ6NZAlm8tIDRZxNRMigK0YkthxlbDZTNl4oR3dqgmSlkynlPzR2SZZKOR64ZzzEBgjNFX0RVc7aTY+vHKcbQWUfSaJhe12i/SHkiGUKwnhPcHHVrW0suZzTPVWWRZztU1CsyDD10YQrM9/VKdXlTCoChZ4XQCniemzyaXjZoIs1TISRq9F77mziaAY6yh50wz+w/30DBZy/NB+rnyx1O6PFqleJaTUSR3pLOYR2AvuWQJsNp9uyGF9OVnUV5Cdu3ZJA/NpAvOSRDmRyclksy451JuHe9qolmR8siqp/HxdEa3o2NucUNMgh1bQHlf8mEFL8aExlIFOzlmu3qGS5DIJmT+/T/aMjICM6VRQEqd/RMBHEmDx9TIIX1kWLujVA3fqiR5J5A+V4b1jMjoxLlNccManUavJjuGdUgNxy2eS0oO+LUC/jnr5yyXXtwDfmbL+gSGXy8Kihj7HyS2cJItTxYpu9ezN27Ohk2N7JZMoQ3FTyvhulopT0pvF3AQ77untldf87psgb89zBgQEBAQEBAQE/Opj7hW/PS/Q/VTntSFwQumtMoBZRC9Ej8OEnaNLGFmIgGy+0268WJWRybKMITRqfhsnnFc6znCmWbvl+JP40QIDnXge8mKWgI4grQe/QCLDOvhXR0jRRnxMJ31u9oFuOXx/OtbaJiRgD3WzHUr4l4L7FSO+roDO+rx582RsbESadT4fZStuGTi/uuUNcnymSjXAtr4Cn89LSgmGlEBw2RTfTk6deSV+JAoZJ0+r+BwdyA1yKazbBGEp3zeodmlAqa6W+TRFQRrduCmRw7/WJlRNuv6rsOYpKdJYa4zjNUwM44QBZjnrUgdHO5JnPtuLqlmcxZRVooXg6zMwzmC2cmzZEO+13RPrM7ON1DGvrb6fpAiIaNyDMdbWewlZHvJDsK+Er6djCELOVbR8sirz+kj8qrJ4oABil5ax8QnJLVggO5/dDntAs0C8t+1FXrkkh/VkQILGZefYFGSWShk0rJrMSYXbarkNGPpJprh9OJXO66E/EyBmNRAy2pFMQ64K4oc4+JX094ocdkivHLF0kewZH5VSpa7vMeSrLngwUaVc19eBTEyMyJ69O2APvjMTdakkF8hINStTlarUmyUu60pPviCHLlwkOcxTvm4jj/6T/PX3FiSL+VyF7jLIG7eMLlq0UIolEFuMMbd7cttnuVzVbZwCYrvjhZ/gW1tD2+MyOTGBumgH/ctncwhZmTcwIH/49v9bcpQPCAgICAgICAg4KDAn8Zvau9055gjNCjxrCPh1NQh7p1xBxxr5VKDPTCGf7judfJ7MyS2RZTizxVJTJqfKUqzU4LhCZfxIfdRR/uJUGtg2yVELth0TBiOXzzLB49dzL/KZnLZZoXSDzn5SSaLWgbMPK5Tw9eTycNZpo71wnO+XsxU+bpvkQKCPmmb/zKHv7++DM16mJvSJznlNt43as33Wlm0ZRRvQwXfQcdcq+8i4jgH0YXi0fzw1EdmxdowYaiHHkrIgfkqIEHgl2cYIazu2wsd62r0IHP+OLNRXlaqTtjLu5XR1CjYokE+FOgkc8aPdlufuk6lQXbSdq7As54f3gXbph3msB3G1HcHDt0f9RAZj6Pvp2+SVZC2+DZTt+efSkGkyjMdAokUZreF+sD0Seq7nElmpykC2KkcsqEhPbwNkpkd6ergqVpNqfUomd41JT988Sed75IVnd8reF7YpMZw/MA+TrFfquXny9I+fl0zvIZIu9Es606NtsI88pCeRKXCmyeTklLbHOcbxLE2WZfsLz4FfjcgJv3W4vProxbLwkB6QuBLI3ZjkU2CDmHtjE1MyMjIhoyM1XdXj+xD5DN7LXvEqSfUcIjtGSjJRLOrL8WuNEsalKYUMSFkfVwXxDUBjZZDHkfFJEMdJPamVBwT19+akv69PtxJzJY/3ycaL25+TUgE5LE9NSD4HklstS6lU1BHjnMukCxjrNMapIH908Vshk9O+BQQEBAQEBAQE/OpjTuI3vmfYnGek4D4jgkK+zkBTRnT4nFC5AqoFGb7Ljc45yVYNjqfKOTLEFQaugtRqRmbUUUa5d8bZMI3xxE8NQWDjbcSPEQjwJeLZNMkBHN1GTXJw7GlbBWECNqFZkwWohs/vCWS5SmgnaUI/OAu3XtI2Bj77ZOrhEtMQ1CMxTUM3E9ySyXJz8s3R50oYj+fwfaJtfH+fVmafVB/aV6Lm6vKKn7oFk+0orK5PcSCSxo8UWscRHm0XgePDsaViXQkD9OAWJ6M5zIc4L0rKXD0bW+SzT7RbE5Znq2pmCeV1NRHaGFeiqgXUx22vtjpqekGIUU4tHA/fDvvsCRrTpr9lg62wor/MixE5X5+IiKHLV4ti5T6uNrq2CcbZvqahmsOValalP1WSVy6qyxFH9UmhPyO5nkWYmwkplndLsob5hXmRTGdlaqQsE3vHJQ3S09c/TzK5HhmfqMpDj/6H7BqtSjrXJwMDCyRfyOuqL0+hBRO0+4VxY9+0DLrY+NjYbsy/mrx8EdrNNKVUHJdmKiM7du6V4mRVpjB3+UeRySK3WPL5V5TDcLax/ITXSCqbk52jY1KcKusfO/hHiyK+yNSdUXLLJzwTesBPsYr5zP5CA19XQqLIFUd+D3Uewj6OC+c3/wjC5/p01RJ5KMagYsj0/vJ2Iw9t8AXub33LG8LhLgEBAQEBAQEBBxHmJH7bnn9eVwSUFJE0wJmkQ8jDLeiM0rHVo955xCBQRaG9zw5C0JDkkhbAUwHZEFrQ58/osJpnCX+VDjnTCHW3okW33k7hpENPQkCfnQYigmpJOtSIZjOsW0W8IT25LJzupEzWEzIBO3kyKD1XdogrLuQT/rk1tq9OL/Qp6UCe9pFX1KExLFczNW3kiJTHnpdDFmX4k+OBTimp0jS3nRp5YT9IjoymmJOtq3rI0YNTmIcPgeoW5w1gt5DBfpIMaXMoo306jlrH9KkD724iDeNJoRZnHbsYCUOcY44Ix1IPN0EhbeBqrMpCjrJcBeS2Uq1MMVz5vCYt9pm0gO/b42pdTcebJIfkgCtIoNcpjjnuN/84gDmUUTJk7bIu7fCEU8cEmRmQGiVptMOkrbkYdJIyuLQWQ54vUSeUgGP+cdSov4q2FcinXj5fStFsoiJL5lflmFctkCWL+yCdE76xoF6Z0LGvQagGAl+rYk6N82CULMhgL0hSHnJN+ckLu2QEBFDfS5iogZgNSG9vrzUF+2gnn5/jNkleub2XxCqdbsrAvDzIZ0OKE2MyNjIGkleX8cmy7B2b0JW6JOZyCuPFg3/4bF4Gc5QrdTx1k8+BTpS42leQ0hQM5uOK6G+a9xVtsnOcS7xynDi/9buGvvN7YvfEj56Nn39foAFlrIv7rR/VQ3nYj7nVAxJ71umB+AUEBAQEBAQEHEyYlfix4PF//5Gu6NnLyuk/wj3UCnAmQQ4YJ2HSfPiGfM6OPjxl4YLCGYXjy3ooVLeSDmYDxACNcA0tC6c0DRaWIqlApQpXjFCT+nu4OtGE085DOOiLQgHr8fk8tkdflESwgXKuZmTgJZdA/CaqDSlDezUBogGdJBJ0fu1ERSNJdOyVMHEthGnKoYz+MHORtHzXH4L2a31YSOeYZRTUcvcsHg1VXewfnXDGIUC32QifwTvohNbjlWOorrZB810ZySPHWwkc0rxJClw4FhC0BMp5OiWh1fHRLaZabgWsqe8FhA67jyihDuS5qkrcCNqgJAsFCZIgKCcn9PevN5eUQ+b1yc49kzJZs5fgN3HPbLtsUnK4JkDMJyfHJJ3Jw1b0IZXRsVf9uFpLsBGkIp3Nqk08hAXqkE2SamNFcqrbTmEvR4nDyXlJksq5R420V21Gmn0kmGZ7fE6T94R3Q1e10Nv+gsiSeQiH5CQBYjdVxnjVyiCtWZmsYO7BVp3nUE7SpSdmog/VclV2vPii3o8yvh+7Rlqv1OB49fbP1+2UtFP/oADyWSqXQeK4XZrz0fK5XZjGl0rcnIw8zgGOLbcQZ7j9UrurdttKHZ8X5OocV/d4OAvSXPVGGeUIjhiUap6moY99NbTuM8czl+dqtxFjq4+fHDxAtVAcNvH0XL5rknO/t6cgZ64MxC8gICAgICAg4GDCrMSPhOKR725VJ1M9RfiD3mFXIkUigjRfBk2QO1ThLqagMA33OgkC0EiRNNoqGrdMknzxiTg6layfT6ekL1WRDGgE3coyysfh8TdB2nJwevV5JeSzLlc1UqjDujy8RT1VtEnnm5lc4GuA+FVqXH2CE42O0LlmBxW4qiwCcyybxA8tuzzawKAkDHn0gVnimrK6kLcVEAPdavZdBw7B2sNgkjDwo3pIUKGZgtTkZBn1baturWm6VF6zke/G3Y+/Svq6CKykdqCcL2enapWjDJthOTJZjyROiR/6QBt505mvdqKOnpyqdSnD0ebwsl8YTxI5EPUM7ksORODQeXk5fME8+eGzO2RvGfc3jRK1u457VZcF+aYsnM9TNJuyc8du2Q2CmOw73NrjGDvdJIw8wCebaUq1WpFyBWRIbcvAXshxvHlloG2oi1urabUf94TEkXGuQHJ1jM+gkaxVQLb27t0rfczLZ/QQE8b5OoIMyGC+UZJkvSLjparsmZySOogqSY2OIfRyHvMU1qnJSW2vXCxqGN4xDAHMr0QapLdX5s2bL8cce4xMTkzKxFRJpool9Iv02Oyk3bw/eg+R5lzUV4vAZuaR0HHLpY67Na73Vb+UltIVQ95n5rGOX/n094lx04W0mwRWxNrabFSX3w2+hN23x7mgMvwgz75pXh/nK0sa0gfi95bfP0XrBgQEBAQEBAQEHByYk/g99PB/qCOoJA9OME/4I2Eg8aMgHXBzQPmCar5mvapnVebod6KBCuS4DZAvQYf3D7cRjcDJ1+egIECnNwvfOKNlXPETKZPbkKm4LZLqBDdBAdEOEmoH3G1zchFXG5Cq03GlrwzSR6KkFI6eLqsryaCt6j6rA8z65jabc8uSOgsA/tSBYF3Vrhn8qQRUHW6k9Vk1QFfz4nFu/2Nc2+L42XZSNsy2DFZGaPuI82OCBs1zMkRcnkZ5EqBjxIB80jZN46rb/Lj90uugGKIJji1klCAgs9UuJwM04H5yDClj9pJoVTBgXNWqSVaK0puuyeKBHjl0fp/8dHhUdkw0ZHS8KJmeeeh+Q3pSVVk6kJajjjxEevsKMjz8ovzro0/IoS//bVl4yCFKyKq1ury4a7ds+bd/l16QtMFXHCr98wqya6QhL+yZkqUvOwr2YD7ls9LbYweocJVrbGwCJDEHvb367Bu38hbyOcynhL6aAPNXyRr7n8/lpQIyOW9ev9OV0/nAyV+cHAP543glZXSyJD997nl9ZcGigX7ZvXObTI2OidRAQssltZenuHK7ZyKdhX7MdW5fxb2tp3NSgH1Lly7V510nxifcPcDo4urvm13dPYOtrG9ja/eDZbywXO8Jgt4DV857omQd/eJYsIbJ4Yo++bb0vqo+pwNtaYplqM86ZonNFV2d1rq2Om5bZa1cI4AdPlSXQiEvZ59+KshxeJ1DQEBAQEBAQMDBgrmJ3yP/oYJ0KnkqoncE6XwrIYD3SKcyl83BiYUjK9zeBiUgbk04mGXEuX2NvI80TgkdSFEVDiSf52Pj9Cu5PZGrOjWfB90kK1qKMr48nK874Eof2+UzeiRdjEPMBb4WAmlWUSKGTNrOQod4nB3l6iOhenhlZRJIgoYhF9azoqV9eUsNQBk65OgzU2qMOeBmHx1yOuospc22CsnnDb2jrqBqfpCnyXiZA/VpPuIUoxPPtK+DCo74IZ8yGNNUNqNkxOqhXVTm85NengSJ2wojW7WmFkbtp0GOevNsOy+JellesbRXDluYkZ5kVVf+RotNGS2lZGjop5LoXSBHvOwI6U9VZH6PSF9/RjJg9xPjU/L441vlsMOPkMMOO1zJDgkat0o+tfUnkFsghy2ZB4KWg2xKfrqrIoeB+GWyTZDMtORA4DARlSzaS8UTSr60/yAr1TqfqavK6Mi4jIyMyKS+C5GHmoCYoW9ZvncOXeNKH7cvkwxWQOj4PrpKuSKNWkUPSeGrIHoLBdm750UdG1Jpjg2RzxdA8Aq6bZWrkckE5xwKUvw+MGLEmZl6S2gbLyRyKLf7jjwSMV5VCEC+tWF5On8Z50RHmTaBe8r6nGcqo9WsTeS4eqbf3zfWZJxbSzknNAd2RH8IcPB6eOEvAW0DceriqiQuqMN3TzZA/HLyB2f8XiB+AQEBAQEBAQEHEeZ8xu/RR5+GGB1sOH36LBG3rnFFgI4qt3jC0USlLJxpOoXcbkd5+sAMfHKJerjAp84liVMD5ZAi1eJHX6qNIlQzMoiKdrgHsr2zzKr6oV664ibPDDqlVK1kix/mM8lVNyuwtP40aGfZUZAWgm2o4w2CBtc3ytMW0V5UDtCB1rJYnvYGaRqlA4jApDrw2rDJ8x1vdLppMw9GMTm7JhN8nox1WYF5uPLZPuELt/FJgDByUAFtA+RB7SPJ4z5X6OHzdUhIGqQkn01LTz4loxOTIFdw/nkgDwZHV0mhi1XTHMtGxa04cfxJvjO4ppHPZ784FknJoK10dY9MjO2WvlxTXv2KQ+Woly+UWmkEJG1SSlWeIpmWUi0p/YccIq957fGS4Xsfa0WpVIrQz1dfZGR8bFIy0M3XXFR5o2DTwIIFKOe77wq6ssab22jmZbwEoo97aAStqpOVq24VvleOcxJdKE4Vlexx3EvI0Pc5uj9KcI5yhYykj88CkjhxrPSAIMhzsvOqrz7gqS6Qyea4gmdjqdD7gSJ3n0mCbEsk8vHh2OhV5xHuGT+8L3rf7Itl9506qY6yvPd27zjujJscvxEohLwnZvweECznH16og+Wmx+aOtoO4kUuu1DHfzVkEjgfb8gSOOnwZE/pHAlXHQtPJFUBuvaVO+6Vg5bzmc1k587QVYatnQEBAQEBAQMBBhNlX/FDw/z62FWIpdahBD+AswlWs0wE051e9SPfTkxJCHW/UJ3VQJxNpXvEPgXU7gHwlJBRQbdRtepjnnU5zTOFkc7XMkvhnsqYfdV1es8m1L8RRUcucrSqgYLrVpj6bpqzRnHW/jRQJCptT7QYoykNQba4Ns9M78s4ewpXRedc8Bq7mAGYN63lHGu1irFW7kldbyeQTlHyPn5JhfKiPY0yikWzwaEeuyNWUu/KwnHy6LgsGbJVr54sjIAdp3Ef2C22BcJVxc9IQzicqkpMxmdffJ5m+AfnJrkmpJguSjpHMJLf41SYgk5TFiwpSyHCVNwsiNyF7Rib0Rfw9ff2y9BVHyOGHHyYLDpkPc2BvtSZVkCq+coDkjy8mJ8kbmSzKRLGqrxvguKMFtW0SenQbcCYnfHl5pcLVURA8kLsq6vNU2QriNK3B+4SIbTtWU21MWIg0iR6zWc77oeQNGbxSjmjdH5MjeN8JnUOQ5SZdk+O4wVL940DrfvNe6PZLtKGKCCXvBsqRmPFe+XmhcpxfiFGHjrG7Ms/bYjMYwIXfOf998OSVYLPM8/bw4B1rw+XjWq6UoZPr22ZDyv0BAgK69ZpRHujD+moaPjx0CRnaitnDsa1LPp+TM974u4H4BQQEBAQEBAQcRJhzq+c//evTEKAjydU7bvUyx1p9RiVfiOhPZnCbIR1npOCgUk7XGjRNOYrQuTWnVsEyFyW8w0pnkzHqIdRh1hhlmEcnHobDGXaa9ac69xqlzeoRI2oOMnXpc4JtcPYheKfbNLEq8vRjccKvrHjoYOHKUh+Pl/t6tId1uWWSL5xnH0CLWuUos22DzOOoGeFpgtBRp1IKkK+arqg6vShgi9SQQl/5NsFMpim9ubT05lOyYF5WDl/ULz09GRmfmBC+VxG0QAnWKAjbM8/vlmS6IP35jCzuKcnAvH4pgQL+8IVxmWrkpLfQL/Pm8/UFCSlA5wIQvZ6ehAz059UmrrjxQJTde0ZkbIKnWuZk/ry88DUV5WJJyuWylEsV3Zbp3+NIsxvJHOqC1NXsREy+8Jz94bzhs2y8RTxhk3YycKWQK5QJPVmSZI/jZyuUDDoQOpZMY0Q0j1lcucJcQ5rEhe1zsNiWyfEUTctjnFtACRI/fc6RKtAW75ef00aeTJ7wBIz3oNUsFdqc5XzUL5XPd1Ksnkrbl435DLSRaU9MmcfXOLCa1mUA+JM6CbOD3zUebMMDl2ye+S2wXo6vU9HvkPaNJNW+g5SFoOkHLIkfSMMSJCxtde3+8NCcM34vEL+AgICAgICAgIMJcxK/v/+nf4MAnUmeccEte3Ric3CY4TSDCvIoefVEFYybs6uEBIrtsBTGHeHS1b6W0xo5nAzOufRpxuhsE5qLMivHlauPbId1nIzXR8ddVyT56oCYDMtMO1VZp1u2MCDOFbVIinbwA7i65jRDTtsxOR0wKgC80+7TEbhtDjbzIJt8CoQYZGeykTEywmIOMMaZfeNqJokNt9r1IdSRrtRRu5kFtTN7zHaKQx73CS4/CFJN+npETjjmMDjlIICZJEhgDzQ2JJtPw2nnDU6DdNWlVKvKth2jIARp2JSQQxf06gmXxXJTxsoZKTczICZw7NE+n8ObnJySQrZHJib3oE3alwKRbMKuqkyVSlIF8eB48LTQGhhhuVzjzkmQOyN2HBceZMJ+cg1NJ5ojTfZOSI4liCECo6kEX/mAHBA/rrBxSy5ldPx1fDn+dpqsnzN+7Emg9F4j7Z+38ytomo/Qdn80auPq870869qrL6wu2+fzkNxeqn1CnHW9DQTr0nbtI23lx9UnAdYmEHiN28E46/g5wSsPPaKg2Y2RIyG1ilrOKF9nYrZxXLnih3mPdgiOMS1j8G3FVwu5pZPkl2X27k30FXn6feW2YQeOOfvLenydw1tOe314xi8gICAgICAg4CDCrMSPDuE37/myFPL9IAQgfckJOLUZSSf64MQvkN1798jk1CRIRk76+/ulWgPBKPTpu8FqNTqSdGLhRHLDGlcNlRzQ8TWnmg3pSgqdUHVsGXcuKY3Ahc4mFwtZZjCHlo6pl/YlbAklUb5w6yR8aN0ip6sX6KhKOmgb5gDTFtWjyRgxQCbreJLHOnbxjjDyEacvbc659gYDySL+4IDSoqpkQcwOX1CQBf1Z2T68Q0ZLed3WqCuEGBM63lyl5Fa9RLIi+XRFFtTGQNLqsnOqKel5R6LNnN4kIz9mvR7UQjsTNVm4ICtv/r1XIl0BUweRqvKUy6IkMyk9gIdEikSrmuyVPXvGZM/eUamUy1JB+/r8XAlkKpmXZDavWyq5WldEGBufEr7bjoSU2zaTmAd1EDwlHbCBS73su26vJFHjqOHKcdOtkzSUf0AgEaGtNmCar3dFyzk/SHqYQ/JhdXj/9O5ARgkZCsjR2bY1zjZ4aWIukoywDYwlMmkTxyvaxlgHdUbbSvJRh3fGT/ro3qENf/85Z/V5NyVgmqWvnuB3Q4mZWyXUMtSnDktYP/lcHfM4Brq9Uu+xySnhYjUa4mM6VnZf9WRNFhHMQ+DrHizp7NVrXW3WfP1wnGAjn+1DQseB3wHMV0hrHX1ekPKI1yDHmpRjmqBu3qIaiD3N4/2ivVzxI/F765m/H4hfQEBAQEBAQMBBhNmJH5y+TbdfJ7lMn+zavRtkoQSHsSH5HIhfcqFMTpRB/Irq0OZyBZmYLOrJm71986Svf5H09i+VVHYRHEo6mSRKVXVS9Tk6/oMzirYt8KNEyuAdUCVXiFNG69ALZWC5iqgivdq76VBKRxcfbgtMkfjhU0/qWpLGtZbXDznNwz9zyHm17XAKNsVMyEdOMQLjlFfAO7cDWTwsnQZ54fsMc5m69BSSsnB+RpYszCkBHBmbgNR8cCN946FufeT2y+Hte6W3ME+yuYb099ZlIcjc8I4R+eGOKckd/ip9hUEhl5N8oaCONwkgT6D0Ny6NDr/s8LyMj43K7l279DCVqamKnkLJcq408kCVMl/IUCpJuQTSByJXrJKc2EokD6Dh9kqOF1d9OT7sHWN8Rx4JALc8svtsn8RBx4PkWmGrblpJk7Y65YkKy3lfdUXOExbkax4JGz58LYMBrStRs7q8p5RLc5ukG3/KKzlE4KpijW1x3kTgNk4eygJ7QRZpG3XZ/KOctcWtl7SZY6ntQD+3UJqs3W+L27y0FTcbd84uI5rsA9Q429IkhohyzLhy6fvIcfXknZK0QAkyUmyfuinDlVxdJcX84LN4JHSsb3ZwjrIx2Ix800JtvHMADWUfaLeeX0v7UI5sVqUOJXR6b2AH/yig/XH3Xa9mL2WRUht78rlA/AICAgICAgICDjLMSvxqtYp8/OPvlUqlISMjY7Lg0AXS05uUUqUIkpWXei0l1WoDAY4mHEdUBxkc0e2dPb0LZWDhUXL0spVwHuHwojE7SRKOZOSXmuNL55TuqgddTBpFH5UlJAHc9kj3NQpKtHzKOetwk9XfpxOLD5RLSokmHFY4tFxfYQlhjiydbdeymqENqnNLfS6brrevRZWaCb9YnWYDbHDH7tszhBgJkIueVEMWzxM5+ogeySbL0gM/uSfNQ05KIHwZkDQQNlxJ/GjbxOQUiFoFhKAXhDmtJJsEZNeLJfnx9qKMN7KyYEFB2+OLyUlwGjUQCnzUdNc+t1fylMrx8XEpV6q6+ppMc7XPSAzRwIVbA0mCdKyRp2QN0HEAuDLox0EFWBVXkgHGvS7VqxmaVHgCoboxWLSVw2VkCnmuDYNNQCU3vI8IfP0AV9q0fdXLcTUbqZcEVO8KEiRQqo1zkIwGulWftoF7g3I90RIfvow9raTV2mfP1R7XJ4435f2YEOyvESCTYwmr06wU9Bp54h811Bytb6Ue1obOJJSxmGNCEbVD64HcYd6xn9pnFKrduEdMR8/sIdS4ask4+wh7GDfYNZk0gsZy6yd7zj5DvzYHexI1LWddW+lDm3pok9lBvVyBbs1x2mhjlM9m5K1v+f3wjF9AQEBAQEBAwEGEWYlftVqRP/+v79RntIrFoixechiqVGWyOCY9hQIqgpwkM1KcKisB7O3plQRf8QD+MFWEc5oakN99wx+CQPRIladO6ooKnEnn+NPJRmsgiuaa0iElvKtJGTrvmVRSCqma1JpJCyrLGnUldjxxMgPdyXReKmUSPTr9KIX+HOrVq7BPXytPYsPacI5JchBRv5hwjVIrHV/me6eXGxf9oTAcIB5eQqjDzfq6GmV57A9tY/t9qaocfXhaXnfCUmlUxqSKwc6S/ILUTJbqMrIbeXCu+cxbOpuVQw5ZBCJRkJHxiuzcPSpjkC82kuhTTkYnmzJZrkk+l5GqrrBx1yK3RjZBzGtKSPTZLJgAnhcROrWRuTTVpW3bIo/2J8FwMjoOdl80xiv6qQQO+RFBBiivuqgUiO4b89291Q+yqdqInm11VPKhpN3a0KaZpCpcuXUyB0LB1VveI91mqSeh4r5ChISP94C3xlZi+Q8ftYlKWmCePuuGbNZRUC/HCVclsNCq5AkfXtmmlukqmPVb82ko9SHuV8A4Nhxne04ORIrl7CfyWMbVQjauf3gguQLxI1HUfqsp1A99KOOKHXXqILAW4tzWaXfUyCfBbbT6nKDGrT2rx8A8/qBOfC9gl903joO1p/cM49/gYTkqDFCEpJnEFB/Ob84nHRfI2EEw+PbwXYAYRt6fs8LrHAICAgICAgICDirMSfw+8ME/RiYK4PsVelK6PZBCfb15usxwdukoJ2Vysqjb7Lial0g3IcdnxQrymt8+UVKZhZLr5bbPPjjJyG6U1Vnu7e2ViamiTECUjeoqCAF/NFrFAcgXe6QoVbTDQ0fgYsOhJX9qgEjVJAMnVh9ZAmkog1DxJMwkZAtSlt4cSOvkqJQbeaml50sJHdEOuo7CxbVGHOj4krTEs0kZPPGhU69bCflhHv7RGU76VzM4u+no92YS8vLD8vKqI/ukNDUipYkp+Nx1qdSTMlFqyugoyWxTag1ul2xIX988PkAGgleVPRNFfS9dA/pq9bzq42qVt0tXaXBfeNIlqaO/iRTgNkiLOzlwhqQnRbQXdZrQy3HWMSCZod0o86tC/NEEwSSx8PBjwzqqB1ftLyradkzLd8KOADGfRIurRxxz5qPYjb+toHH8SObcBEQ65QgNCRH/QFDXbcKmky9k58pY061gGkHh4TaYGyDDNILjRVm26+8T2+FqH+8lXy3BtlQOV8KPoZJ81gE6T4GlbewEt1xSIVffuJpIe2gDD30x0se012lkUsmVtgmbEGgfwZa0//yeuXFkXS2rUx/1WNpmo90riug2UGcj26U2PRVWx88ILmGvUGENkj8u7tlc0nsAGRXjMjAlmMC/1r3nfed3neOP71UhJ2etXBG2egYEBAQEBAQEHESYlfhVKhX50/f9ERzLquRyCclmE6hQlmQ6q6swubxtocvn+2T7CzvhFPIIfjrU8BuhpKfQKwN9fVKXnLzi5cfKksNfIQvnzZcF8/KoD3cyU5Dndo7JzvGq1PlGb54USUcUjqY6tbqSJpIDkTl8PmX3wvPMwQWFaJ0rgQmQvopkklxtqUpPLqnkKgnC2gPnt69WglMPclUtSx2EsZLulWKqFwSwgNArdeiqcE0FbahDDlKmDrt+6DSbI2ynbNIeOuR0lJk2QkFnmDYy3wAnGnE6+2nY34dxy6caUi6XdFWUB25UYXsNfa3U7URIrnjqiYqIk1jRR4ebreOgBBjkWg2gQw+dfL5OyQPyuA1Wx5u1KaJ5IFzIZ1zJNFSzzEBjmUWChCj0kwjx6kmO1mF77uAWT+CM21LWTRJ2HsH6bpOIB9N4Asfn21jCVTQSIuohiaO9HGHW9cRP9fMe0Aba4/qnhBLlfmUruj+uTUJXO6GX+j1BbwPyNB//OF/5vB1104patRod0MI5QOJVwz3SNJtwbfH+RLZBhnI6vkw7gsVx83aqTbwvyOdcMNuN4BGcB6mUkVPW9/oIyphe9BvklgNgq+Psq3bDoPKoxxzEqYs5utLI+Ym4jTeDkUxCn+mzyeLsMqJM3X5eEXxuUUdfx4G6SHhT+gL3s04PxC8gICAgICDgl4yRfxIZRShvj/yVX1ukF4jMe53IwvNcxv5jTuJ36aVvk3J1EsRPpK+nR4pFHt8PMgUnsVDIIB8kMJmX4e0vojJIYA8PAMlIJpuRLK58kXgym5Ijj1gqi/rnye8s+2055qiXw0GuyxSIz7M7pmR4pAQvMyMTRZFiAqRGHd0GiBPuIbzRPIjf4MuXyJP/+VM4rCAUibpkQfT6C1nphe9ZSMNRbRSlJ12XymRRKnv3SKY8JWkQQHPAzdmGmyu1ZEaqsJehlumV8fSAVEFYq+mclMC46C4b2UAdtwLCmoR3yLn6oWSJMwz9IwmEO61OMx1jeuwNvjxePWmurJg8tVg9ZKEeX4lhLeCKNgnqorPub0YcrEv7dOujOuq2ipamXfhQm20DRX3Ik8jRWaf93Cqp5IfAxayx7wh1kJyRZOgEYJrtozW1A2WWthU2v2pmq42mhXZzJS7BVTjUJ1SvCyRTnlBASuN+vDjMTKvN3MbI8aeN0Kntk7ygLfaPfVKbOc7WEZUhVD/juJJ08o8QStZYj3ZpDWtXiRTgx4iW0U5K8LTQlk6qNNLEehwjLYKBarO2hySIlZF36FEBxFkEGd4r2kNyxUySPLPBVh0ZqEfvqeq0cWB95ntb2A7tZ5ptUAflzW6A+YhzCzCrWF3qZz4Jptljq6LONn7QrtnGOt4e9hdz1+nUeQ15lUGdPzjj98JWz4CAgICAgIBfHp67UWTP37vEbxD6ThA56no41L0uY98xB/Eryx+/80zp7c/J0iULpVIqywvbdkkJPK1a59Y6npRIRzEtIyOjepT+vPk5zWfg0f61ck0yPSnp78vJgp6c/OFbzpRXH/ly+M1JKdaSsm3niOx+cTec0bSUmwUppQvSBFGs1cqQsef3EnBAlxy2QHaPTcDxbsj8QkoO6W3aFs9mTZ+bK/K1EiCm2XSP7Hl+WJLFCfRuxBxlftAp+rZ89s4oBq6wr5rKSxl1JtO9Ukr1SCXVL/VkTipgIw30izSDz++ZE406GKw6P3TS1Vk2h51+vjrzJD90mlHinWk2Z6d+mh5mKM9Tv5r2OLKgZMJICfN1FQhl/KEOOh11BNPBfNw4tEenXkkA2uPWQ0JFWFnVwhrI0nnXZpx+6uTYMJ/EiroZ1xVDyJFO6jZIJLiK1GxW9L7yPrM9blOt8DlDHQsQP9SDZtXjQTOU3CGPMsyxq3ZK7cctUX20keBP6mJd2kiwXUaNILfasHEzYsd2mK/3AXYzz+dHz+yhzJ9Kyr5FK4mYV1onRvrYIEkS57c9x8eVNNpslqkEbYJ8LpfXrcu7d+2meWo75dgmA20wYcpz/HHlfcFVt64ig3WsbRJc+0MC63p7tAR2+Dzfd9UL8CfzWY+y7I+172zGlXFvE4OeWko51qFO3kOkGXRs+FHiyDsr+sqPyYlx+aMLzpasWykNCAgICAgICPiFYvjLIjv+/y7xG4iB/0vkFde5xL5jTuL3/ssvkJ5CWnr7slIplmV0rCLlckr27JnSgyq4qtJTAOHKZWV8fAykwEgEyYEe5lGB8w1ixq2iC/t75LTXvU5e919+W6ojEyCSJZDIopRA2iolOMfZPkn3L5AUCFw6n5UqtzYm67J37y6Zx7NhcgUpZNIyL58E6WvI1OSYlCtgofBoy9UqygcknSnIGIhkAsRvHt+Wjs7xRMQyHNYGj6tXH5kuLEkPX7kAApNIgwCmpArCV00a+SMRnES8JBldJSSpogPsyV6DtkkF0ZqSnaS+soIOOZ1trv9xSyGca5AGEkxugWQuHWm/gsZn7wglPTDMDogxh5x6+AoCxgneFIW2T+CKf1xpAmWBHEkCuGQN45ChLNphGwj0+WkddeqBIbjJHnqzkWYfSDa0HfunxI9p2kBC6UkR763mQb6M9ryNJKypppEv6uRY0674gSa6GsixZAXahrHgyiHvkbeL48EXlzNNm3QFSwkf7eLY+zFi/9guiR/XQm1M1BpnE3+y3NtIsL6SJoDEUMknxw922VZllLEOPnz/pCdDTPNqK3at7aI2zinJ5/P4foypTRasDS0neSK/Y8/xT+8DGa/TqYCcxqGXhNP6aHrYFK9qh7ar4lamqRZ0PrEu7cScp7zVMXsNrbitprq2UMdspB2qxsRcm/zZwD0/+01vCMQvICAgICAg4JeDH5wPJ27MJX5DccwXRPKDLrFvmPNwlw9dcTEcySoc/4q+Q04kB8LVkOeffxEObRaOeVUWLJgnhUJBdu/aAyfRtq+RHHArGLeHjoGg5fN88XtDjlq0UE5b9ltyaCotSR6BTyebqy1wglNNkJ1cXuogfZLPSR2kKdnbKyPjI9JTGZdmLiU1EK58GgZWG0rmKkiX4Igm0xnJpvqkpwEqN1WCA1+FCq408R15AoLClUO2U5NUA20ZFZLJWglEKa0HyJCUVEACxyUrY6leKfceIo38ITIykZMGSRlkeOJhGuQmk0Bfq8MgBmi/BALIQVTPGeQL+quJBbJw4aEYN5KbPOzIwnaQSNZH09wkCRoWOeTqVqOMTriHHpaDPPXIIccbk0bgSgzbqnO/LcXZLBx1ihE83KVFDtSNV3nmUUZXaenYa0UjCiQzJF8qw3uCq/YHlun2S9anQvwgWeMWSVpdAxm058dQDx877MdsVXHEdbXOxZnL+eEJjFrHca/gHjob2WeVw1iwbU+y8E/zbcuq9Y96CC2nnUirrRwjtQvyIHfMU1lc1TZV5q+UoTxtYl+1muZzXNGgxm3Vjv9sOyjHTYkrKjS4XxUwO/0XysbWTlHlOFjbZguD1fX2sEdahqCrqMhjWomcqdcLx0zz3TgpEGE+ZdklamPayDzHyPR72Iv2mYs47cCV269tjNQSKwRYU0kxFFM/T/U8/dST9fsdEBAQEBAQEPALRXFI5IfvRSTu2fwG4uV/LrLgzS6xb5iT+H34yrep405yNDkFolWGI15LyfDwbnXKe3pzUADnkq9LAOnK5ppKAkulkvT0FCSTTcn4xJieBNjbk5PDF/TLKwopGczl5MhDDsEtI4lAfdw70DxzQJMNqdKofK/0Hb5Udk+OytT4sIxWSzLFgzcgy5MLSQzKcMAnilPqvC7KzZfB3oWSLtdBqyhUhTMLRxYEkvsJqTuRIAGEgw9fmqdm7uAppSChhZ4+SaKPtVQW7Yj0Hv4KaYL4jZYExBU2UiOc9SYIYKI8IVN7t0o+sVPq5bJMTIG0ZOhc066m7B0dl0Z6vhyx5GWyd++kzJ9/qCw67BXgzAulDCLIDoDy0RobbHrggF+JYpLOum4bxcdWmLgiBacb90JX9RyZoizccW1Xb6BWNtLA4MEyn8dn9LiSFYFRmB+vo1v/tMCcfSOWRhg5SWgr87nqR/JjMraCx7gpMX1+xc8/Z0dypu04Heg1+lSz1pgPPf6F+Ez7oOPky1Gm40Wi4spJZoy4kHAhrXGTVdLGiP2IoFtAeYUd+owiSS8twpV1SHgoQyE+W6kRBF0hpE2URxZPzdS2AX4vWF9BcxGn6WoCZLQEGbZ9FboohvbZH72Hvk8Uw4ffD7al4wp7jJAz6sYZklbPCKMffrWBtjHOVT3IeD3OCoWOnd43e6aP6vUPAypv/VS90MS6PNzlTW94XSB+AQEBAQEBAb94TP1Q5EeXIUIP5zcYR35YZOEfuMS+YSbil7rmmmv+G1davv3AnXpgSDKRlmKRp1PyheBcvUjK/IGsLD5igcyb1weHluUV6e0rqKNPJdlsTmogV3TqScx6envJ7qRYm9TVvsULD5WkrpTQYaa3CUebMa5koG1ml0Dedk2OyE8n9siOYlH2lhry4mhRdoPsjVVrukJXBZEpQZyOM08aTMK2GjdbgshRL7WmUEYu0QSxKyN3EulxhmROEvMOkUb/Inl6eK/8aMeIjIDYHnLEMVJu9slUGY5wioSKh6hkRPldZVh2b3saest6OmO5UpOpIret8n2GVZmcmJBqZUJKU6MyvO05KU6MiPrIMKBv3nxYlJZcJq98lGTDtl+SCCT1PXV0wnlsPkMaQX10jgmu5B680qfnc1twzfWm6bgxqPNvJEzz2W/EGRgnbGsfpF2+rki5fLZNQsK6JBh8Fs7SlEU5V4eQ78kHdXhZwrft22U+S4w8kDrY9krOCSU6+Ph81eDk2Q+11+nRq5ucJmbETNt2gXZqmxw3xFFJyR/lCLbndRKU9Xnsn13ZhpZqICFjn5nvDFRZHXtekU/+xa2evhr7rH2CPi/DtpTKsT1+UM65w3HgyaJVzGVNY2w4PvzOMc2VVRJPJaioS/1GEsnunC0INh5sx48HbEacY2Zpmwu0y/ps7FDzEKdN8ZVVbQugXkLbY/Noiwc6HfWypdG4BgQEBAQEBAT8wlDdLbLnHpf4Dca8U0R6fssl9g3kKQT9u3iIiN8/bv5b2bNrDKQOjnrdyB1X8+j4zp/fI7l8Wnry9p65qclJEMOyOrMkNPQdp6ZKeqVSOp3jkCGh40EY9WZCpkAMC/N6ZRL1uFKSTmXgsKakDvmSNGRnaVzDMIjeaLkiEwiT0FmGDYVCjxGRegKEjGto3GJZB6kryZ7iqPAdeEV0rpkv6CEuozW0l+qR8VROCd/eRlKquZyk++dJNZ2R//jxM7AHzjbI5CGHHymlGgwF2eOLq1NJvj6Ch80UpTj5rIzu2S5jo6MyNlkGOWxgXKbU/hS3p8LJ5gqnOsroI/s+PrIbDn5JDl98JPTlIGPkgbohDkE0hTx13pmmK67OOYkPFGEQKWcHzVAeeSoTc9StwNUxh51X7/jHgVwrQ9B7gw9B0kGoFtWL9jRFQmOkT1t2xCG+kkTwHmtFwGxrBcrF8wnNY5TXtnLbesnyuP2ebPgyrwcRDZ5wMdfbQqKjW1OZj6B1qRP1rVnqt74x7XX7tBJjM03r65XrX9DJuc42OJ4Upjxb50qhflBmq3C0xUgXsvWLx7FmUCJGeZZDjttOrXYLrlklc7SbNnq74mPE8YEV0X2l2XqPmE/jWIp5xj8wkBxT3gLHhPPP5q/94cHFXVv8gw518dm+o45YrPV+ruBUbJ+2AQEBAQEBAb/pCMTP8BISv8jdmhiv6Erf1JR5Yb09veqc8sCNagXEbqIioyBAVZCa/nkkgLaKwRWwiQkSwQrSdHCb0AOSNF6SeiUt1Uyv/Pu2HfLY8A55ZMdz8nRpVJ6vg6YtmCclkLFxEKgXUe/ZkRF5bs8IyGYDRGscFtSkryclhX60BTJWLBVleMd2qZRLiJdB7koynm7IRC4hO2tF+cnUmGwdHZGtk0V5aqomPy4mZLJvsVQHjpRibp6MlCZkz/geyYKn9fcm5IjD+2XJoQWplHaChE4ilDE6JA1F2bv7Wdm180eyffgnsv3FnbJz97i8uLcIopgBsaCjDiJZAwGeqoDg1mSyWJdaA2S5VJexsVGZ35eR3jyXJscknSxjoI2EqFff5JZJOvZoDmm+n48Ui2nG0xke9mKrceq0Q5hEkauFvGHq8PPm8S45AsDg47wyWP2M1vMyfiXNCAVaJfkgUQHMCheDciVPKPNEhe0ZCbQtvkccsVSlSRYoW61VpcIVLVyjlT43f0hw+JyiEh0ENsS+0RaOCe2hfcwr5PP63KjvI2Wtvh3+wjh1ezLFVTS2o4fSaD7/cGH5U0WQ96kpXe7mlUHfs1jBXGca5UzzBEvq5OqbJ2/UzS9NrVqTXL4ghxyyUMvYP26N5oFIDExzSy4D81nH6mE8Ko70QV+L9DHo0Cmsn/aJgKjm4x7xXvLqxyqSckqgzXTqldmQ4RwAcdOVQMxVJbycG5wHIHa6SggZkj5edZC9DnzYFNsxvQeA3Zvl+netklU+rFkrt/790zJuf2toob5bHv3C+2Xt3+MXu0dlXManXHxGbJNvvO8kuejLzyD+hNx80kly8+NWEhAQEBAQEPDrjqY89L8n5P3f7nAs4LPdev2kfPFHLt0Fj/7vUTn1S1UZd+mZsPs7k3LSzRXZDT7y1euLsnnUFcyEvVW5+oOjctLX7N3YT3xrQlasnpRv7LXiXxUo8aODt2fPOJzUpm6bzGS5SkCCAQddT/RLw6lOwJFtqvOdzaXk0MMG4EBXpVxCAOnj6ZepNJxJkhUQDjr6mVRGDjl0sWyD7udHpuTJ51+Up3e9KNsqk1LpzUrmsIVS7i9gUBuybQTkateYTEKuL5uXIw87TFcaDwFB5EojBzEFQtRMgYSkE1Ku1GV8oiov7i7Ktl1l2TE6JXtKU/IiCF4R5VOoUThkEYjjQvShKROTO2XvyDZ5ZugHUm+CAFTHZHRym/xk6P+V5555VMZ2/RiO6KQ8/9MfyIvbfygTe7fJruEXZXwc5AFtZeH807nnS9grIH3jE3D663y9RQlkDwHe6iTIRLaQg/yoPPvMv8kLzz4mO55/SnIgc0rKUhhbON2gPDrwPAGUge/nYyAB4tVOBiXo8JvjTsffE0BuC6XTTlJIR57XDFdtVMaceQ26ykjSySvaT0BeV/NIPK3MXp5vxIKtsswiHHEGI3tNbskFgWE9nvZYBhGHWhTZihjnELcJcjWU2xhJnvjyfarQ1VBeVTmgZdCLK/umhEgJIdsxIsjAukzTMj11kx83FrZqZQSGskpokNaxQh6Jr1/psjjGCHObYwER9xwfwDa4Aof2lbyybyCCeqAQyBu3PE9OkDSWcP9JaEn2uNW3DPO5iscvuI0RTEB7JORoAzbptkna6oKSMd43R8b5XdOVPdgLCXxwX3k/uZqsdbQ64qZTV/Qoi7Tftqlw96pB0gv7ayCkDZBYru+S0JrdJMp2fzwxZ54RVRDWGskvA0kr34tZ13YPCPVx2fXkPDlv7efkc5/+tKx718lS+dq75S1XfUO2xX5HP/F/bpVtK26UdWcvdDn4RXv/WjntC0+41ExYKm+49C9l9alHunRAQEBAQEDAbw4ScvJvp+V7/1iTp+mCOVR+BJI2kZZTX+kyuuCEN/bI1aekpd+l50ZK+vsbMh5rpxt2/0dFNh+Zl29eSC+/Jpv/ti5/eEWvnLfACfyKQIkfkU5npdDTow4qV/AmuVUTptNR5MpFuVyDA1wEuSmqw8iDQ6rVupZpOZxFHk5Bh78Cxk13nb58b998GRmFvmJNJsZrIEoTIFF5mbdogaTm5WRXeURGKuOS68nKIfP7ZdGiXjkMZXCB4c9mJdnAADZAPhsoX3C45At9+j44vt1h946ybH9uUnbsHJcpPpdYQdvlshRyfB9bRQp5OPyJupSLuyWXhcfZLMrukWGZKI3K9l3bQBq3y84Xn5Odwz+WCZDCpIzJ0I++Lzu3/1RGdu+S0hSIXhW3r8YlUxDNsSkQyKaMjpVlfLIqpTKdbbjXUF2t2GoRXzPxwgs75T++/7j89NknZcfwD2Vk708wrmWMMZ/ty8E2e1+cETfbUsfVLpI3JXBKBKbDEwGSHhVQYmTEi868ki2QJ95DQlfJmE9HnytiJAaQ0aP/YWuDh9+4Q2ioU+mD5ns9bItEA31EnsohkByMjoxoOeUgoidA8o8EunUQunQ1CQJGgmiNkRM0AF2YN7o6BqKBwFU3bqElGSmXMb84l9AG5W2LLMaKf5BAyOVyGjKZLPIy+noRvl4hy628EdlrET/KkOTpHyRQv0UELU7jPJmkhRwjPYSIdrO36Dbn9/jYhH4X2BdPwviHDh58QrsiQo6rklHajDaysJP2chXTXzOxuPYLdTI6NxhMj20Phj4Ev+JHUmuAXSTa+n2ze8zVzgrIKO8NvwMVfEG4HVtXYBEaPFkXsqil/ea9shN5zZZ83ttoebSbMhyDAwN0DfRL/8BCGXzdefKhT39KLv7P6+Xmf3R/Y6vvFukblBf++Svy1W8+IbtJCJ/bLBv/nyGRLXfKrZ/bLNuc3KN/cyvSt8pX/36IL1ZRlMdfkLFxPsXbjt3/yrqQ//L9MjTnymFAQEBAQEDAwYjssWm5aLIk9/3YZQCPPlaWRW9IyzF0l6bqcv/9Jbn1b0ty5+PgByYi5amGvDBlPukTD5bk/qfq8hCum3da+XSAZJ6bk5P7XHJvTe6Ezlv/tizf+DH1AFM1uW8LHMZdIJ7/VJMfPVYR/gn7qYdN7/iPynLrIyCpj+P6mDHIys6WnodmbPulR0T8eKhLs5GQ4lQZTv0EHN0SHHDRMD4G4gbSR9KSzeRVbgrEB/4mnFRzfKWZhMNZhwNfAXEswnHlaw1S8m+P/0DGqXOsKOOjE5JB3isHj5JSoyQ//OkPZdcYCFZ1UgYW9MvSIw6TBYf0gTikZGy0BPm6TIzVZWykomFqogEyJlJE27Qrk+6FwzpfSnB6p4p1Gd1bkkqxqq9ySKdqKOfKhh3AQic9wRUu9LhQyKuDzO6T7E4Vx2T3np/Ituf+A23slbGxEdm1ZxecZ5Ickt+UVEHyiphERUyWUrEJnU2QTzsMR4lhhW01QZhh62hVRvaUQfjGZM/uYXn2R0/ApooSIhIRv9VOx92RBHPszcmms+3zPEi86OD7rYRcofKHgZCQeLLm5Xjl9kLduojxqNUwNjWQK26zFSOAvI+gbdaAm7sGEjRbT2rTxzrIN+JBERJBd3AN7OXKZo5kCNc0yRFUk8TwxNdcPgMintVnInt6+BL0vPT1FvT1H319BenvR7xAIsStrgyoAwLP90UyTbks0iTPSt4QSJr9iplfZWOZJ3S2NdXs9GPDPJ+mvNZVctW6B/rSdwZHFkmESOj8Sp0PKssVOqY94aNOTZPQkQi35Gmr2ezuNcZQ21QbMBdiQeUQsWcSGY+RWUco/Sqm/uEANpIM0x4jcnklcfk87OAYZt0Vsl6HEUuzm/31ZNAIPGxG/kuGnpNl5ZtENj8NYodfvw994lx53zfH5OjlR8vYN98n5163ucu2i91y/9VvlRufXCQnLFskQ7etko8/aFK7vv9Feein7cSv8q83yrlX3S8yeIIseu5OuflbT0e/6AMCAgICAgJ+jQD/57y3JOXOR2v2f/1UVe57MCV/fBKcKPjnN14zIV/ZkZATliTke38zLqv+1uQqO2rypR+bfzj072VZ+4mifGOHJmfE0lemZSk3QG4vy/vXTsmD8JFOWNSUb3xyTD74CP3i2cE2v/iFSVn7kJOFnvf9RUmenp+WE+Y35Oa/mJAvPmdFP29Enh2fyxsfn1TiR05UqTT0ym2eJDcpELxUOot0Ug9y2btnAs4jVwjy6kRmMjk41mDSZdseJ6jT179Atj79Y6mD7HE1ju9AO2TeAlkwf548/h//Lk8982Mpg5jw2MsJkMtREKURkLfxMRCbGohjJaVkr1xMgPA1QUjLUi5xhYnvGTRnOZuH4wpHlcSPq4C1ck12bn9Bdr24TZ776Y9QdwzkqAyyxpVJvgy+gnhFHW5zgEk8+P69Sdm948dyyPxekDh7fquMidNsgPShXglxv7pH59pWYrgtMa395WmPKZ4kWuL4gSxV02irLrtfHJHRF8cll+IhMHD23ba8FhHhgSR+650FI1mQc+RESQJ7DEfcp12WglFfpnWV8Pi6vMUN2Mo89L28F2ZgoBIgyCmu/rAZtAVZJUWQUrgGjHAY6eEqr5Eiv2KUA6FzJCObkR4QjR6SO1wLIGo9IHY8/ZVEj4QvhzKSuxxCnnIgf4WeHMa/B3I9mEsZ1ZPFleVM+xU1rvzRJPRO7VWbHdhflMJW2mz9pr1+TIzYoB9KchCQR1Jj5Ioy9jWwFUojab6eL2OafVeSRiIWlbPM60I9vTJtc4Q20VbW90SUcf2gjHK6BZREmaubjvhZntfPtth/u3pyqaueJJeOyOkqIkJOSR/HnM9LpkHcq5ClvN1H1ic4x/wKr81Fmwu6jdRdX3LUQNZ2b5Y7/6ZfzjrzZFmIz8lnniX9f/8Neahnpaz+/UGR5RfLZe9bKUtRduZ/v18+t+YNsig3KIOvqsh9ShxnR6WclZPf9zn51NuPEf7GCggICAgICPj1wzHHZ2XRQzX5d9CO8e9X5f5XZuQNS+BmbCnL1xbmZd3/Lyenvi4nN+L6wrdq8qjymnYs/cOC3PhHeVl5mMuYBU/8a0kePaVHPnVuRk59Q14+8Y60PPSPFRnqSctZy+EvLsnI6tPS8uoTs/IayL/m/4rpXQR73p+Xy05Mqp4nlqXl1MPBYw5Py2nL6vKFf7NnA3/eiIhfOmNOpTrUcAzZOLeJ6emdcBzpUJdLPACmLGOjUzI6BvKA6uQyylH4fGAyA2Jkx+KPj43Jc889BzJWVYKQhtNJgjdaLspTQz+R57fvggufVP1jI6MgfBMyNgY2XiF5gVnqEKd0S+DoyDjsSkM33wMn0t83T4nH1NSEEgI69DSYB3HQxt27x2TH9j3y9JP/Ic8//0M9YXT3nnFddaxBx9RUVSYmuRWuBgI7BsKL/oyiHKHZrIKYpGT+gj6Yi8ZINNDBStm2JvIl93Tg6ejTebdnp8AGMWYsR0TliTTIXgKuJ+typY/ONZ+L9I61OtfI00NLIufb8vlaQr5P0JMEIwZGSrgdELwA3BqEgn3HONKV50++HD9NYoIPhkZAnaGohiu3zE7J2N4hqZdHQahfBLkeBzmdkm3bh/UZrzrkuDpoN9TWAj1Jsi2IJD/8IwtPi0xKVlf3UggkHdwiaCSQK1BcOcqTxKHM7CVhIQGiTtvCmUEn+K447RvJEpTzNR3UyVU+Ei3eW6hBXzC/2B/YxbrUy6CrXiQzMJari/asJO9aDWODMSLhBUHXD9tnpzQf2fr8I/Uhi/OIdkIHbWTa+m7919Va6icJZXuoZITUiBSqqB0Z5iMoEXRjl8VctgB7SRIhnEk1JcsxQPsZ9g1yWsb7pkHN1HvA15TovUDfE7g3+hoUhCSvjbobG55Gi3HBPcHQoQ7mKOrVSxMysms7ZPjMHu5rguNSl0yzLmnca5J/tRc2mX6MF+azvWrF5vFLgvqQPLUFvwRffgTiXKnLya6hR+XRLQi7Fsp5l54qSztZWn2bfOO/nilv+9Ob5RuQe2oH/yDlyrog+7qr5Vufu1iWPvk1ufrtK+SiTz8RVvwCAgICAgJ+XXFUWv54cVkefKohDz1WlVN/Lyt69CAfH+lPyDzGib6EDCKz2+FxgwvoYe0jSIdyfJjF0D8fntpwc86DYhRLErLIN0U95YY89UOQ0R/C2Ffm5I9fbr78zxtRb7ntz1zNFBqGEwknls/9MG4nGPIkQxBBEDkeApPLFeBEJtyJiSgvgbggnw5yf19O+vtzsnvXbvIHOMfmLDfh2O7YPSrf3/ojOKEkCb1wONFROJg8LbNcbehWyYkJnrTIVTQSix6QEjjtcEj5SolKZUoJUnGqqKtrMM+AhvRginpNSvrMWElG9+6R7du3yYsvjsmuXSCDO0dkZGQKbVSlVGpKcZLbSCnHUAYJnJKR0QmQEa4o2rsC6dhzpbIJhqurcSBpfGchx6FSqrt3+vEZK5JBrgOTnILI6emdfMccyG21LDt2DCsx9c/ZEbYKxA5YJ2yFhyPOHJCJiBBx9YerSSQSJAkor4NMImLPp7GMBISydOJRj7O+UZLJ8edh2zgIJ8ZrapdUS7ukOLEL5H0HyPkOlFV0RU5Xk7iyS3JCAoPA1TaSPR4AY8QI+tUGF5BnpIi2u+kKPX4FDFENvDe8eL1+m2a0CodCPegGEbahBJNx2EKbdE5SH9tBmRIssBtkqW18dk0PNkFgno4XdKZJULPsB8kjr1yZJrkEUc1ndD4xzq2p+Vwa8zGDKwPi3CaJq25PRegp5HUVUvPxveBqmn+2j6uUJL66Womgz2s6QkxSlWOf0T8S3SzSDIyTnPFeoku4X+gf5hi/D/qCesi3xsUIrR93LeOosC4Cdem46phZPX1OEGMzMbZH6ph/SqaRl00bKU+ir6mCe8aP48JVQ9WDMQFxVwILnQeOipRHxmWcYefT8o0brpYbx/9YPnQ2fiUvPFZOOGobftueJZe+9zJ55+tBBhcdK4P9rup/PiXbyNh2PyoP/str5EOfvlGuftfJsih2+Gc3VH54v2z8Xr+cddWN8sX/epYM/c135ClXFhAQEBAQEPDrhpS84Q1pufNbRbnzexk567VwgICFr0jL4Perct9z8KjBLx56sCpPvzItr5mvxQeMwUH4UN+ryWae1DlVl7/9f+BfnZqWY614n6F6RpNywpvyctk5WTkhL3LskfTsfv6IWgG3k5pfbQNI1PiMElc2SHoqlZqu9tnphg0QExIYEB++ugGBZFC37/WkZOCQvMybx1U+23pIgjY1aWSMzwYOb98D8sV39NVADveqzOGHLdItf/ps3zgIy0QRTjXf9ZdThzqVqcPZBgFINGRiclJXAmkbX/PArZjKn+DoFuDMLl66CCw8r2SkAoI3MV6VajkBoleDI1yWPbvHpVnLyNREDcSohr5DDmES5cUpkkeQ0HIFOlPI50ociDAc5wUL5oPQ9qmzTyJcLE1JGYSKK4B2WiJJck3JJ1cBeWgJiRi34dmak9nJ/ir5o8MPG21bIPtmZI/EhWljTpSh009qwO23RWRxO+m4SHUKJKJpBANjlOQqGexk3WQCNlRHcX/2oM0J3MsKxnQnyNEUyF4JZZMgreOyYH6PLMbYF0B2C1yxc6uzSvIYSAaU4JDM4D6QgNJO2KXtkGkR6Jh+MFb6zBwE/GEqSiBJLFww+6iDxBf9g64sCG2Wq1GNCsgOCFyzgtuJAH1NHkKD3us5NLCJTXJ1la/34NoeyZ8SRtwXXQ0E0dP+cNsjbM5nSN6Yzkpvwa49SPeCvPX18OpCHmnk9ff06LWvUFAZymodkj6QpDz095A4or2CpkmWSGZJwnD/QDiVFON+ZHIYS5SRZPIZRZ6Iy62sJFzxEB8bDW5OcMz9M3edMvFtqQwEr/4PCFxJZu78+f43HWzCBxqkge8RBzKdyKiszi8XfFu0QRUcEB6VGy85TU57E8Ila+X+7B/Lpi99SF7Tg6LUMfKe/7lOFt29Sla87iQ57cr7JX/UEXrC1sI3rZb37LpZ3rriZnli4cly5puH5ONvPUlOeuvXZNtRqnhGZI9cKoseXCunUedHn5HzrvtD3WoREBAQEBAQ8OuJpa/NyKk/rskTr8PVH8Dyspx8/N1Jue9/jMlJ7x2Ttdsz8tk1OVsN/BnQf2JBPvWGulx/5aic9GcT8o15Bdl0AXw7V76voJ7PnVaXtXz9w/vG5dYdSRmMlid/vkhMTEw0uaJ3/oV/AHLkthwKt2dmlfjRKeSqFIkOy7jqVSr/f+2dWazk+VXfT93a97r70re3ac+Mx2PPGLPYRkiIBAwSiPCShzxEUaQASUQ2obxgK+INKcpDFqG8REoCOAmYJWIzwQbFBIyCY+KxZ+zp6ZnebnffvW7t+5Lv5/xudd8ZbLAlx9j4d27/p6r+y2+v0fnUOb9zRImuaHJN2q6ul4oZu3ptx7J5FHBy+fWt3Rrp6AuCuBeLDW5qU9teK9nupaqU+bF1Og3bvbwt6KsJ+oZ2uN+R4onyOretrS13w+wPWp47UA+4ZUskoCpxrSTnX0fwFfYWAppXr28JPMzOzlreNiJz1s+Ay6mU8JwNx1PrCF4z6ay6sOT9QsHF/ZL32VzCCkWsPxmNR16Q2NJYSPEX0KYEWfhgMgZATkGAkM2n7fDgRE1Kqp8MS7D04CaL8lwqljwVxAd++G9ZKlvTKKCwMx4aC70sFHYAaCFYtzADMd4aBj8QEsO3W8e2tlqyk6NHGv2pLa9ctmS2YmMVkACK5ilbEoDOJg2rn7wh6D20RLpkly89Y6+/9seC9BPb3njOjgTc6WzJ3v3C9wgChJRz3Gz7Pg65XEXtodLQTl75DBTwifd+RR8YB2HH41sXQAv40jc+Y0ViH1oo8/xBiSc5171Ls7HlBUmVYk7zeWIrqwB2xZqNvtpkNhhPrDea2ojHsIZphRLUptlqCcZDnFzqWtTne/BolT5TBcPJ2lv0wUX9BNQQ2h/m4c0WLvGkzp/3UwDKiTnApHOsHYdc3nOdP++P2qC58/bozyHMo4FS/uJm3gcJ56kjvLrb8AVZtJd+PblXZYR35wf1PbmH6xxqic0nXZuq7Izn5aQ9movhwAbHB7a6sWODZM7Gvv/zSVsWArC/8M63+/xFiRIlSpQoUaJ8TaX3mtmtf6g3C73nm1R2/5nZ6g+df/jyBI/Mhd6Lfvf4lYuuPs77Ai6iVRJiH3AwywtYgJvacs1qtZor7wUpkLxfXa25hQ4XskIx61Y+QA53RvbNAWVYPMqVslUrgjwpyf0+e8raDk64Q5JXbn1t0wr5soCmK6WfQCxTAZPZ1nbN8sWZ1VaXbH0zZ9VaVvVLudX1Me6WOlCSSbqNZW0qeCgU8l5Ps9Gy0XCivgCpPT1btNW1qlvscN+k3QQaQQln753IQ+8ntrJClNCEXbu6YZcvr9vaSlljsKT+pm1zs2ybWxXb3q4KVFfs2rUNv29nZ82uXNH9u2u2s70W9r2pDneT1egOxoTUn9nNL7xqpGpwN0cRR3CbBE+Cwg1AuBsfh95zhXsJqPLE0iOlfoqFk5yLgPWhnZ7e1+eGdQV4BLGZ4PYoiJuMuwJXopXW7fREYDolMmrDQdiTmI9HNhoIesU67NlL2sCG/UPrdR5aakmQnJxYNj2zosCW/WhJQXWwAgts3bIWIIn2O/QIOhz6WE0sNPWJIDmf//wr9srLL9vZ6anXgxtnCDSCSyXWXI2Vyi7lzTZXs7ZWNru8XrTdtZxt1QRw07p1Gg8tk5hatViwsuDQrXMFXV9fPQ8mkw5721Q2r/qnevSqA0scLo4s9MVeOdwu4S9xUTj0PswBsHTh4LMOzof9gCqD+VsKFsvgUqpDFxbWNw7m2S1ouoexcJD3ahgbTgXQ0iUfsyfHVOfOAZK7dV9I1xBSTLDeORb3LJrvk0DBOqgyuAhrXgVuxVLZRuOB9bs9X0/s6aNPxd7QGi+9YnmtlTcBn78NJVNilChRokSJEiVKlL8a4hopSm6xMrPt3WUbTbtSGKUw59Luoubq5RwrhEBOii5h4SuCOeBpdaUqWKpYucT+p5xgYmxdKZg9KZW9HkmwF3vaxqpobE+/bdve97532c6lFYEMinZCYFWwbivsEZwKOMlBRn0bGzUB1FSHFNh0yt1C2UPnOdU6gp/pzKGtoHYsCQiX1Q5SBJBvjYTbKK3SlV0JJqQ9LqJjQSkWD6IhJtQXV2w1AoVy1q7d2LbtnRVbWS7apS1BX60sBX4q+MvbclVgW8lbtVzwPV55NaooKGbfVWKasFq5bLVqQfcVBSYF9YOgMAkBmNogBZ39i21BbRYgQDHXWF4EC4JzoKj753OlO6HnMDBKw6eVGkO9CgRSyaF12ie+j3EohZ69e5Nh29pnB2oL7pFzjfvAjo4ONGY9a2k+uu22NXSduaC4TvfEev0z6+u5bu/Ujg7vC6Q71qw/stbpA6sJuDdXU3Z5u2DXLlXtys6yba6V1EDWgdqqQmi/Q5yAlP1gC9DyvWE6sHrmCxl3I93WURGU43aZAWCJgOpHyoOesMcM19ROp269bkeg+Dn76G9/1P7wDz9hBwd7bj1ukOD/8FBzxx5HAZ7q8uAxeuXIqr6cDqAUF8ys7+tjj2iAbIfoFBALQAOw569aCxddWB9H2NTh3EaPgSF99hML0QU+OdSxDjgEgRw+hVPBGWk2cIvWeHlajTdBHufDa4A5rO3he8YR4DA8w3vG+8m1MA9+hv/ona8nrrOWfD3Rfh165QeBrr4XS+pIQmtgrLaOMlm79/obGu8zleeF+Kt3Ud8VSndrfpQoUaJEiRIlSpS/EpL8qZ/6qZ9Gsbx59xNWFMC12qf27NuvCowm1m63BFpTBzgseePx0EgGTXh4rEYLBRllFFBEuQWusOgJW6RwLtmg35HybVYpZ+y5567YxlpVsIflMK+yh1Iu0ZuBsZwHSiHK52w+slJZn4d9fSZAxchagkOp9x78ZSJlGKUdLZX6AFKsRyjOmUzOUgIz1GCigQKj09nEun2CsJiNxjMbTUYOmAQ2WVI/dwR8xr65kfohCJjo2khtyeaWBLl5t2qqpwIogqWwn1E9niU8RQRBZgDbgqCTZ4gMOhiOVb9E7ZMKbvl8wb7z/d+tspbVXynxPmaIRsmJz/+F41xhp6xHjx5p3Mq6SwAghX0yalmjflfgS/L0lPUHHY1jWX3P6fypQKsouMl6vaM+qTGObCJIALA6nZbqInF6X8DX1TGATQTLRY0tltae3d+7pbE+sWo+YcP+icoQFEz61q6fqPy6xg+rXwgEA9/gPkn7fT+bDvbYEXwlQBZQvyQYLgmUeS3a+lrNivmM+tZzqx1WSPZGagA15lO1Y2Dt3sSO6j2rNwfW6U811ymBV96W0iVLaY5JEbGkdQZoed0aL1ySqROY81fNoR8OdwHksFaG4DKCTI1zu93Ue8Z6or721NYcHXoMQS7q50IWJnJET/krsjjHvQ54HFogngpBRfF5YQ0N8A5ghUe8Lj3OK6e8qPPDx3hR9rlcNNezv5UfL1hKBPyZEdhI6xmrvD97vsb0hMYvpF9Zrq7ok6BO0D3mRwABcWZL55LqO0J9aoiaqjYFWAbcGcMoUaJEiRIlSpSvqYxPzeq/df7hm1gq7zcrPHP+4csT+AdZ6JOLw8EPYPrkp3/NleqVtYrValjwsBTMrX7as+FAijnggWIp3iLJNgFeiKIJeAEB0kV1LWm9Pq6IIU+eB88opW1zvWLXrm4JUJI2VUOw9hQyJO/OuQtbqVR2YMGyRyJ3UgWQkNojZ44IzgJQdR3cZlJIcWXEqjfSCVw+cavMZrIOjeSVC++nbiXKZAWBUqxJ48DRHZDInH19E9vcqNqNGzsCM3Ludd1NFGCYjEj30BEIk2w8r3EgifuSp4kgjyAQSMJ2ktWj5GNRLJUFJBobVPiWgJkgK7QNhb5YLNh7vvU7NEYiYOnWAZaD+ETwd2FSvBSBw0zAmgOQ9H4uGJ5PiJL4ULDZtWp1VWD4QP3IWLlStbOzU41hyqq1VY2p+ipIn81GqgBL6szGAr2JIA5rINBeKJYcqsvlZdvevmR7929rnOuqWtDbr9vJySP1eWAHqmP/0b6dNXuWSOft8OjUVlaWBQvqh5q6gD13bfQj9I81slrJ2WpNMJoY2+pyTuNdsGxybL2OQPL0oR0fPbJcUWW5E2ZK8yPIUx3ZfNXKyxtWWd60TKFq6VzBipWK5qOoOjVGC3KSLFwsF8L4MQ60gfcLkHNIFcBg/WPdnp4cCdybls1Obe/ebY3FWGtvTW0IAVHeKpQT5ia8X8ji3MKKx6fFOV79swYFEAOk3KKoL0wYK7CMdvJerwzo4jkdi1x+9I/DYU/XvX+6HiKfErSobf/z9z8ucG7ataduhGeZCJqJlW9pqLV7ZmurW5pT9Q+QUxmZlapp8Wo8w48oi3oT7ANMpiybmuu7u+b1RokSJUqUKFGifE0lgl+Qrzb44QL4mx/7cFAWpVnOpRzipofn2e3X9z3aJxY1zq2u1QRDObcKsHEwl8sLNqquUKMQd9ptXQPmcvbsM5dtZblghXzSatWS4GMsJZOw9jlLzqV4CtKwjBBoBQWVYBL5ogCAPYBjVS6FlP1yGEo8f2C7ozoIOpGR0j5QHRV/jxVy6LCpR3Qz8Fk/baoM9vARmEIglUhbfyhgHPRtaiPb2arY9WsbujLyfW/Jpazn7VsSKC1Xq64gE100RPVcEvARFZOceAJitZk9cijjRExMpdUowQ0ATELypPiuWC4KwAIcM6iA4+7uFYckBwFX+IOCfnFCwmfgWnBcKvh7Nlym1Oqc6sFtr908E3xtaDyC5Y/xa3fa6u/YLl2+pjpIfp7V2CTtzu1XHYR3L12yumAHS+dMfcjlSoLKZXv7sy/aqspqNup6JmXlUt4aTX3RGEv95+ikYclMyUrrOzZTucDGxtoyw+Cw53sVgT/aDfQJKnidq82DFpbCQxv2G9ZqHtvdW2/YZz79f23vzn2B35lAKGuPTpoC14rGPpAk5SSx1mleQzLyvKUF7wTuwVrl+es0KBfhawFdf/aY+g8TDtHzJ3vkev2ePXq4Z62zA3vt1ktWr58aqTnWNy+55W9hdWUMaA8H8rhOv/Zk7vz8+bnFMw5q589ihQM6fW8gr7rGwdrEWskPHvzgwH7OYL0Mbqh+P2UsQFHls3Z4H9aKYFb1tVsN+93f+aj/qPKOd70QvjPqP0CZWVL5ubEHSaqU12yWUFv1b6Yypvq+LWl5sk8WKMUyyTVft4L+Jevbxsa2g2aUKFGiRIkSJcrXVCYts9PfOP/wTSy17xZg3Dj/8OXJX2Dxm9lHf+9XrdHqCuYGrjRiicPdi0TtKIIEicikyfmV9L1jI0EVwLi8UpWSajYQUNlS315499NWWy7acq1sW5vLbk3LZgVOo76Rl206wflRENYbPoYyLHuqUUqtoE3nSRGBgo77KGVns0QXDZ2oVgV72aSVBValUsnbdnzaEgR1bQKM9ifWV3m9gRRXPTwm+bweBnYGgjebjWx9NWc3rm+6An3n9kOBjuqbaTAEF+RnK1ULlhPc7u8f6xncV0n6jvVMcCsoIMxmThA8nY9D2gh1g/Eaq82MXS5XUN1ZtanvbYELqP+5519UEewvZD8ZgBQsLaIZjYkg1QEqWHKwerrbojT7Ui5pV7a3bVtgUq2sq71Nte2+FHVgOVg6ty9t2+HBkQB72x7sHduOxj6XmVvj7FhlSIUfNtSXlgf8YBzJj/jM0+8QEO7a3b07gsITe/75dzhEumur2naicyMN387l6wLZZXv44K7ma2rbaktCKKoeqOnsuVO71Q/WA9vMgG/mD7dXT5zfGVqzPbaT+sBOmwMbTlKWymkeC0Bz1veMBgtdWKDBmnUOOjrnLp28co06OXkuQFeAPKyi4T11h1cABrfLuU106K15wJ9+227efElru677BIK9nua8JsDMC4b5UWPqz9EP9ulRG2VzqHaHI66F9nF+6nPGBZrmoObXgLNwD1eFiDpPH/khQoVwUJhEmOdvuY9B5Do/MHCL53Ckbj6oX5TtuQu1/gDadrdtn335s5YQoF25ek3rjz5oTLzvU28DuTHJvTlVOb3+QG3W/0+nGhOBMeMFyNPnEDSJFCwN63YO7fq1Z7Uu096qKFGiRIkSJUqUr5mkl81Ofk360fD8xDepbP1ds1SIYv/lyl/o6vnrH/0FVw5RjlFQsb7hNlldLrvLo++Jw3oiZRHrF5E1PTG7NPKx6ID9Zsn00K7f2DTSIRD0BUhILOFaNrdsPmP5Ut7hxt0pJyNXXqXS23jAprmQj64j8ENpBQIngjapr9546dJucSxXCoI6krD3VIbWw0nT6s2uwHLoSutgKMVesEVAFYRXsGqKpUhlbW3UrFJiP+LMzup9Pd/1Z4YTgehSVnVNrdvvOZwxFs1mX+WylxDlWCWlEoID8grq3BTXUvVFN5JPEPfXEH0z6c+RzmI4FAlpoNPpvH3Lt3ybrmekuAdQAjyBOyw77Ilzq5AfuPCFa0Sl3NkgauhljemqIKkm6F21W7desrHmBGtrt0dAnpzmYW6XLt1QW2e2UstZuViyna1dq1SX7f7912wwaqv9gMrM8oIA2jBVH/Ye3bdep+0guL62bRsblzVyGdt7eNujhNL+VvPU7t27rXFL2NWrT9tM4M86qZQLGs+SkficfI0j1oiPPS6XWFEBY0Aa9811W90QwKovu1evqs1aX2o/++4A4ccWMb0yhizQhaULmFosWoRXB7HzV+StnxF/r0fmOu+A6j8uNOy1my+7aySQg8vw7uVLumemNtEWftwYe52sUZ6nr9TMOnwMqawsfeZ8sMIFsPO2cq/fr/+qDYw5z/Gqx3SB8/zz/3i+QvZxzmd8LwRj58/MZj2B6rHa2dJXpOfXcQGmBn70oGy+j/f3HniNm1orNY0pZQHi7Mfle0JQJKzNfJeOjk58bRFoh+9FaArtoCH0AVfhrh0d3LF3Pv9tWrtfaYaaKFGiRIkSJUqUr4Kwban70vmHb0LB2rf2I+cfvnz588FvPrWP/8Ev2+HxqZS/oHgTMXMucFsSuK2tL7sC2e12bDqa2XQiKME1LS2gIpJkcmbrG1Xb2llRRSEqKHCE4tof9tyVDLfF/kiwJmW0229b0u/JSgHNWGIqJBNYoYyO5iOHJ1xIPaiMdNu+FFuUcxKKd/oCNZ0nWEVTYEWuN/YsFYtZy+vISHHH+khOPlzmgDcsY+wLzOVTtrpKPjP2CArwdCwtZWxje0NDo7bqMwnYsQBNBE8ZQUu3A1CihE8tk0u6KyfjxdiQ609Y4kp1p93RgJLKIeUKdqcb9iVCCriOVqs1e/e3vNuy2Yxbr7IZUg9Qh8aaPVUCPODhiXtfQI2Cxump69fdfQ8JQUvSgpYzOz6569a+ZlvgK8BMqb3PvP0dVq6VbLlc9MAweY1xuVxVWxp2cHjX+05fsfL0NZYFwTjjt7G2adcFdCvLK3qmKPDK2oNH96zVbaovLQd79jRWy5u2vXVNYDFz6+/21pZbXvN55mtoveHA2+172s77klGbcT3lwGV4Y23Frlzedesqyf+DW6P67EcAPo63isMJZfNekLK4Z3H/xWcoSyd8HN1i6BbUme/rOzl85EDX63dsfX3dGo2Gf0E6nTOtj1UNj8Z+mrBioeAgSAoLfrDw6KDn7wF0INXB/Rz2qfOxm6Ymmc9+nwNfAMbQxzDP+uSQBRuyD3I272qdt/Q9a3m0W9KjNBr37O69z2jubnqE02azrvYJ3HFJTWAxV1k6alpjl3Yu2coKIE1gJc2zKuXHEPq3v7+v8Sfy7siOj498DEvFgrcJSypuou4yPRhoXPr6DrT0HRjY88+/J4JflChRokSJEuUvR0ovimIOBQNvnJ/4JhL6fuWDUvW+cj3sS4FfotvtzkfjoX3wZ/62HZ+eCUSy1j7rSLkV1CyhrY6lTC67hahx0raz457Vj/sCt4KVKktWXU5buZqSAl1zC+Fp/VhAmLScQAXLyclx3eGLfH6ZgqCs2/OE5MAC+f2mQ6rI2KDd0/0zS5cyauxUSihum0R5xCI38mAqKM/kESRAy7CPK2Gw+pHGYW29rN6NHKz6g6Er/LNZ0hrqCy6e6VxainFNMDJyZXs0nNtZQ3Uupa1QyauOno36CSneJDwceYTTXKZo7dZASrRZpVKwKTnPBGmjEcFRch74hX2LRCcdqE0o4yj8DOxknrRubyy4KVkpW7QX3/OtdunyFdXZsd1LV9UfgdSg7fuuMumajV2Jd2RyZRzXPpJ6F9Jze/655x6DH3J2dmb/649+wz7z0scEW0sar7z6f8U21y/ZM8897/u4amobUIlFD2X/j/74Y/bGnU9729yCaimHi9W1DZst5ezapRv29I13+p5F9gqenB7b7378l+3odE9A1BMkVAW9K3b16rvsHc+91y2SWPmuXb3sQAdJHBwe2eFZw0GY/Hwptd9dLnUAX9SNrNTKnguSIDP7hyc6/+SaEwl8J1lExkTCi/7LPxaCZPHM4pXz1Ic4+J2LX9faOj15YI36geCvr3XRsDv3b/s6vHfvnu9TTKYStrN9xdbXdtTfmn3He7/T19F5E85l8em8vfhIInqhfrcSCqzPT+l9gD7axXXGAfBmrdMuIn3OZ2Nrnu1pLF638aSvtZm0p972LofO//OpT9jJyT1rC9yLhU27ceNZ29m6arlc2XL5quYy/FDBHlcs7xPN9QDrvL50tLQ3nNjR0ZFHbsViTKTeQr7gPxggQCrzTdto50jPD1kfS1N759ufth//8X/swBglSpQoUaJEifKXJo1PmDV1DPcfq2B/ZQW3zsp7zVb/xvmJr1zQDRF0TQ70Yn/v4Cdw+cl/8TcFbCFf3vFBS4ohQTHmbiUrltJSiDdd5yWdweuv3RPQVG1jq2jbuyXBQ0H3JqwuZRp3P6xbWKZIpH7v3kPND/n2SpYrZ61UCEm4cWfDcjKfLVl2qWRjPSc+lXJas353bPfv7BvBP87aXWs0ujaboCQDkKXg2pjOWV2gCpShmBbLtJMgGQCUQCM1c5c3IpIeH51ZQ+U8dX1T/eoIiAru1grQWJKgL8E1NJfJW7N1KmVY4FQrudvc4UFD7VS7S1lrSPkGtCgfyx4Wq4RgEKvneDK2tGAZL0eCZCTSpIKo6l4p1OO5vfDii7a8uipoa2osrwoUG6r3TMr8mkDoii3lVgUNKbeUYSVirLFUppdmdmlz0y1TWEJR2O/v3bGP/d7P2+Exv37kNE5VW1u7bO96/t0OGuxrLOWJjpoSGPTt8OiR/cmnfk+gWXeg7/cGmvykxg3X27RlchV76uo1W65t2+7uNQfDW7desU99+hPW7jbdClooVWxldcteeOG77PKl53xPmpjB0zWUyyV6acenp3bYaNoXbt20d7/4bsvPNRcOFME6p39+eBL4DO6+pAphD6ZATcB0UQIUTTW/PC9oOj/H4dd5iLfQyrlMJ6QgaVupXLaU+oYly+2muo+opp/97Cc1n3cdeG/fvm9a4erbSOug4+CHtQsourR7WfNdth/6wR9ROwtqgxbe4/YFQPIJCq3wV1DPz/uJc/DjS6ZzibHgdz7Qmakgv6DxHWhcH9lE5VIf+Q8/+7lP6rvymlum57OUPXXj7Xb9xnX7nY/+ptoueDtsWk5rpax5wAJHCpRioeaQB9T1+z2tw5nWx8hdj0nTAVAPBYb8sMP4bm1t2ac+9Snf19nWM41W0y2PPIelkrUHiI70fD6fse9637fbhz700xH8okSJEiVKlChRvoHkIvg9hj4dyQ9+8IMhqudHPyydVZo8ESxHZu1m2x9IChQIIEKgFIAknUvY2mbVrl7bFvhVBYZL1ht0XbmmnJXVFXfhxGqFi2e93pASSrqGtHWHfSn9aRsIPLDqobQCcGeNtiWSqj27JAAj0IrZSAA6nSbU8KFgk31PSd9nSLlYk4KmrUqlWGPpANaKhZyDp82ngpGMwCvvVilAo14/dnhDACrSGhCzAn2+2eqpbNUpAOQ8wWOqAhqOZrMVgmXMx1Ko2cOGS95E7U66NYjIobh9ejt4rzbhBguAlsg5l5ByX2Rfo26Zj9zVMJ2aC8JOVNeZ6hTUihhW1naltI/dFRKLEbAERFJfu3NmEzWQXHx37nzBPvfyH9vnb35a40QwDgZCCrtgD9fLyahrJ8ePdG/dHu3v2RtvvGxfePWzdni454r9RHPC2APMKUFvrxuC+WDdvf/gtruQPnh4x+7eu+muvex18z5pDWD12738No3rqqBKa0UtxZrYH5C0H5feqbV6HfvsK58TuDxluQRBec7RiBe3cjEO5FKcqH8+ieG62ubQpH4/trE5SQVw41KwGoayCKbCa3BVBBw5z7ME18nZkuCIBPNcS7JYVF+zcWKnpwfu6uiApAGm3b1eX2tNY6lxQZg7IPvZZwlsIiB609+5nDcxfJlCm7jmbUqwd1U3aJCHGo/R4NTqp7ftwYNXrau5PNX8PHhw0x7u3bVWs6410fV0Gt1OX6CYtEq5atVaTeuPHI1563dndnDQtpPTnh2fNKzR7Fj9rGX7h8eCxT27c/ee7e8f2dHJqeC7rvXc9u8QllZyYQJ5JcE5P8a8cfsN9R13TizswRWA+zwAjsaIHJn8CMK4rqgN3/e9H/DvbpQoUaJEiRIlSpRvDPlSrp4Ofuy7+++/8WEb9idS+Ij6KDDp913vRpklKbq/S+h6amrbO2sOCgRfwTI46JOIOyRfr1QJLDGzvhRqB8k5+6Ky1un2LZVFoc4I/EbWafU9dx5wcyYlttsdesqGdqep+gmykXfrmJchGCXCKNo2Situj0SW5H4sFFiGVlZCEBr29+GCWamUdHvClWmul88TsbPXCze79Y2K1ZYLHnRmPCUNRdjXVy7ndI0AKjlXhEnynhKopTNzu/YULoBAYdY2dE+ppDaeEiGRPXMEoQkBb5YIZpPN+B7A0XhgG5sltScnMBoIkloCS43vsOmunq54C942t97mkU5zmYKPOVyBOybzAeAdHe3Zazf/1F597U/t1huf8bZO1W72HxIsZnNzyw4EeqNxV5D30A6PHuqZBxrXhuDvto8fij/t9DEjSI/mDrdM4IY+YBmsnx0KxA/dioRFFGufB/FZyniOQAK7lEs1By8MkzQ2gIMPtwMcaRhWasuWdvdVnYMwwj8HbZ3w8xfFF6ReNTsOU4vD9875Pjn2xYVfLMK+OdYV7Qr76Dj4jNspqSBCmylPfdUc3rvzhsbvVWu127Z/cASxaf0MrN3uaAxxyc37OHv79XxN7b9y+YrWUmHRQI1RsFy+SR63W2tE9SW1tpJzjWtf5Qq6koLA6UzzPOmqTfw4UfD1CEyztpcSpCbh+5MUqGL905rMlHV/wk5OBHj1nt26xd6+vr4PIfgS+y9DjsuR1vvQ4dV/KNA8+Hf2fIwYC/qDFXRtfV3PTgS9x+F7Wi67mys/bNBv7i8W81rXG1r/627NzueyDn4X3YyjRIkSJUqUKFGifH3LAvzQl13HPj8c/Aj7/pFf/TkpwkQyTLmlbpGnDljIF3JuBcnn05YTKAEJ7N1rNTsOViixKI7HJ3UppBMHMkLFZ9J5G49wP5tZo4GCGfZ7kV6gXC4YKR6GUo7X1lbt/v19lde3Tq/tMEPYfVenZ4I30iJIOcYKwf5BqGhra1uKcEPQhNLKnkEU/oQAZCo4Yw/TQG2ZujUQS1OxhHtnX3VnXKkFfnCFo60DtZlAMii+lWrBCkUsg8Bgx6rLRbtybdPBbc2T2ydtVZC5XCs5MJyddXx/IYnvWy3y6k0tkydwDQFqgJapnsViqkmYDFUqrnd9G6h9A403gXIAMNI04GoKxAEGbIR025fGViq9lPum3bv3OQdACAtLIwCg4VQ9ebt8+bLtPbhrp6eHDuS9PgFfcOlMqx9AObnaBEwaLMoEGruC8bC/TmytceOVeXeLHPvFBKSMH+DPODM+L7zrRc0rYOXM8wSItLAQ3HcJZpNNpTV7FxYbF4kYqTkMx5NryOIzLonAigMf53QEuMPiDLgTXCWlvhB9M5Tz+Nr5M1hikYT6NOi27bVXP2/377xue3sPPWXJg4N96wqWPFKtYAjoW11d01zW/Xnfs6hR73a7dmn3kv+Q4FDlMxL66e3W4ZYyfbnu337dDvbu2cnBI3v4cM8e7t0XZB1as9HU65m1W6QpmeuY+ToE3CZj5oE1OBGI024Ai4BESwLUgSD/nt187b7mr695S7nLMy1g/pkf3ItpB19uXpkH2uRjoLlmzynu2/Qjpz7i+tvudNTvkV27ds1hcFXfvY2NNYc7oNznRs+y5vjuf/8HfkAgGizlUaJEiRIlSpQoUb7+ZSKWQ9APLx7JD33oQ+7q+Sv//b9IuUXhTknpw20zKH4o04WCXlMhxQMXscR1Wj3BxCgQpQrCSlfMV4xIlljzsEihiAIogBxWPxJzD/oCpbWSbWzi/mlWrZUFW2W7c3tPMLVhhXLR+j3BpMAMoBkPSaSuulCUpejSBvYvse+o3e668gtQAX7Ndt2jMuayGet1e1KYB4JBksKT626kcnFxpK0TOz3uSikfqL0djxJKeZUKScPVxoFASTBIioUrVzetVCZSo/oxHegce/mwkAGnatNsZMurBJcpCZDTtrJasnQ2oWfSOrAclbwfAC9h9+kXwWa67bG1GkQXJfqiNG4BI0npQ6ANgehUfdN7LKS4rva6TU+EDkzQ/gFuqRqbALBMpql/XTtrnDn4MOFY6whi4zCP5Y6olAIBt/qJLbmOt+V4EpLf4z9LkBD65q6QLBpBBtdGWK+SCYei27ffsHt37+n6VHO2oudoP8/Dq4JzYMwBKcDcY8EVE7BbfOTQdWDDXwUcAJ0DH8/pCH17cnjwFLXPIedcFuVxKlzTqzoIvowEvzc//7I16ycqN2NnWp/7GkNSczAX/KBBm4DJ8Zh9pqGeswZjTR5HIG1oy8srXrdbWacEH5r4+GDl7XU79sZrX7CewP/4aN8OT5uqp2WtTtdarbagr+Pw3Wz09Jn3XYduwH+kOZyMdDAhard6KDDs2p37e3Z00tR9WvNak8VyTt+7tncSEGbd457K2NFnxgxLJ9Ds46c/XK75Doe9i3lPlL9cq2mdl/08P/A4JCewVjPfwYrIjzEEeckXCvaDP/CDEfyiRIkSJUqUKFG+gQQd9U3687luHSx+gpJf+sjPu0IZAkcEyw3nUTTLpYIXgIsYsIMiXMinbXtr00P297sDwd5Az2dsNEARFsBIQR4IUEhcDvQUigUvJ5ddEgwVrFrNS1El310IHlIuVW19fcVW14tuWaxUi34dfZjAFeyjA1xKpaLvfUqpnT0pz7gjZtJLtru7ozaOBKkhZD0RPXEfBVSmgrN2p+/wExTboU3VLqwopXJFinjPg2xg5cCVDuihzO3tmq2tlgVDHfUNJVsKNjhBnyYzPR8sjeJMwd2S2r0kCCy6mygQ0ZUCX63UBEMhUXZf7SU6KVvJjo6bbv0hVUVBIIsl80xwki+kpHQ3rN196GNbLS1Lhdd93TMB18vWap8ZSfYHPcGp5oL0B6RrqJRr6i8pF7o+VyjxvpdvQvJ59t8JWKXsz1QaroW4enoCb80N95OWgL1xRCclTQCWJXGdZMnnAEjgedwjScw+V//rjaa97ZnnzKaAXgCwxQIjbx5/wN4C0jgPSLrVyq9xn9bY+T1+20z1Ccim5LIDsFQ5ewH9Eq/cpzYHt0Y1TJ+5//HzXrbeMFde/dwa9TM72H9kSUFeq9PSWsDdNqM+qMwJdQHjA5rm9dEut8gKgHBZHmkcd7Z3rSloq6vvbc0rkS97+h4wD+TgOzoiWmjPBlpfkyWNH/0HUtWepF4djvXex8DhNXwJnbzVfyyHAPnR8YntPXjkr9TLZb4HxVLewdFdb4FUrXWs7AV9H9gry3usuYwRP3bUlqu2sblhyys17yvu3KwDD5ijPwIkdTi0ZrB+Mp6sJf4fwHcGV9CN9U3769/zvdHVM0qUKFGiRIkS5RtI0O0R9M4F9HE4+HHiIx/5BSmeYymqQYkmCMvi5hD4gUAiggkptrlc1oqFrMCEwBcpd0VrNwfW60gJ1mffjyd4mM2TUlQFFmPgQuAmZTwvJRQrBZEUR6RokKIPUJB/bDwVtOhg71xtuWLpbFKKuCCzlLTt3TUrVTJGMngUdpR8LGdY59bXau6Oh5YM9HEOBZk6RyPB1nSk/hBJlGTdQ9+/RdmZHInc6RfuoqRfGLgFhpxmBQHY2ip7rgiCQgL2lPoBjEiFx0Kkzx5Uhn6qDMAJWMHSlM3lrdUKls9cliiOas+APIhEdkw6cOHux15KdP9yJSflGnub4DklBX1Qt7PTBx7pNCsAPTt7aCcnd61e3xck5t1q2Wr1gqIvWKA/uGDeunVTZQq6BWUAGgdWQaw3QAnAAIAAcc5IEhR+ol8C+qTjAKIAjgB8whbNsbt66j7WA5bdcqFqQwFPa9CzZ1983oY+vmlL+bwHoNN//GDthLoCmDmg6S/A3ZP9hpQ91yv9we2U0fDDrYSMOYcWrKpIJzTeek0t0XZesYLN/JXzGa2RvLqaY950bi7ouXP3juZuYoeH+24FxNpHkvShxgZ3UmCffIbdXl/1LjlMYTcj6iU/Smxt7era0IRdHhSGnwC4d39vz5arZWs1G5qnUx9PT+TupfgI2HhGQCAs41P/sYCk/KuVitbtsm1vrgrQ1kxfBXvl86/awcGxg30yndWa1JhqziivWAyuyhzMIwGGgD2u831kb97Ozo5VqhUP5MJ5+uuWPC1afhToCfQI6uI/fAC4ElxnseixZllHpHwgl2OtWnPr+fvf/53+/YwSJUqUKFGiRInyjSGLbUAXoY/DXT254eGj+1KOb0nxxiIQFHFgCEUdV0pXZqXJkpy8KqUV6MGtE3gTD1pbkENUR5RVPan7iTCpkiYJG/bZzxSUeawrgNbpScMtcgAZjTprnBoh5IEqAm6whwl2yBaWfN+du09W81JQM9ZrkYcuYeTrw42NwC4ktgYofW+a+oDVolRW2YIA7iU8P8owlg+ujdytbezuooTGB0Bwn8QqiNVkSSCxtVGxPLn6NHjAFNYXArAAMJiHcEE9O+0KsAiXnxZQSNHGgjRNulUN1V8cYH1BxUAAxj7FyYyIoiPVHSyoBKSp1PIe7n+icR4Oeyq3afWTuu7vaIwEgWcPrNE89CTvKOHAZ1vgR/RQIGkqsMgJYjudpiv71MN+zeBmGxR8rE/5fIE3ugfgBr6CBc0tR+qng7/GHAhiPABETzSuZ90iJGjBFTidztsbt25bMpuyZ1581v701Zc0LgPbXN309eMLTeUAewSB4T12PsCfcXWIc2ibG0iR1okU602fVaTlMmqrwDyno6gTedFcRueT6ut8MrDZsC3wbFq3Vbf68SM7Pdiz44f37ejRPTt8eNeOHtyz47279vDebXuk14P9B/Zg76FguaWjqcYIEAF3ytOk4h7JK9bcmcZrLvjESndpa9O219fwhLSttQ1372Q9ZPQdSPF9MEF198yKuSVbLhdsuVSw3Z1N293esI0VgZOAsKZzFc1NPpWwrL4/2FyTM/ARV1RBoaB5/+DQvvD6Xbt//4GvQVYsayysM16nWic5tzTyPVpeWbb1jRXB3rpDHkn6ATg1WXMYLLisLUCv2+v4fHr/9D3jO8D6x126ou8xqVdIe8J3GmgsFikv5zCIFfy93/6+CH5RokSJEiVKlCjfIIIeGAwRT4Dv8dHv96X7z+3ma5+3n/znPyoF0rV0BwTAD82TvW4AXzoNIOR8z1Gv03NXS6x7SYET1jeAAssYLmMUAtxUpJi6GxtWsQwWBuwoUngngFHYN1irlQVxXbfykfIA8ANusD6UpFCzr4qQ+wBNKVe2UQsIS9qjh0de7/VrW9bp6nkpsSQ3xzKZLaT0vOpWx0cjNGjgZar7sbqZDQSsKNmUjfEDQAMG3QVPsLi6mrdve881jUHC3VEZRACIdiFYWU5PQ9AOUkbUVqoqu2cJgVHC+09f2TeGtSfsK3QXS9WDIo+VCxArlFKCELUukQ11+OCL1PsDh7FcNiflndD7ar/mhGcJmHNWxz0vbST5Ft658k86i5PjY2ucdQUplJNUvYJ2gQ3lYNED5qgHAGY/HcBAsB0Ctwgb3NKFCyntBP7SKT0j2CBgTFb9vLRzxZ5/x3vsl37xl21DYPR3/v6P2W//we/bUzvX7Lu//f02Uz+FIOqPeqJCAI3gNqz5F7yxRsKcsOeyZyPBCRFkObBOMXLUhVst64PVkmFM1R0glrkdjPo2URtxX6WsidYAsLYoG8su1sOR+jhX30kd8fDRiZ0J+rr9nnqpsRf4dLCsaY3jPkwuwmVAqBZAKCPYWauVtN6ymuOBxqfma3A0HXi9rG9gdjrp++LJYzUDijMZ1RnWGuPs1lXNPz9Q0H72MTIzwNRQbXzl1i3b2z+yZpcgQ1jnFhZQINtH0tY3V+3ylS3NC27UpF8AWEOwIwd0rTHGk7q0AHUN6yrBlTLuJor7NrC3mAugFwst9/Cc90X1eRn8yEF5gkXg8Gf/7b/X+JR0T5QoUaJEiRIlSpSvd/HtS9LxAL23WvwSuqhrQVH88H/9D/bffuk/OQygduN2hzUokZg48OEeCfyhkHYEPO66qBsBQ5zfVIQfmI0Wr0BiyIuWlKI7cHVZLOVgMJ3PBDNzy2awqrGHzgQnWOQyqhNIEHhkQnJ4Ar4Ad4Vc3tYEeCvVFbt1857vLXzuuac8TH8InEIAlpTQcuLWNKnRbokbDYNbIYotLpITldnrY71b8rpRykeCUaw+5XLarl9ftSu7K9YULNAXIiOm01n1CaU+AA3nMGR67j21N8ALFsO5LS/XvB+4A5KInrQOWMOAUB8n4UelUrRsHgscynbarY1YbLKkz5hPvFwCbNRP624ppVzcBbHIENGTwC3AUqvddHBB0W82OgK/tltSUeixbk0EBHoXgNzhNQASi8HL0vwxg0BCUP7PXTC9nxn1a6DzY9/3dfXyFftr3/N99q//zb+zTYH5j/3o37M79+9aWuUuV6oODOxnxPLoiew1ke4Gq8/8eECZtAWrLIFTJrjiYv0cEGFToKf7mSParQL8XvIwhvXFogpWrfO3Pg9eDz0IA+uvvB3rfFpAdu3GDctpHN9443UB86nGWvOsdU3eRNZMVhBGZM+swzN7URnLpGUEVljl+GGAewcjQTHJ+jXpapr3ba4hDXvjSKhe8vqSWqP8oBECrRBpNIArbcOtFEDb3z+0l155xe7tP/IgMKxP5oYgQyUBF3v06FO321MfE27pBuqAQo9Yq7bgVoy7LGPGcNBnwJM9eYwBdafwfdV5xp16yQu5CKbDOsAyyPNYxNnjyXn2+fE84Pcvf+Zf+WuUKFGiRIkSJUqUr2/xH/DR+6XPfdFDip/05uDyx/Ef//PP2q//1q/4RRRFXPXSafKPoRjjJpaygYCp3596pEKU8kqt4G5lKJrsP2OPHUo8SvnCRTQpYBzPJpbWPQTcwJUOi0xX95L2gSiaKKTZHKkX8lLEM8GNcQp4JlV+z61UWNo2V5dtd+eS7T84scZxx9ZWa9butB1IEVw1scoQ7AWFmX2JvV7Y5EhfCXbR18AMgBQp9eTKQ1mezACwoVXLS/bsszsCgLwdH51YLl/wlBK+p06gwIByP58JEtMXbDImuLoCqTP1s1qr+H489gVOiNw4G7jlxFMrsKErIcDLEpwj4y6E0r/VTsBQZadz0tVDMBXPtdZourKPayf5CUejgcBy2QEN0CVPG8BAQnZcPAm+EtxthS2aB31Qm4C9YMFD4WeuGQugPJfHfTRY9LiXoDP0kQNXTyyOJPGuCA5WBN3PPP2M/Y+PfdxW1LYf/v4P2FyNJ5ANEAKUAXmAnRoQaESvwBkCoLC2OA+Uk1MReuIyqSxCW/nBgXNcE9icAyOgGlxJtaAW5egB+kZ/EECO86T0uHbjaVvb2PQIm0fHx3Z48EhjPLCi1hA/aLglWvODZRLgBxT1sNoBzAcrGe3glYP8hEuCOtY54wuozdR+auZRANHdhdVmfgRgbjjYY8mYhz4nPILn6VnT9h491HcqZ/liyaZuldYa0JjTK4+gq0L5Avv60kHD6CfrGYBjblSojzvCNdYlMJ8RgDIOtJ91xHcR4bvBOqI9vudTz8DY9I/0D6xp7mWsKwL5f/IT/9ShOEqUKFGiRIkSJcrXr6AzcqD/cSysfcjinIMfCuPF4w/+8OP2ix/5OXvwcM+V7lIRMCKIBCCSd0tXrzd2axupGEj1gFUIaxepA7AEqhhXINPk3ZOC3x/0pVhPrSDl0vdQSb0d67WD1ZBGnd9PlMeUIJF8gUAOl1xBR1FFCRfIFXVtuVqxkeBzPk7ZwYNH55YOks+P3SUPZZgE6rlCxpXbVCpvW5ub6tNDgdPQGu0zd+3EHTKTlkIvJTqdT9qVy5tSgKeCvuCyWj9tqv9VOz1peih+j3oqaOAaSnahXLDTekhv0elgbcRvk31zc6stl92FMkDPxFZWVgQfdWt3h7q3I3irqG/B6jSfo4Qv6Xxw65xMBa3AhuqjvYCPB+7wfIQNptDb7mVrkGgXYwgMkg6AoDK93shaTQE57QVSVA/CmDpE6Vlgm7EGzhPsv1O/Oi3BhifwJ6VGSGRPOoCqwK9Wrrjb6NFZ3YoCiMsbG5ZSucBryOUXFpi3S2UvFhw1h/UVrHXBTZF74BvuC26NWEJxQd3e3rJSuextxfIM3DYaDUFtw/cDLtI+ADKAn1sU9RnIqQpYnnvu7bZ9aVfQ17ZP/u8/sQePDu3k+MgteJvraxrXlP8YAfQsqf3MJYxcVJ3lCpEwtU7P937SbtYV1rGuABw4B6ixwuqKX3OrscYeyyA/cHDvwnWS1BGs4TRt1hoWAnpUUMaLsjmH+y7veQZ3VoBUg+jtWoxdrpD3/vE+6+ud/JBhHi9+sbmHlCO8p2z/TH81twl9ZlAZNyx7CN9HhBJ4hvp4XxHk/8Q/+EcR/KJEiRIlSpQoUb5OBT0QfRNWQo/7UgeSkKIpPTIot289jo4PrF4/kTJKom/2HIXgEOwx8v1WUnaBrbDnCOU/WGOw+iwqQRlH7cdahxINvHnV0i71iAMaDabs89MugAEKK+AJLCCUjaIbAoZw3qRMpwU3bb+XEwESgxJN23Ax9X1sqYzfA3C5RXAcctdhgVkEOmH/IfsMlwSfWO0on37ixodCj7sjYESfKJ/+ZbIEjFF5ggGUf1Rmukyb2X8XFG76xueMWwbZxwUYAHYAy6JvPEt9oR8CYIECLWRM6C8QwOA56Ai0sDghlI/1JljyNKYqAxAExIEUyvAHXXjP+D7pA2McxjNAJEFhQruCmybnSP5Oe9j7hkw0XinNAzn7aAX1PqkDCfW46HlueHzmvF7OMP6I99/vwULMnsOi91eryMeCACUkXGdhUxztXcji7QL8OMoCONqDC3Cj2dQ6w+dZ61hnsRqHMdNc0g7Nv1vkJFjDSBXi60INZl2wbj2ircacdcP6ciDUH/1kHCkD4bnQntAo3tNX3lAX71nNlIEwzl4HY+J/Eu6nbP3z7wvPMdYafw/ios8edVd98LLPhbe04nE5Ev/8uLhwNbzyLgj9XBRzfqsL9V27fl1jxY83UaJEiRIlSpQoUf6yZaH7oX+iQ35ZwLf4DPgtHr54XDy3eH/xFbn4PkqUKFGiRIkSJUqUKFGifPVkAW/IRZBbvL71/Zc655/H47H47c2gd/HzW18vXo8SJUqUKFGiRIkSJUqUKP9/5c9A3Bd5fev1i+/9dTKZiOPeDHYIpsOL5xdy8f1Cvti5KFGiRIkSJUqUKFGiRInylcsC1i7KxXMXoS5srQvvL55/66uDHx+At8Wx+PzFXhfy1s9RokSJEiVKlChRokSJEuWrKwt4W8ifC3fnx+Lzk1ez/wcuLTqT3J9EKQAAAABJRU5ErkJggg==;" vertex="1" parent="1">
          <mxGeometry x="40" y="720.45" width="1054" height="260.55" as="geometry" />
        </mxCell>
      </root>
    </mxGraphModel>
  </diagram>
</mxfile>
